%TF.GenerationSoftware,KiCad,Pcbnew,9.0.1*%
%TF.CreationDate,2025-07-11T18:37:37+05:30*%
%TF.ProjectId,relaymodule,72656c61-796d-46f6-9475-6c652e6b6963,rev?*%
%TF.SameCoordinates,Original*%
%TF.FileFunction,Soldermask,Top*%
%TF.FilePolarity,Negative*%
%FSLAX46Y46*%
G04 Gerber Fmt 4.6, Leading zero omitted, Abs format (unit mm)*
G04 Created by KiCad (PCBNEW 9.0.1) date 2025-07-11 18:37:37*
%MOMM*%
%LPD*%
G01*
G04 APERTURE LIST*
G04 Aperture macros list*
%AMRoundRect*
0 Rectangle with rounded corners*
0 $1 Rounding radius*
0 $2 $3 $4 $5 $6 $7 $8 $9 X,Y pos of 4 corners*
0 Add a 4 corners polygon primitive as box body*
4,1,4,$2,$3,$4,$5,$6,$7,$8,$9,$2,$3,0*
0 Add four circle primitives for the rounded corners*
1,1,$1+$1,$2,$3*
1,1,$1+$1,$4,$5*
1,1,$1+$1,$6,$7*
1,1,$1+$1,$8,$9*
0 Add four rect primitives between the rounded corners*
20,1,$1+$1,$2,$3,$4,$5,0*
20,1,$1+$1,$4,$5,$6,$7,0*
20,1,$1+$1,$6,$7,$8,$9,0*
20,1,$1+$1,$8,$9,$2,$3,0*%
G04 Aperture macros list end*
%ADD10C,0.800000*%
%ADD11C,5.000000*%
%ADD12RoundRect,0.250000X-0.625000X0.375000X-0.625000X-0.375000X0.625000X-0.375000X0.625000X0.375000X0*%
%ADD13RoundRect,0.250000X-0.350000X-0.450000X0.350000X-0.450000X0.350000X0.450000X-0.350000X0.450000X0*%
%ADD14RoundRect,0.250001X1.099999X-1.099999X1.099999X1.099999X-1.099999X1.099999X-1.099999X-1.099999X0*%
%ADD15C,2.700000*%
%ADD16R,2.500000X2.500000*%
%ADD17O,2.500000X2.500000*%
%ADD18RoundRect,0.250000X0.450000X-0.350000X0.450000X0.350000X-0.450000X0.350000X-0.450000X-0.350000X0*%
%ADD19RoundRect,0.250000X-0.450000X0.350000X-0.450000X-0.350000X0.450000X-0.350000X0.450000X0.350000X0*%
%ADD20RoundRect,0.250000X0.475000X-0.337500X0.475000X0.337500X-0.475000X0.337500X-0.475000X-0.337500X0*%
%ADD21RoundRect,0.250001X-1.099999X1.099999X-1.099999X-1.099999X1.099999X-1.099999X1.099999X1.099999X0*%
%ADD22RoundRect,0.250000X-0.550000X-0.550000X0.550000X-0.550000X0.550000X0.550000X-0.550000X0.550000X0*%
%ADD23C,1.600000*%
%ADD24RoundRect,0.250000X-0.375000X-0.625000X0.375000X-0.625000X0.375000X0.625000X-0.375000X0.625000X0*%
%ADD25RoundRect,0.250001X-1.099999X-1.099999X1.099999X-1.099999X1.099999X1.099999X-1.099999X1.099999X0*%
%ADD26R,1.700000X1.700000*%
%ADD27C,1.700000*%
%ADD28R,1.550000X1.000000*%
G04 APERTURE END LIST*
D10*
%TO.C,H4*%
X194135825Y-136705825D03*
X194685000Y-135380000D03*
X194685000Y-138031650D03*
X196010825Y-134830825D03*
D11*
X196010825Y-136705825D03*
D10*
X196010825Y-138580825D03*
X197336650Y-135380000D03*
X197336650Y-138031650D03*
X197885825Y-136705825D03*
%TD*%
D12*
%TO.C,D1*%
X140685000Y-67880000D03*
X140685000Y-70680000D03*
%TD*%
D13*
%TO.C,R24*%
X152185000Y-75380000D03*
X154185000Y-75380000D03*
%TD*%
D14*
%TO.C,J6*%
X187635000Y-93880000D03*
D15*
X187635000Y-88880000D03*
X187635000Y-83880000D03*
%TD*%
D16*
%TO.C,K8*%
X162557500Y-129380000D03*
D17*
X164557500Y-135380000D03*
X176757500Y-135380000D03*
X176757500Y-123380000D03*
X164557500Y-123380000D03*
%TD*%
D12*
%TO.C,D5*%
X140685000Y-108980000D03*
X140685000Y-111780000D03*
%TD*%
%TO.C,D6*%
X140685000Y-114480000D03*
X140685000Y-117280000D03*
%TD*%
%TO.C,D11*%
X157685000Y-86980000D03*
X157685000Y-89780000D03*
%TD*%
D18*
%TO.C,R12*%
X153185000Y-114880000D03*
X153185000Y-112880000D03*
%TD*%
D12*
%TO.C,D3*%
X140685000Y-87380000D03*
X140685000Y-90180000D03*
%TD*%
D14*
%TO.C,J7*%
X187635000Y-115380000D03*
D15*
X187635000Y-110380000D03*
X187635000Y-105380000D03*
%TD*%
D13*
%TO.C,R16*%
X144185000Y-68380000D03*
X146185000Y-68380000D03*
%TD*%
D12*
%TO.C,D7*%
X140685000Y-128080000D03*
X140685000Y-130880000D03*
%TD*%
D13*
%TO.C,R14*%
X144185000Y-61880000D03*
X146185000Y-61880000D03*
%TD*%
D10*
%TO.C,H3*%
X99484175Y-136705825D03*
X100033350Y-135380000D03*
X100033350Y-138031650D03*
X101359175Y-134830825D03*
D11*
X101359175Y-136705825D03*
D10*
X101359175Y-138580825D03*
X102685000Y-135380000D03*
X102685000Y-138031650D03*
X103234175Y-136705825D03*
%TD*%
D19*
%TO.C,R2*%
X140685000Y-82380000D03*
X140685000Y-84380000D03*
%TD*%
D10*
%TO.C,H2*%
X193935000Y-62380000D03*
X194484175Y-61054175D03*
X194484175Y-63705825D03*
X195810000Y-60505000D03*
D11*
X195810000Y-62380000D03*
D10*
X195810000Y-64255000D03*
X197135825Y-61054175D03*
X197135825Y-63705825D03*
X197685000Y-62380000D03*
%TD*%
D20*
%TO.C,C2*%
X149147500Y-113417500D03*
X149147500Y-111342500D03*
%TD*%
D21*
%TO.C,J3*%
X109685000Y-105380000D03*
D15*
X109685000Y-110380000D03*
X109685000Y-115380000D03*
%TD*%
D13*
%TO.C,R19*%
X144185000Y-78880000D03*
X146185000Y-78880000D03*
%TD*%
D19*
%TO.C,R8*%
X157685000Y-122780000D03*
X157685000Y-124780000D03*
%TD*%
D16*
%TO.C,K1*%
X135812500Y-68880000D03*
D17*
X133812500Y-62880000D03*
X121612500Y-62880000D03*
X121612500Y-74880000D03*
X133812500Y-74880000D03*
%TD*%
D12*
%TO.C,D14*%
X157685000Y-114980000D03*
X157685000Y-117780000D03*
%TD*%
%TO.C,D9*%
X157685000Y-67480000D03*
X157685000Y-70280000D03*
%TD*%
D13*
%TO.C,R20*%
X152185000Y-61380000D03*
X154185000Y-61380000D03*
%TD*%
D21*
%TO.C,J1*%
X110185000Y-64102500D03*
D15*
X110185000Y-69102500D03*
X110185000Y-74102500D03*
%TD*%
D22*
%TO.C,U1*%
X145380000Y-84220000D03*
D23*
X145380000Y-86760000D03*
X145380000Y-89300000D03*
X145380000Y-91840000D03*
X145380000Y-94380000D03*
X145380000Y-96920000D03*
X145380000Y-99460000D03*
X145380000Y-102000000D03*
X145380000Y-104540000D03*
X153000000Y-104540000D03*
X153000000Y-102000000D03*
X153000000Y-99460000D03*
X153000000Y-96920000D03*
X153000000Y-94380000D03*
X153000000Y-91840000D03*
X153000000Y-89300000D03*
X153000000Y-86760000D03*
X153000000Y-84220000D03*
%TD*%
D13*
%TO.C,R23*%
X152185000Y-71880000D03*
X154185000Y-71880000D03*
%TD*%
D24*
%TO.C,D17*%
X148385000Y-119880000D03*
X151185000Y-119880000D03*
%TD*%
D18*
%TO.C,R11*%
X145185000Y-110880000D03*
X145185000Y-108880000D03*
%TD*%
D13*
%TO.C,R17*%
X144185000Y-71880000D03*
X146185000Y-71880000D03*
%TD*%
D20*
%TO.C,C1*%
X145685000Y-120955000D03*
X145685000Y-118880000D03*
%TD*%
D13*
%TO.C,R15*%
X144185000Y-64880000D03*
X146185000Y-64880000D03*
%TD*%
D19*
%TO.C,R7*%
X157685000Y-104280000D03*
X157685000Y-106280000D03*
%TD*%
D14*
%TO.C,J8*%
X187685000Y-134380000D03*
D15*
X187685000Y-129380000D03*
X187685000Y-124380000D03*
%TD*%
D12*
%TO.C,D13*%
X157685000Y-109480000D03*
X157685000Y-112280000D03*
%TD*%
D16*
%TO.C,K6*%
X162557500Y-88880000D03*
D17*
X164557500Y-94880000D03*
X176757500Y-94880000D03*
X176757500Y-82880000D03*
X164557500Y-82880000D03*
%TD*%
D16*
%TO.C,K7*%
X162557500Y-110380000D03*
D17*
X164557500Y-116380000D03*
X176757500Y-116380000D03*
X176757500Y-104380000D03*
X164557500Y-104380000D03*
%TD*%
D12*
%TO.C,D4*%
X140685000Y-92880000D03*
X140685000Y-95680000D03*
%TD*%
D18*
%TO.C,R13*%
X145185000Y-115880000D03*
X145185000Y-113880000D03*
%TD*%
D19*
%TO.C,R5*%
X157685000Y-61980000D03*
X157685000Y-63980000D03*
%TD*%
D10*
%TO.C,H1*%
X99810000Y-62380000D03*
X100359175Y-61054175D03*
X100359175Y-63705825D03*
X101685000Y-60505000D03*
D11*
X101685000Y-62380000D03*
D10*
X101685000Y-64255000D03*
X103010825Y-61054175D03*
X103010825Y-63705825D03*
X103560000Y-62380000D03*
%TD*%
D12*
%TO.C,D2*%
X140685000Y-73380000D03*
X140685000Y-76180000D03*
%TD*%
%TO.C,D10*%
X157685000Y-73480000D03*
X157685000Y-76280000D03*
%TD*%
D21*
%TO.C,J2*%
X110185000Y-83880000D03*
D15*
X110185000Y-88880000D03*
X110185000Y-93880000D03*
%TD*%
D16*
%TO.C,K5*%
X162557500Y-68880000D03*
D17*
X164557500Y-74880000D03*
X176757500Y-74880000D03*
X176757500Y-62880000D03*
X164557500Y-62880000D03*
%TD*%
D12*
%TO.C,D12*%
X157685000Y-92980000D03*
X157685000Y-95780000D03*
%TD*%
D13*
%TO.C,R22*%
X152185000Y-68380000D03*
X154185000Y-68380000D03*
%TD*%
D19*
%TO.C,R3*%
X140685000Y-103980000D03*
X140685000Y-105980000D03*
%TD*%
D13*
%TO.C,R21*%
X152185000Y-64880000D03*
X154185000Y-64880000D03*
%TD*%
D14*
%TO.C,J5*%
X187685000Y-73880000D03*
D15*
X187685000Y-68880000D03*
X187685000Y-63880000D03*
%TD*%
D25*
%TO.C,J9*%
X147185000Y-133880000D03*
D15*
X152185000Y-133880000D03*
%TD*%
D18*
%TO.C,R10*%
X153185000Y-110380000D03*
X153185000Y-108380000D03*
%TD*%
D13*
%TO.C,R18*%
X144185000Y-75380000D03*
X146185000Y-75380000D03*
%TD*%
D16*
%TO.C,K3*%
X135812500Y-110380000D03*
D17*
X133812500Y-104380000D03*
X121612500Y-104380000D03*
X121612500Y-116380000D03*
X133812500Y-116380000D03*
%TD*%
D19*
%TO.C,R1*%
X140685000Y-62880000D03*
X140685000Y-64880000D03*
%TD*%
D12*
%TO.C,D16*%
X157685000Y-133480000D03*
X157685000Y-136280000D03*
%TD*%
D18*
%TO.C,R9*%
X153685000Y-120880000D03*
X153685000Y-118880000D03*
%TD*%
D21*
%TO.C,J4*%
X109685000Y-124380000D03*
D15*
X109685000Y-129380000D03*
X109685000Y-134380000D03*
%TD*%
D16*
%TO.C,K4*%
X135312500Y-129380000D03*
D17*
X133312500Y-123380000D03*
X121112500Y-123380000D03*
X121112500Y-135380000D03*
X133312500Y-135380000D03*
%TD*%
D12*
%TO.C,D15*%
X157685000Y-127980000D03*
X157685000Y-130780000D03*
%TD*%
D13*
%TO.C,R25*%
X152185000Y-78880000D03*
X154185000Y-78880000D03*
%TD*%
D12*
%TO.C,D8*%
X140685000Y-134080000D03*
X140685000Y-136880000D03*
%TD*%
D26*
%TO.C,J10*%
X149185000Y-79500000D03*
D27*
X149185000Y-76960000D03*
X149185000Y-74420000D03*
X149185000Y-71880000D03*
X149185000Y-69340000D03*
X149185000Y-66800000D03*
X149185000Y-64260000D03*
X149185000Y-61720000D03*
%TD*%
D28*
%TO.C,SW1*%
X147060000Y-125530000D03*
X152310000Y-125530000D03*
X147060000Y-127230000D03*
X152310000Y-127230000D03*
%TD*%
D19*
%TO.C,R6*%
X157685000Y-81480000D03*
X157685000Y-83480000D03*
%TD*%
%TO.C,R4*%
X140685000Y-122580000D03*
X140685000Y-124580000D03*
%TD*%
D16*
%TO.C,K2*%
X135812500Y-88880000D03*
D17*
X133812500Y-82880000D03*
X121612500Y-82880000D03*
X121612500Y-94880000D03*
X133812500Y-94880000D03*
%TD*%
M02*
