%TF.GenerationSoftware,KiCad,Pcbnew,9.0.1*%
%TF.CreationDate,2025-07-11T18:37:43+05:30*%
%TF.ProjectId,relaymodule,72656c61-796d-46f6-9475-6c652e6b6963,rev?*%
%TF.SameCoordinates,Original*%
%TF.FileFunction,Drillmap*%
%TF.FilePolarity,Positive*%
%FSLAX45Y45*%
G04 Gerber Fmt 4.5, Leading zero omitted, Abs format (unit mm)*
G04 Created by KiCad (PCBNEW 9.0.1) date 2025-07-11 18:37:43*
%MOMM*%
%LPD*%
G01*
G04 APERTURE LIST*
%ADD10C,0.050000*%
%ADD11C,0.200000*%
%ADD12C,0.100000*%
%ADD13C,0.130000*%
%ADD14C,0.170000*%
%ADD15C,0.250000*%
G04 APERTURE END LIST*
D10*
X9868500Y-5938000D02*
X9868500Y-13938000D01*
X9868500Y-5938000D02*
X19868500Y-5938000D01*
X19868500Y-5938000D02*
X19868500Y-13938000D01*
X9868500Y-13938000D02*
X19868500Y-13938000D01*
D11*
D12*
X13840000Y-8598742D02*
X13870000Y-8628742D01*
X13870000Y-8598742D02*
X13840000Y-8628742D01*
X13927942Y-7352709D02*
X13957942Y-7382709D01*
X13957942Y-7352709D02*
X13927942Y-7382709D01*
X14053500Y-6763000D02*
X14083500Y-6793000D01*
X14083500Y-6763000D02*
X14053500Y-6793000D01*
X14053500Y-7053000D02*
X14083500Y-7083000D01*
X14083500Y-7053000D02*
X14053500Y-7083000D01*
X14053500Y-8423000D02*
X14083500Y-8453000D01*
X14083500Y-8423000D02*
X14053500Y-8453000D01*
X14053500Y-9273000D02*
X14083500Y-9303000D01*
X14083500Y-9273000D02*
X14053500Y-9303000D01*
X14053500Y-10583000D02*
X14083500Y-10613000D01*
X14083500Y-10583000D02*
X14053500Y-10613000D01*
X14053500Y-10883000D02*
X14083500Y-10913000D01*
X14083500Y-10883000D02*
X14053500Y-10913000D01*
X14053500Y-11433000D02*
X14083500Y-11463000D01*
X14083500Y-11433000D02*
X14053500Y-11463000D01*
X14053500Y-12443000D02*
X14083500Y-12473000D01*
X14083500Y-12443000D02*
X14053500Y-12473000D01*
X14053500Y-12793000D02*
X14083500Y-12823000D01*
X14083500Y-12793000D02*
X14053500Y-12823000D01*
X14053500Y-13393000D02*
X14083500Y-13423000D01*
X14083500Y-13393000D02*
X14053500Y-13423000D01*
X14235000Y-6050000D02*
X14265000Y-6080000D01*
X14265000Y-6050000D02*
X14235000Y-6080000D01*
X14272482Y-7520975D02*
X14302482Y-7550975D01*
X14302482Y-7520975D02*
X14272482Y-7550975D01*
X14335000Y-12435000D02*
X14365000Y-12465000D01*
X14365000Y-12435000D02*
X14335000Y-12465000D01*
X14403500Y-6173000D02*
X14433500Y-6203000D01*
X14433500Y-6173000D02*
X14403500Y-6203000D01*
X14403500Y-7873000D02*
X14433500Y-7903000D01*
X14433500Y-7873000D02*
X14403500Y-7903000D01*
X14503500Y-10873000D02*
X14533500Y-10903000D01*
X14533500Y-10873000D02*
X14503500Y-10903000D01*
X14503500Y-11373000D02*
X14533500Y-11403000D01*
X14533500Y-11373000D02*
X14503500Y-11403000D01*
X14517026Y-7008934D02*
X14547026Y-7038934D01*
X14547026Y-7008934D02*
X14517026Y-7038934D01*
X14544456Y-6239192D02*
X14574456Y-6269192D01*
X14574456Y-6239192D02*
X14544456Y-6269192D01*
X14553500Y-11873000D02*
X14583500Y-11903000D01*
X14583500Y-11873000D02*
X14553500Y-11903000D01*
X14558600Y-6428491D02*
X14588600Y-6458491D01*
X14588600Y-6428491D02*
X14558600Y-6458491D01*
X14603500Y-7173000D02*
X14633500Y-7203000D01*
X14633500Y-7173000D02*
X14603500Y-7203000D01*
X14658160Y-6050343D02*
X14688160Y-6080343D01*
X14688160Y-6050343D02*
X14658160Y-6080343D01*
X14690820Y-12554996D02*
X14720820Y-12584996D01*
X14720820Y-12554996D02*
X14690820Y-12584996D01*
X14761004Y-11910504D02*
X14791004Y-11940504D01*
X14791004Y-11910504D02*
X14761004Y-11940504D01*
X14785189Y-6076735D02*
X14815189Y-6106735D01*
X14815189Y-6076735D02*
X14785189Y-6106735D01*
X14899750Y-11119250D02*
X14929750Y-11149250D01*
X14929750Y-11119250D02*
X14899750Y-11149250D01*
X14899750Y-11326750D02*
X14929750Y-11356750D01*
X14929750Y-11326750D02*
X14899750Y-11356750D01*
X15145076Y-12585492D02*
X15175076Y-12615492D01*
X15175076Y-12585492D02*
X15145076Y-12615492D01*
X15203500Y-6473000D02*
X15233500Y-6503000D01*
X15233500Y-6473000D02*
X15203500Y-6503000D01*
X15203500Y-6823000D02*
X15233500Y-6853000D01*
X15233500Y-6823000D02*
X15203500Y-6853000D01*
X15203500Y-7173000D02*
X15233500Y-7203000D01*
X15233500Y-7173000D02*
X15203500Y-7203000D01*
X15203500Y-7523000D02*
X15233500Y-7553000D01*
X15233500Y-7523000D02*
X15203500Y-7553000D01*
X15203500Y-7873000D02*
X15233500Y-7903000D01*
X15233500Y-7873000D02*
X15203500Y-7903000D01*
X15205268Y-6131697D02*
X15235268Y-6161697D01*
X15235268Y-6131697D02*
X15205268Y-6161697D01*
X15220000Y-10823000D02*
X15250000Y-10853000D01*
X15250000Y-10823000D02*
X15220000Y-10853000D01*
X15250100Y-11273000D02*
X15280100Y-11303000D01*
X15280100Y-11273000D02*
X15250100Y-11303000D01*
X15385000Y-12235000D02*
X15415000Y-12265000D01*
X15415000Y-12235000D02*
X15385000Y-12265000D01*
X15503383Y-8803383D02*
X15533383Y-8833383D01*
X15533383Y-8803383D02*
X15503383Y-8833383D01*
X15535000Y-10985000D02*
X15565000Y-11015000D01*
X15565000Y-10985000D02*
X15535000Y-11015000D01*
X15585000Y-12385000D02*
X15615000Y-12415000D01*
X15615000Y-12385000D02*
X15585000Y-12415000D01*
X15753500Y-6183000D02*
X15783500Y-6213000D01*
X15783500Y-6183000D02*
X15753500Y-6213000D01*
X15753500Y-7333000D02*
X15783500Y-7363000D01*
X15783500Y-7333000D02*
X15753500Y-7363000D01*
X15753500Y-7613000D02*
X15783500Y-7643000D01*
X15783500Y-7613000D02*
X15753500Y-7643000D01*
X15753500Y-8133000D02*
X15783500Y-8163000D01*
X15783500Y-8133000D02*
X15753500Y-8163000D01*
X15753500Y-8683000D02*
X15783500Y-8713000D01*
X15783500Y-8683000D02*
X15753500Y-8713000D01*
X15753500Y-8963000D02*
X15783500Y-8993000D01*
X15783500Y-8963000D02*
X15753500Y-8993000D01*
X15753500Y-9563000D02*
X15783500Y-9593000D01*
X15783500Y-9563000D02*
X15753500Y-9593000D01*
X15753500Y-10613000D02*
X15783500Y-10643000D01*
X15783500Y-10613000D02*
X15753500Y-10643000D01*
X15753500Y-10933000D02*
X15783500Y-10963000D01*
X15783500Y-10933000D02*
X15753500Y-10963000D01*
X15753500Y-12783000D02*
X15783500Y-12813000D01*
X15783500Y-12783000D02*
X15753500Y-12813000D01*
X15753500Y-13613000D02*
X15783500Y-13643000D01*
X15783500Y-13613000D02*
X15753500Y-13643000D01*
X15780000Y-11763000D02*
X15810000Y-11793000D01*
X15810000Y-11763000D02*
X15780000Y-11793000D01*
X15780000Y-12267597D02*
X15810000Y-12297597D01*
X15810000Y-12267597D02*
X15780000Y-12297597D01*
X15867758Y-10351628D02*
X15897758Y-10381628D01*
X15897758Y-10351628D02*
X15867758Y-10381628D01*
X15978600Y-9266347D02*
X16008600Y-9296347D01*
X16008600Y-9266347D02*
X15978600Y-9296347D01*
X9973418Y-13670582D02*
G75*
G02*
X9923418Y-13670582I-25000J0D01*
G01*
X9923418Y-13670582D02*
G75*
G02*
X9973418Y-13670582I25000J0D01*
G01*
X10006000Y-6238000D02*
G75*
G02*
X9956000Y-6238000I-25000J0D01*
G01*
X9956000Y-6238000D02*
G75*
G02*
X10006000Y-6238000I25000J0D01*
G01*
X10028335Y-13538000D02*
G75*
G02*
X9978335Y-13538000I-25000J0D01*
G01*
X9978335Y-13538000D02*
G75*
G02*
X10028335Y-13538000I25000J0D01*
G01*
X10028335Y-13803165D02*
G75*
G02*
X9978335Y-13803165I-25000J0D01*
G01*
X9978335Y-13803165D02*
G75*
G02*
X10028335Y-13803165I25000J0D01*
G01*
X10060918Y-6105417D02*
G75*
G02*
X10010918Y-6105417I-25000J0D01*
G01*
X10010918Y-6105417D02*
G75*
G02*
X10060918Y-6105417I25000J0D01*
G01*
X10060918Y-6370582D02*
G75*
G02*
X10010918Y-6370582I-25000J0D01*
G01*
X10010918Y-6370582D02*
G75*
G02*
X10060918Y-6370582I25000J0D01*
G01*
X10160918Y-13483082D02*
G75*
G02*
X10110918Y-13483082I-25000J0D01*
G01*
X10110918Y-13483082D02*
G75*
G02*
X10160918Y-13483082I25000J0D01*
G01*
X10160918Y-13858082D02*
G75*
G02*
X10110918Y-13858082I-25000J0D01*
G01*
X10110918Y-13858082D02*
G75*
G02*
X10160918Y-13858082I25000J0D01*
G01*
X10193500Y-6050500D02*
G75*
G02*
X10143500Y-6050500I-25000J0D01*
G01*
X10143500Y-6050500D02*
G75*
G02*
X10193500Y-6050500I25000J0D01*
G01*
X10193500Y-6425500D02*
G75*
G02*
X10143500Y-6425500I-25000J0D01*
G01*
X10143500Y-6425500D02*
G75*
G02*
X10193500Y-6425500I25000J0D01*
G01*
X10293500Y-13538000D02*
G75*
G02*
X10243500Y-13538000I-25000J0D01*
G01*
X10243500Y-13538000D02*
G75*
G02*
X10293500Y-13538000I25000J0D01*
G01*
X10293500Y-13803165D02*
G75*
G02*
X10243500Y-13803165I-25000J0D01*
G01*
X10243500Y-13803165D02*
G75*
G02*
X10293500Y-13803165I25000J0D01*
G01*
X10326083Y-6105417D02*
G75*
G02*
X10276083Y-6105417I-25000J0D01*
G01*
X10276083Y-6105417D02*
G75*
G02*
X10326083Y-6105417I25000J0D01*
G01*
X10326083Y-6370582D02*
G75*
G02*
X10276083Y-6370582I-25000J0D01*
G01*
X10276083Y-6370582D02*
G75*
G02*
X10326083Y-6370582I25000J0D01*
G01*
X10348418Y-13670582D02*
G75*
G02*
X10298418Y-13670582I-25000J0D01*
G01*
X10298418Y-13670582D02*
G75*
G02*
X10348418Y-13670582I25000J0D01*
G01*
X10381000Y-6238000D02*
G75*
G02*
X10331000Y-6238000I-25000J0D01*
G01*
X10331000Y-6238000D02*
G75*
G02*
X10381000Y-6238000I25000J0D01*
G01*
X19418500Y-6238000D02*
G75*
G02*
X19368500Y-6238000I-25000J0D01*
G01*
X19368500Y-6238000D02*
G75*
G02*
X19418500Y-6238000I25000J0D01*
G01*
X19438583Y-13670582D02*
G75*
G02*
X19388583Y-13670582I-25000J0D01*
G01*
X19388583Y-13670582D02*
G75*
G02*
X19438583Y-13670582I25000J0D01*
G01*
X19473418Y-6105417D02*
G75*
G02*
X19423418Y-6105417I-25000J0D01*
G01*
X19423418Y-6105417D02*
G75*
G02*
X19473418Y-6105417I25000J0D01*
G01*
X19473418Y-6370582D02*
G75*
G02*
X19423418Y-6370582I-25000J0D01*
G01*
X19423418Y-6370582D02*
G75*
G02*
X19473418Y-6370582I25000J0D01*
G01*
X19493500Y-13538000D02*
G75*
G02*
X19443500Y-13538000I-25000J0D01*
G01*
X19443500Y-13538000D02*
G75*
G02*
X19493500Y-13538000I25000J0D01*
G01*
X19493500Y-13803165D02*
G75*
G02*
X19443500Y-13803165I-25000J0D01*
G01*
X19443500Y-13803165D02*
G75*
G02*
X19493500Y-13803165I25000J0D01*
G01*
X19606000Y-6050500D02*
G75*
G02*
X19556000Y-6050500I-25000J0D01*
G01*
X19556000Y-6050500D02*
G75*
G02*
X19606000Y-6050500I25000J0D01*
G01*
X19606000Y-6425500D02*
G75*
G02*
X19556000Y-6425500I-25000J0D01*
G01*
X19556000Y-6425500D02*
G75*
G02*
X19606000Y-6425500I25000J0D01*
G01*
X19626083Y-13483082D02*
G75*
G02*
X19576083Y-13483082I-25000J0D01*
G01*
X19576083Y-13483082D02*
G75*
G02*
X19626083Y-13483082I25000J0D01*
G01*
X19626083Y-13858082D02*
G75*
G02*
X19576083Y-13858082I-25000J0D01*
G01*
X19576083Y-13858082D02*
G75*
G02*
X19626083Y-13858082I25000J0D01*
G01*
X19738583Y-6105417D02*
G75*
G02*
X19688583Y-6105417I-25000J0D01*
G01*
X19688583Y-6105417D02*
G75*
G02*
X19738583Y-6105417I25000J0D01*
G01*
X19738583Y-6370582D02*
G75*
G02*
X19688583Y-6370582I-25000J0D01*
G01*
X19688583Y-6370582D02*
G75*
G02*
X19738583Y-6370582I25000J0D01*
G01*
X19758665Y-13538000D02*
G75*
G02*
X19708665Y-13538000I-25000J0D01*
G01*
X19708665Y-13538000D02*
G75*
G02*
X19758665Y-13538000I25000J0D01*
G01*
X19758665Y-13803165D02*
G75*
G02*
X19708665Y-13803165I-25000J0D01*
G01*
X19708665Y-13803165D02*
G75*
G02*
X19758665Y-13803165I25000J0D01*
G01*
X19793500Y-6238000D02*
G75*
G02*
X19743500Y-6238000I-25000J0D01*
G01*
X19743500Y-6238000D02*
G75*
G02*
X19793500Y-6238000I25000J0D01*
G01*
X19813583Y-13670582D02*
G75*
G02*
X19763583Y-13670582I-25000J0D01*
G01*
X19763583Y-13670582D02*
G75*
G02*
X19813583Y-13670582I25000J0D01*
G01*
X14538000Y-8382000D02*
X14538000Y-8462000D01*
X14498000Y-8422000D02*
X14578000Y-8422000D01*
X14538000Y-8636000D02*
X14538000Y-8716000D01*
X14498000Y-8676000D02*
X14578000Y-8676000D01*
X14538000Y-8890000D02*
X14538000Y-8970000D01*
X14498000Y-8930000D02*
X14578000Y-8930000D01*
X14538000Y-9144000D02*
X14538000Y-9224000D01*
X14498000Y-9184000D02*
X14578000Y-9184000D01*
X14538000Y-9398000D02*
X14538000Y-9478000D01*
X14498000Y-9438000D02*
X14578000Y-9438000D01*
X14538000Y-9652000D02*
X14538000Y-9732000D01*
X14498000Y-9692000D02*
X14578000Y-9692000D01*
X14538000Y-9906000D02*
X14538000Y-9986000D01*
X14498000Y-9946000D02*
X14578000Y-9946000D01*
X14538000Y-10160000D02*
X14538000Y-10240000D01*
X14498000Y-10200000D02*
X14578000Y-10200000D01*
X14538000Y-10414000D02*
X14538000Y-10494000D01*
X14498000Y-10454000D02*
X14578000Y-10454000D01*
X15300000Y-8382000D02*
X15300000Y-8462000D01*
X15260000Y-8422000D02*
X15340000Y-8422000D01*
X15300000Y-8636000D02*
X15300000Y-8716000D01*
X15260000Y-8676000D02*
X15340000Y-8676000D01*
X15300000Y-8890000D02*
X15300000Y-8970000D01*
X15260000Y-8930000D02*
X15340000Y-8930000D01*
X15300000Y-9144000D02*
X15300000Y-9224000D01*
X15260000Y-9184000D02*
X15340000Y-9184000D01*
X15300000Y-9398000D02*
X15300000Y-9478000D01*
X15260000Y-9438000D02*
X15340000Y-9438000D01*
X15300000Y-9652000D02*
X15300000Y-9732000D01*
X15260000Y-9692000D02*
X15340000Y-9692000D01*
X15300000Y-9906000D02*
X15300000Y-9986000D01*
X15260000Y-9946000D02*
X15340000Y-9946000D01*
X15300000Y-10160000D02*
X15300000Y-10240000D01*
X15260000Y-10200000D02*
X15340000Y-10200000D01*
X15300000Y-10414000D02*
X15300000Y-10494000D01*
X15260000Y-10454000D02*
X15340000Y-10454000D01*
X14953856Y-6207356D02*
X14953856Y-6136644D01*
X14883144Y-6136644D01*
X14883144Y-6207356D01*
X14953856Y-6207356D01*
X14953856Y-6461356D02*
X14953856Y-6390644D01*
X14883144Y-6390644D01*
X14883144Y-6461356D01*
X14953856Y-6461356D01*
X14953856Y-6715356D02*
X14953856Y-6644644D01*
X14883144Y-6644644D01*
X14883144Y-6715356D01*
X14953856Y-6715356D01*
X14953856Y-6969356D02*
X14953856Y-6898644D01*
X14883144Y-6898644D01*
X14883144Y-6969356D01*
X14953856Y-6969356D01*
X14953856Y-7223356D02*
X14953856Y-7152644D01*
X14883144Y-7152644D01*
X14883144Y-7223356D01*
X14953856Y-7223356D01*
X14953856Y-7477356D02*
X14953856Y-7406644D01*
X14883144Y-7406644D01*
X14883144Y-7477356D01*
X14953856Y-7477356D01*
X14953856Y-7731356D02*
X14953856Y-7660644D01*
X14883144Y-7660644D01*
X14883144Y-7731356D01*
X14953856Y-7731356D01*
X14953856Y-7985356D02*
X14953856Y-7914644D01*
X14883144Y-7914644D01*
X14883144Y-7985356D01*
X14953856Y-7985356D01*
D13*
X12111250Y-12403000D02*
X12176250Y-12338000D01*
X12111250Y-12273000D01*
X12046250Y-12338000D01*
X12111250Y-12403000D01*
X12111250Y-13603000D02*
X12176250Y-13538000D01*
X12111250Y-13473000D01*
X12046250Y-13538000D01*
X12111250Y-13603000D01*
X12161250Y-6353000D02*
X12226250Y-6288000D01*
X12161250Y-6223000D01*
X12096250Y-6288000D01*
X12161250Y-6353000D01*
X12161250Y-7553000D02*
X12226250Y-7488000D01*
X12161250Y-7423000D01*
X12096250Y-7488000D01*
X12161250Y-7553000D01*
X12161250Y-8353000D02*
X12226250Y-8288000D01*
X12161250Y-8223000D01*
X12096250Y-8288000D01*
X12161250Y-8353000D01*
X12161250Y-9553000D02*
X12226250Y-9488000D01*
X12161250Y-9423000D01*
X12096250Y-9488000D01*
X12161250Y-9553000D01*
X12161250Y-10503000D02*
X12226250Y-10438000D01*
X12161250Y-10373000D01*
X12096250Y-10438000D01*
X12161250Y-10503000D01*
X12161250Y-11703000D02*
X12226250Y-11638000D01*
X12161250Y-11573000D01*
X12096250Y-11638000D01*
X12161250Y-11703000D01*
X13331250Y-12403000D02*
X13396250Y-12338000D01*
X13331250Y-12273000D01*
X13266250Y-12338000D01*
X13331250Y-12403000D01*
X13331250Y-13603000D02*
X13396250Y-13538000D01*
X13331250Y-13473000D01*
X13266250Y-13538000D01*
X13331250Y-13603000D01*
X13381250Y-6353000D02*
X13446250Y-6288000D01*
X13381250Y-6223000D01*
X13316250Y-6288000D01*
X13381250Y-6353000D01*
X13381250Y-7553000D02*
X13446250Y-7488000D01*
X13381250Y-7423000D01*
X13316250Y-7488000D01*
X13381250Y-7553000D01*
X13381250Y-8353000D02*
X13446250Y-8288000D01*
X13381250Y-8223000D01*
X13316250Y-8288000D01*
X13381250Y-8353000D01*
X13381250Y-9553000D02*
X13446250Y-9488000D01*
X13381250Y-9423000D01*
X13316250Y-9488000D01*
X13381250Y-9553000D01*
X13381250Y-10503000D02*
X13446250Y-10438000D01*
X13381250Y-10373000D01*
X13316250Y-10438000D01*
X13381250Y-10503000D01*
X13381250Y-11703000D02*
X13446250Y-11638000D01*
X13381250Y-11573000D01*
X13316250Y-11638000D01*
X13381250Y-11703000D01*
X13531250Y-13003000D02*
X13596250Y-12938000D01*
X13531250Y-12873000D01*
X13466250Y-12938000D01*
X13531250Y-13003000D01*
X13581250Y-6953000D02*
X13646250Y-6888000D01*
X13581250Y-6823000D01*
X13516250Y-6888000D01*
X13581250Y-6953000D01*
X13581250Y-8953000D02*
X13646250Y-8888000D01*
X13581250Y-8823000D01*
X13516250Y-8888000D01*
X13581250Y-8953000D01*
X13581250Y-11103000D02*
X13646250Y-11038000D01*
X13581250Y-10973000D01*
X13516250Y-11038000D01*
X13581250Y-11103000D01*
X16255750Y-6953000D02*
X16320750Y-6888000D01*
X16255750Y-6823000D01*
X16190750Y-6888000D01*
X16255750Y-6953000D01*
X16255750Y-8953000D02*
X16320750Y-8888000D01*
X16255750Y-8823000D01*
X16190750Y-8888000D01*
X16255750Y-8953000D01*
X16255750Y-11103000D02*
X16320750Y-11038000D01*
X16255750Y-10973000D01*
X16190750Y-11038000D01*
X16255750Y-11103000D01*
X16255750Y-13003000D02*
X16320750Y-12938000D01*
X16255750Y-12873000D01*
X16190750Y-12938000D01*
X16255750Y-13003000D01*
X16455750Y-6353000D02*
X16520750Y-6288000D01*
X16455750Y-6223000D01*
X16390750Y-6288000D01*
X16455750Y-6353000D01*
X16455750Y-7553000D02*
X16520750Y-7488000D01*
X16455750Y-7423000D01*
X16390750Y-7488000D01*
X16455750Y-7553000D01*
X16455750Y-8353000D02*
X16520750Y-8288000D01*
X16455750Y-8223000D01*
X16390750Y-8288000D01*
X16455750Y-8353000D01*
X16455750Y-9553000D02*
X16520750Y-9488000D01*
X16455750Y-9423000D01*
X16390750Y-9488000D01*
X16455750Y-9553000D01*
X16455750Y-10503000D02*
X16520750Y-10438000D01*
X16455750Y-10373000D01*
X16390750Y-10438000D01*
X16455750Y-10503000D01*
X16455750Y-11703000D02*
X16520750Y-11638000D01*
X16455750Y-11573000D01*
X16390750Y-11638000D01*
X16455750Y-11703000D01*
X16455750Y-12403000D02*
X16520750Y-12338000D01*
X16455750Y-12273000D01*
X16390750Y-12338000D01*
X16455750Y-12403000D01*
X16455750Y-13603000D02*
X16520750Y-13538000D01*
X16455750Y-13473000D01*
X16390750Y-13538000D01*
X16455750Y-13603000D01*
X17675750Y-6353000D02*
X17740750Y-6288000D01*
X17675750Y-6223000D01*
X17610750Y-6288000D01*
X17675750Y-6353000D01*
X17675750Y-7553000D02*
X17740750Y-7488000D01*
X17675750Y-7423000D01*
X17610750Y-7488000D01*
X17675750Y-7553000D01*
X17675750Y-8353000D02*
X17740750Y-8288000D01*
X17675750Y-8223000D01*
X17610750Y-8288000D01*
X17675750Y-8353000D01*
X17675750Y-9553000D02*
X17740750Y-9488000D01*
X17675750Y-9423000D01*
X17610750Y-9488000D01*
X17675750Y-9553000D01*
X17675750Y-10503000D02*
X17740750Y-10438000D01*
X17675750Y-10373000D01*
X17610750Y-10438000D01*
X17675750Y-10503000D01*
X17675750Y-11703000D02*
X17740750Y-11638000D01*
X17675750Y-11573000D01*
X17610750Y-11638000D01*
X17675750Y-11703000D01*
X17675750Y-12403000D02*
X17740750Y-12338000D01*
X17675750Y-12273000D01*
X17610750Y-12338000D01*
X17675750Y-12403000D01*
X17675750Y-13603000D02*
X17740750Y-13538000D01*
X17675750Y-13473000D01*
X17610750Y-13538000D01*
X17675750Y-13603000D01*
D14*
X10883500Y-10453000D02*
X11053500Y-10623000D01*
X11053500Y-10453000D02*
X10883500Y-10623000D01*
X11053500Y-10538000D02*
G75*
G02*
X10883500Y-10538000I-85000J0D01*
G01*
X10883500Y-10538000D02*
G75*
G02*
X11053500Y-10538000I85000J0D01*
G01*
X10883500Y-10953000D02*
X11053500Y-11123000D01*
X11053500Y-10953000D02*
X10883500Y-11123000D01*
X11053500Y-11038000D02*
G75*
G02*
X10883500Y-11038000I-85000J0D01*
G01*
X10883500Y-11038000D02*
G75*
G02*
X11053500Y-11038000I85000J0D01*
G01*
X10883500Y-11453000D02*
X11053500Y-11623000D01*
X11053500Y-11453000D02*
X10883500Y-11623000D01*
X11053500Y-11538000D02*
G75*
G02*
X10883500Y-11538000I-85000J0D01*
G01*
X10883500Y-11538000D02*
G75*
G02*
X11053500Y-11538000I85000J0D01*
G01*
X10883500Y-12353000D02*
X11053500Y-12523000D01*
X11053500Y-12353000D02*
X10883500Y-12523000D01*
X11053500Y-12438000D02*
G75*
G02*
X10883500Y-12438000I-85000J0D01*
G01*
X10883500Y-12438000D02*
G75*
G02*
X11053500Y-12438000I85000J0D01*
G01*
X10883500Y-12853000D02*
X11053500Y-13023000D01*
X11053500Y-12853000D02*
X10883500Y-13023000D01*
X11053500Y-12938000D02*
G75*
G02*
X10883500Y-12938000I-85000J0D01*
G01*
X10883500Y-12938000D02*
G75*
G02*
X11053500Y-12938000I85000J0D01*
G01*
X10883500Y-13353000D02*
X11053500Y-13523000D01*
X11053500Y-13353000D02*
X10883500Y-13523000D01*
X11053500Y-13438000D02*
G75*
G02*
X10883500Y-13438000I-85000J0D01*
G01*
X10883500Y-13438000D02*
G75*
G02*
X11053500Y-13438000I85000J0D01*
G01*
X10933500Y-6325250D02*
X11103500Y-6495250D01*
X11103500Y-6325250D02*
X10933500Y-6495250D01*
X11103500Y-6410250D02*
G75*
G02*
X10933500Y-6410250I-85000J0D01*
G01*
X10933500Y-6410250D02*
G75*
G02*
X11103500Y-6410250I85000J0D01*
G01*
X10933500Y-6825250D02*
X11103500Y-6995250D01*
X11103500Y-6825250D02*
X10933500Y-6995250D01*
X11103500Y-6910250D02*
G75*
G02*
X10933500Y-6910250I-85000J0D01*
G01*
X10933500Y-6910250D02*
G75*
G02*
X11103500Y-6910250I85000J0D01*
G01*
X10933500Y-7325250D02*
X11103500Y-7495250D01*
X11103500Y-7325250D02*
X10933500Y-7495250D01*
X11103500Y-7410250D02*
G75*
G02*
X10933500Y-7410250I-85000J0D01*
G01*
X10933500Y-7410250D02*
G75*
G02*
X11103500Y-7410250I85000J0D01*
G01*
X10933500Y-8303000D02*
X11103500Y-8473000D01*
X11103500Y-8303000D02*
X10933500Y-8473000D01*
X11103500Y-8388000D02*
G75*
G02*
X10933500Y-8388000I-85000J0D01*
G01*
X10933500Y-8388000D02*
G75*
G02*
X11103500Y-8388000I85000J0D01*
G01*
X10933500Y-8803000D02*
X11103500Y-8973000D01*
X11103500Y-8803000D02*
X10933500Y-8973000D01*
X11103500Y-8888000D02*
G75*
G02*
X10933500Y-8888000I-85000J0D01*
G01*
X10933500Y-8888000D02*
G75*
G02*
X11103500Y-8888000I85000J0D01*
G01*
X10933500Y-9303000D02*
X11103500Y-9473000D01*
X11103500Y-9303000D02*
X10933500Y-9473000D01*
X11103500Y-9388000D02*
G75*
G02*
X10933500Y-9388000I-85000J0D01*
G01*
X10933500Y-9388000D02*
G75*
G02*
X11103500Y-9388000I85000J0D01*
G01*
X14633500Y-13303000D02*
X14803500Y-13473000D01*
X14803500Y-13303000D02*
X14633500Y-13473000D01*
X14803500Y-13388000D02*
G75*
G02*
X14633500Y-13388000I-85000J0D01*
G01*
X14633500Y-13388000D02*
G75*
G02*
X14803500Y-13388000I85000J0D01*
G01*
X15133500Y-13303000D02*
X15303500Y-13473000D01*
X15303500Y-13303000D02*
X15133500Y-13473000D01*
X15303500Y-13388000D02*
G75*
G02*
X15133500Y-13388000I-85000J0D01*
G01*
X15133500Y-13388000D02*
G75*
G02*
X15303500Y-13388000I85000J0D01*
G01*
X18678500Y-8303000D02*
X18848500Y-8473000D01*
X18848500Y-8303000D02*
X18678500Y-8473000D01*
X18848500Y-8388000D02*
G75*
G02*
X18678500Y-8388000I-85000J0D01*
G01*
X18678500Y-8388000D02*
G75*
G02*
X18848500Y-8388000I85000J0D01*
G01*
X18678500Y-8803000D02*
X18848500Y-8973000D01*
X18848500Y-8803000D02*
X18678500Y-8973000D01*
X18848500Y-8888000D02*
G75*
G02*
X18678500Y-8888000I-85000J0D01*
G01*
X18678500Y-8888000D02*
G75*
G02*
X18848500Y-8888000I85000J0D01*
G01*
X18678500Y-9303000D02*
X18848500Y-9473000D01*
X18848500Y-9303000D02*
X18678500Y-9473000D01*
X18848500Y-9388000D02*
G75*
G02*
X18678500Y-9388000I-85000J0D01*
G01*
X18678500Y-9388000D02*
G75*
G02*
X18848500Y-9388000I85000J0D01*
G01*
X18678500Y-10453000D02*
X18848500Y-10623000D01*
X18848500Y-10453000D02*
X18678500Y-10623000D01*
X18848500Y-10538000D02*
G75*
G02*
X18678500Y-10538000I-85000J0D01*
G01*
X18678500Y-10538000D02*
G75*
G02*
X18848500Y-10538000I85000J0D01*
G01*
X18678500Y-10953000D02*
X18848500Y-11123000D01*
X18848500Y-10953000D02*
X18678500Y-11123000D01*
X18848500Y-11038000D02*
G75*
G02*
X18678500Y-11038000I-85000J0D01*
G01*
X18678500Y-11038000D02*
G75*
G02*
X18848500Y-11038000I85000J0D01*
G01*
X18678500Y-11453000D02*
X18848500Y-11623000D01*
X18848500Y-11453000D02*
X18678500Y-11623000D01*
X18848500Y-11538000D02*
G75*
G02*
X18678500Y-11538000I-85000J0D01*
G01*
X18678500Y-11538000D02*
G75*
G02*
X18848500Y-11538000I85000J0D01*
G01*
X18683500Y-6303000D02*
X18853500Y-6473000D01*
X18853500Y-6303000D02*
X18683500Y-6473000D01*
X18853500Y-6388000D02*
G75*
G02*
X18683500Y-6388000I-85000J0D01*
G01*
X18683500Y-6388000D02*
G75*
G02*
X18853500Y-6388000I85000J0D01*
G01*
X18683500Y-6803000D02*
X18853500Y-6973000D01*
X18853500Y-6803000D02*
X18683500Y-6973000D01*
X18853500Y-6888000D02*
G75*
G02*
X18683500Y-6888000I-85000J0D01*
G01*
X18683500Y-6888000D02*
G75*
G02*
X18853500Y-6888000I85000J0D01*
G01*
X18683500Y-7303000D02*
X18853500Y-7473000D01*
X18853500Y-7303000D02*
X18683500Y-7473000D01*
X18853500Y-7388000D02*
G75*
G02*
X18683500Y-7388000I-85000J0D01*
G01*
X18683500Y-7388000D02*
G75*
G02*
X18853500Y-7388000I85000J0D01*
G01*
X18683500Y-12353000D02*
X18853500Y-12523000D01*
X18853500Y-12353000D02*
X18683500Y-12523000D01*
X18853500Y-12438000D02*
G75*
G02*
X18683500Y-12438000I-85000J0D01*
G01*
X18683500Y-12438000D02*
G75*
G02*
X18853500Y-12438000I85000J0D01*
G01*
X18683500Y-12853000D02*
X18853500Y-13023000D01*
X18853500Y-12853000D02*
X18683500Y-13023000D01*
X18853500Y-12938000D02*
G75*
G02*
X18683500Y-12938000I-85000J0D01*
G01*
X18683500Y-12938000D02*
G75*
G02*
X18853500Y-12938000I85000J0D01*
G01*
X18683500Y-13353000D02*
X18853500Y-13523000D01*
X18853500Y-13353000D02*
X18683500Y-13523000D01*
X18853500Y-13438000D02*
G75*
G02*
X18683500Y-13438000I-85000J0D01*
G01*
X18683500Y-13438000D02*
G75*
G02*
X18853500Y-13438000I85000J0D01*
G01*
D15*
X10010918Y-13545582D02*
X10260918Y-13795582D01*
X10260918Y-13545582D02*
X10010918Y-13795582D01*
X10135918Y-13545582D02*
X10135918Y-13795582D01*
X10010918Y-13670582D02*
X10260918Y-13670582D01*
X10043500Y-6113000D02*
X10293500Y-6363000D01*
X10293500Y-6113000D02*
X10043500Y-6363000D01*
X10168500Y-6113000D02*
X10168500Y-6363000D01*
X10043500Y-6238000D02*
X10293500Y-6238000D01*
X19456000Y-6113000D02*
X19706000Y-6363000D01*
X19706000Y-6113000D02*
X19456000Y-6363000D01*
X19581000Y-6113000D02*
X19581000Y-6363000D01*
X19456000Y-6238000D02*
X19706000Y-6238000D01*
X19476083Y-13545582D02*
X19726083Y-13795582D01*
X19726083Y-13545582D02*
X19476083Y-13795582D01*
X19601083Y-13545582D02*
X19601083Y-13795582D01*
X19476083Y-13670582D02*
X19726083Y-13670582D01*
D11*
X10126777Y-14251984D02*
X10126777Y-14051984D01*
X10126777Y-14051984D02*
X10174396Y-14051984D01*
X10174396Y-14051984D02*
X10202967Y-14061508D01*
X10202967Y-14061508D02*
X10222015Y-14080555D01*
X10222015Y-14080555D02*
X10231539Y-14099603D01*
X10231539Y-14099603D02*
X10241063Y-14137698D01*
X10241063Y-14137698D02*
X10241063Y-14166269D01*
X10241063Y-14166269D02*
X10231539Y-14204365D01*
X10231539Y-14204365D02*
X10222015Y-14223412D01*
X10222015Y-14223412D02*
X10202967Y-14242460D01*
X10202967Y-14242460D02*
X10174396Y-14251984D01*
X10174396Y-14251984D02*
X10126777Y-14251984D01*
X10326777Y-14251984D02*
X10326777Y-14118650D01*
X10326777Y-14156746D02*
X10336301Y-14137698D01*
X10336301Y-14137698D02*
X10345824Y-14128174D01*
X10345824Y-14128174D02*
X10364872Y-14118650D01*
X10364872Y-14118650D02*
X10383920Y-14118650D01*
X10450586Y-14251984D02*
X10450586Y-14118650D01*
X10450586Y-14051984D02*
X10441063Y-14061508D01*
X10441063Y-14061508D02*
X10450586Y-14071031D01*
X10450586Y-14071031D02*
X10460110Y-14061508D01*
X10460110Y-14061508D02*
X10450586Y-14051984D01*
X10450586Y-14051984D02*
X10450586Y-14071031D01*
X10574396Y-14251984D02*
X10555348Y-14242460D01*
X10555348Y-14242460D02*
X10545824Y-14223412D01*
X10545824Y-14223412D02*
X10545824Y-14051984D01*
X10679158Y-14251984D02*
X10660110Y-14242460D01*
X10660110Y-14242460D02*
X10650586Y-14223412D01*
X10650586Y-14223412D02*
X10650586Y-14051984D01*
X10907729Y-14251984D02*
X10907729Y-14051984D01*
X10907729Y-14051984D02*
X10974396Y-14194841D01*
X10974396Y-14194841D02*
X11041063Y-14051984D01*
X11041063Y-14051984D02*
X11041063Y-14251984D01*
X11222015Y-14251984D02*
X11222015Y-14147222D01*
X11222015Y-14147222D02*
X11212491Y-14128174D01*
X11212491Y-14128174D02*
X11193443Y-14118650D01*
X11193443Y-14118650D02*
X11155348Y-14118650D01*
X11155348Y-14118650D02*
X11136301Y-14128174D01*
X11222015Y-14242460D02*
X11202967Y-14251984D01*
X11202967Y-14251984D02*
X11155348Y-14251984D01*
X11155348Y-14251984D02*
X11136301Y-14242460D01*
X11136301Y-14242460D02*
X11126777Y-14223412D01*
X11126777Y-14223412D02*
X11126777Y-14204365D01*
X11126777Y-14204365D02*
X11136301Y-14185317D01*
X11136301Y-14185317D02*
X11155348Y-14175793D01*
X11155348Y-14175793D02*
X11202967Y-14175793D01*
X11202967Y-14175793D02*
X11222015Y-14166269D01*
X11317253Y-14118650D02*
X11317253Y-14318650D01*
X11317253Y-14128174D02*
X11336301Y-14118650D01*
X11336301Y-14118650D02*
X11374396Y-14118650D01*
X11374396Y-14118650D02*
X11393443Y-14128174D01*
X11393443Y-14128174D02*
X11402967Y-14137698D01*
X11402967Y-14137698D02*
X11412491Y-14156746D01*
X11412491Y-14156746D02*
X11412491Y-14213888D01*
X11412491Y-14213888D02*
X11402967Y-14232936D01*
X11402967Y-14232936D02*
X11393443Y-14242460D01*
X11393443Y-14242460D02*
X11374396Y-14251984D01*
X11374396Y-14251984D02*
X11336301Y-14251984D01*
X11336301Y-14251984D02*
X11317253Y-14242460D01*
X11498205Y-14232936D02*
X11507729Y-14242460D01*
X11507729Y-14242460D02*
X11498205Y-14251984D01*
X11498205Y-14251984D02*
X11488682Y-14242460D01*
X11488682Y-14242460D02*
X11498205Y-14232936D01*
X11498205Y-14232936D02*
X11498205Y-14251984D01*
X11498205Y-14128174D02*
X11507729Y-14137698D01*
X11507729Y-14137698D02*
X11498205Y-14147222D01*
X11498205Y-14147222D02*
X11488682Y-14137698D01*
X11488682Y-14137698D02*
X11498205Y-14128174D01*
X11498205Y-14128174D02*
X11498205Y-14147222D01*
D12*
X9836000Y-14565500D02*
X9866000Y-14595500D01*
X9866000Y-14565500D02*
X9836000Y-14595500D01*
D11*
X10164872Y-14471984D02*
X10183920Y-14471984D01*
X10183920Y-14471984D02*
X10202967Y-14481508D01*
X10202967Y-14481508D02*
X10212491Y-14491031D01*
X10212491Y-14491031D02*
X10222015Y-14510079D01*
X10222015Y-14510079D02*
X10231539Y-14548174D01*
X10231539Y-14548174D02*
X10231539Y-14595793D01*
X10231539Y-14595793D02*
X10222015Y-14633888D01*
X10222015Y-14633888D02*
X10212491Y-14652936D01*
X10212491Y-14652936D02*
X10202967Y-14662460D01*
X10202967Y-14662460D02*
X10183920Y-14671984D01*
X10183920Y-14671984D02*
X10164872Y-14671984D01*
X10164872Y-14671984D02*
X10145824Y-14662460D01*
X10145824Y-14662460D02*
X10136301Y-14652936D01*
X10136301Y-14652936D02*
X10126777Y-14633888D01*
X10126777Y-14633888D02*
X10117253Y-14595793D01*
X10117253Y-14595793D02*
X10117253Y-14548174D01*
X10117253Y-14548174D02*
X10126777Y-14510079D01*
X10126777Y-14510079D02*
X10136301Y-14491031D01*
X10136301Y-14491031D02*
X10145824Y-14481508D01*
X10145824Y-14481508D02*
X10164872Y-14471984D01*
X10317253Y-14652936D02*
X10326777Y-14662460D01*
X10326777Y-14662460D02*
X10317253Y-14671984D01*
X10317253Y-14671984D02*
X10307729Y-14662460D01*
X10307729Y-14662460D02*
X10317253Y-14652936D01*
X10317253Y-14652936D02*
X10317253Y-14671984D01*
X10393444Y-14471984D02*
X10517253Y-14471984D01*
X10517253Y-14471984D02*
X10450586Y-14548174D01*
X10450586Y-14548174D02*
X10479158Y-14548174D01*
X10479158Y-14548174D02*
X10498205Y-14557698D01*
X10498205Y-14557698D02*
X10507729Y-14567222D01*
X10507729Y-14567222D02*
X10517253Y-14586269D01*
X10517253Y-14586269D02*
X10517253Y-14633888D01*
X10517253Y-14633888D02*
X10507729Y-14652936D01*
X10507729Y-14652936D02*
X10498205Y-14662460D01*
X10498205Y-14662460D02*
X10479158Y-14671984D01*
X10479158Y-14671984D02*
X10422015Y-14671984D01*
X10422015Y-14671984D02*
X10402967Y-14662460D01*
X10402967Y-14662460D02*
X10393444Y-14652936D01*
X10641063Y-14471984D02*
X10660110Y-14471984D01*
X10660110Y-14471984D02*
X10679158Y-14481508D01*
X10679158Y-14481508D02*
X10688682Y-14491031D01*
X10688682Y-14491031D02*
X10698205Y-14510079D01*
X10698205Y-14510079D02*
X10707729Y-14548174D01*
X10707729Y-14548174D02*
X10707729Y-14595793D01*
X10707729Y-14595793D02*
X10698205Y-14633888D01*
X10698205Y-14633888D02*
X10688682Y-14652936D01*
X10688682Y-14652936D02*
X10679158Y-14662460D01*
X10679158Y-14662460D02*
X10660110Y-14671984D01*
X10660110Y-14671984D02*
X10641063Y-14671984D01*
X10641063Y-14671984D02*
X10622015Y-14662460D01*
X10622015Y-14662460D02*
X10612491Y-14652936D01*
X10612491Y-14652936D02*
X10602967Y-14633888D01*
X10602967Y-14633888D02*
X10593444Y-14595793D01*
X10593444Y-14595793D02*
X10593444Y-14548174D01*
X10593444Y-14548174D02*
X10602967Y-14510079D01*
X10602967Y-14510079D02*
X10612491Y-14491031D01*
X10612491Y-14491031D02*
X10622015Y-14481508D01*
X10622015Y-14481508D02*
X10641063Y-14471984D01*
X10831539Y-14471984D02*
X10850586Y-14471984D01*
X10850586Y-14471984D02*
X10869634Y-14481508D01*
X10869634Y-14481508D02*
X10879158Y-14491031D01*
X10879158Y-14491031D02*
X10888682Y-14510079D01*
X10888682Y-14510079D02*
X10898205Y-14548174D01*
X10898205Y-14548174D02*
X10898205Y-14595793D01*
X10898205Y-14595793D02*
X10888682Y-14633888D01*
X10888682Y-14633888D02*
X10879158Y-14652936D01*
X10879158Y-14652936D02*
X10869634Y-14662460D01*
X10869634Y-14662460D02*
X10850586Y-14671984D01*
X10850586Y-14671984D02*
X10831539Y-14671984D01*
X10831539Y-14671984D02*
X10812491Y-14662460D01*
X10812491Y-14662460D02*
X10802967Y-14652936D01*
X10802967Y-14652936D02*
X10793444Y-14633888D01*
X10793444Y-14633888D02*
X10783920Y-14595793D01*
X10783920Y-14595793D02*
X10783920Y-14548174D01*
X10783920Y-14548174D02*
X10793444Y-14510079D01*
X10793444Y-14510079D02*
X10802967Y-14491031D01*
X10802967Y-14491031D02*
X10812491Y-14481508D01*
X10812491Y-14481508D02*
X10831539Y-14471984D01*
X10983920Y-14671984D02*
X10983920Y-14538650D01*
X10983920Y-14557698D02*
X10993444Y-14548174D01*
X10993444Y-14548174D02*
X11012491Y-14538650D01*
X11012491Y-14538650D02*
X11041063Y-14538650D01*
X11041063Y-14538650D02*
X11060110Y-14548174D01*
X11060110Y-14548174D02*
X11069634Y-14567222D01*
X11069634Y-14567222D02*
X11069634Y-14671984D01*
X11069634Y-14567222D02*
X11079158Y-14548174D01*
X11079158Y-14548174D02*
X11098205Y-14538650D01*
X11098205Y-14538650D02*
X11126777Y-14538650D01*
X11126777Y-14538650D02*
X11145825Y-14548174D01*
X11145825Y-14548174D02*
X11155348Y-14567222D01*
X11155348Y-14567222D02*
X11155348Y-14671984D01*
X11250586Y-14671984D02*
X11250586Y-14538650D01*
X11250586Y-14557698D02*
X11260110Y-14548174D01*
X11260110Y-14548174D02*
X11279158Y-14538650D01*
X11279158Y-14538650D02*
X11307729Y-14538650D01*
X11307729Y-14538650D02*
X11326777Y-14548174D01*
X11326777Y-14548174D02*
X11336301Y-14567222D01*
X11336301Y-14567222D02*
X11336301Y-14671984D01*
X11336301Y-14567222D02*
X11345824Y-14548174D01*
X11345824Y-14548174D02*
X11364872Y-14538650D01*
X11364872Y-14538650D02*
X11393443Y-14538650D01*
X11393443Y-14538650D02*
X11412491Y-14548174D01*
X11412491Y-14548174D02*
X11422015Y-14567222D01*
X11422015Y-14567222D02*
X11422015Y-14671984D01*
X11812491Y-14462460D02*
X11641063Y-14719603D01*
X12069634Y-14471984D02*
X12088682Y-14471984D01*
X12088682Y-14471984D02*
X12107729Y-14481508D01*
X12107729Y-14481508D02*
X12117253Y-14491031D01*
X12117253Y-14491031D02*
X12126777Y-14510079D01*
X12126777Y-14510079D02*
X12136301Y-14548174D01*
X12136301Y-14548174D02*
X12136301Y-14595793D01*
X12136301Y-14595793D02*
X12126777Y-14633888D01*
X12126777Y-14633888D02*
X12117253Y-14652936D01*
X12117253Y-14652936D02*
X12107729Y-14662460D01*
X12107729Y-14662460D02*
X12088682Y-14671984D01*
X12088682Y-14671984D02*
X12069634Y-14671984D01*
X12069634Y-14671984D02*
X12050586Y-14662460D01*
X12050586Y-14662460D02*
X12041063Y-14652936D01*
X12041063Y-14652936D02*
X12031539Y-14633888D01*
X12031539Y-14633888D02*
X12022015Y-14595793D01*
X12022015Y-14595793D02*
X12022015Y-14548174D01*
X12022015Y-14548174D02*
X12031539Y-14510079D01*
X12031539Y-14510079D02*
X12041063Y-14491031D01*
X12041063Y-14491031D02*
X12050586Y-14481508D01*
X12050586Y-14481508D02*
X12069634Y-14471984D01*
X12222015Y-14652936D02*
X12231539Y-14662460D01*
X12231539Y-14662460D02*
X12222015Y-14671984D01*
X12222015Y-14671984D02*
X12212491Y-14662460D01*
X12212491Y-14662460D02*
X12222015Y-14652936D01*
X12222015Y-14652936D02*
X12222015Y-14671984D01*
X12355348Y-14471984D02*
X12374396Y-14471984D01*
X12374396Y-14471984D02*
X12393444Y-14481508D01*
X12393444Y-14481508D02*
X12402967Y-14491031D01*
X12402967Y-14491031D02*
X12412491Y-14510079D01*
X12412491Y-14510079D02*
X12422015Y-14548174D01*
X12422015Y-14548174D02*
X12422015Y-14595793D01*
X12422015Y-14595793D02*
X12412491Y-14633888D01*
X12412491Y-14633888D02*
X12402967Y-14652936D01*
X12402967Y-14652936D02*
X12393444Y-14662460D01*
X12393444Y-14662460D02*
X12374396Y-14671984D01*
X12374396Y-14671984D02*
X12355348Y-14671984D01*
X12355348Y-14671984D02*
X12336301Y-14662460D01*
X12336301Y-14662460D02*
X12326777Y-14652936D01*
X12326777Y-14652936D02*
X12317253Y-14633888D01*
X12317253Y-14633888D02*
X12307729Y-14595793D01*
X12307729Y-14595793D02*
X12307729Y-14548174D01*
X12307729Y-14548174D02*
X12317253Y-14510079D01*
X12317253Y-14510079D02*
X12326777Y-14491031D01*
X12326777Y-14491031D02*
X12336301Y-14481508D01*
X12336301Y-14481508D02*
X12355348Y-14471984D01*
X12612491Y-14671984D02*
X12498206Y-14671984D01*
X12555348Y-14671984D02*
X12555348Y-14471984D01*
X12555348Y-14471984D02*
X12536301Y-14500555D01*
X12536301Y-14500555D02*
X12517253Y-14519603D01*
X12517253Y-14519603D02*
X12498206Y-14529127D01*
X12802967Y-14671984D02*
X12688682Y-14671984D01*
X12745825Y-14671984D02*
X12745825Y-14471984D01*
X12745825Y-14471984D02*
X12726777Y-14500555D01*
X12726777Y-14500555D02*
X12707729Y-14519603D01*
X12707729Y-14519603D02*
X12688682Y-14529127D01*
X12917253Y-14557698D02*
X12898206Y-14548174D01*
X12898206Y-14548174D02*
X12888682Y-14538650D01*
X12888682Y-14538650D02*
X12879158Y-14519603D01*
X12879158Y-14519603D02*
X12879158Y-14510079D01*
X12879158Y-14510079D02*
X12888682Y-14491031D01*
X12888682Y-14491031D02*
X12898206Y-14481508D01*
X12898206Y-14481508D02*
X12917253Y-14471984D01*
X12917253Y-14471984D02*
X12955348Y-14471984D01*
X12955348Y-14471984D02*
X12974396Y-14481508D01*
X12974396Y-14481508D02*
X12983920Y-14491031D01*
X12983920Y-14491031D02*
X12993444Y-14510079D01*
X12993444Y-14510079D02*
X12993444Y-14519603D01*
X12993444Y-14519603D02*
X12983920Y-14538650D01*
X12983920Y-14538650D02*
X12974396Y-14548174D01*
X12974396Y-14548174D02*
X12955348Y-14557698D01*
X12955348Y-14557698D02*
X12917253Y-14557698D01*
X12917253Y-14557698D02*
X12898206Y-14567222D01*
X12898206Y-14567222D02*
X12888682Y-14576746D01*
X12888682Y-14576746D02*
X12879158Y-14595793D01*
X12879158Y-14595793D02*
X12879158Y-14633888D01*
X12879158Y-14633888D02*
X12888682Y-14652936D01*
X12888682Y-14652936D02*
X12898206Y-14662460D01*
X12898206Y-14662460D02*
X12917253Y-14671984D01*
X12917253Y-14671984D02*
X12955348Y-14671984D01*
X12955348Y-14671984D02*
X12974396Y-14662460D01*
X12974396Y-14662460D02*
X12983920Y-14652936D01*
X12983920Y-14652936D02*
X12993444Y-14633888D01*
X12993444Y-14633888D02*
X12993444Y-14595793D01*
X12993444Y-14595793D02*
X12983920Y-14576746D01*
X12983920Y-14576746D02*
X12974396Y-14567222D01*
X12974396Y-14567222D02*
X12955348Y-14557698D01*
X13069634Y-14471984D02*
X13069634Y-14510079D01*
X13145825Y-14471984D02*
X13145825Y-14510079D01*
X13441063Y-14748174D02*
X13431539Y-14738650D01*
X13431539Y-14738650D02*
X13412491Y-14710079D01*
X13412491Y-14710079D02*
X13402968Y-14691031D01*
X13402968Y-14691031D02*
X13393444Y-14662460D01*
X13393444Y-14662460D02*
X13383920Y-14614841D01*
X13383920Y-14614841D02*
X13383920Y-14576746D01*
X13383920Y-14576746D02*
X13393444Y-14529127D01*
X13393444Y-14529127D02*
X13402968Y-14500555D01*
X13402968Y-14500555D02*
X13412491Y-14481508D01*
X13412491Y-14481508D02*
X13431539Y-14452936D01*
X13431539Y-14452936D02*
X13441063Y-14443412D01*
X13612491Y-14471984D02*
X13517253Y-14471984D01*
X13517253Y-14471984D02*
X13507729Y-14567222D01*
X13507729Y-14567222D02*
X13517253Y-14557698D01*
X13517253Y-14557698D02*
X13536301Y-14548174D01*
X13536301Y-14548174D02*
X13583920Y-14548174D01*
X13583920Y-14548174D02*
X13602968Y-14557698D01*
X13602968Y-14557698D02*
X13612491Y-14567222D01*
X13612491Y-14567222D02*
X13622015Y-14586269D01*
X13622015Y-14586269D02*
X13622015Y-14633888D01*
X13622015Y-14633888D02*
X13612491Y-14652936D01*
X13612491Y-14652936D02*
X13602968Y-14662460D01*
X13602968Y-14662460D02*
X13583920Y-14671984D01*
X13583920Y-14671984D02*
X13536301Y-14671984D01*
X13536301Y-14671984D02*
X13517253Y-14662460D01*
X13517253Y-14662460D02*
X13507729Y-14652936D01*
X13736301Y-14557698D02*
X13717253Y-14548174D01*
X13717253Y-14548174D02*
X13707729Y-14538650D01*
X13707729Y-14538650D02*
X13698206Y-14519603D01*
X13698206Y-14519603D02*
X13698206Y-14510079D01*
X13698206Y-14510079D02*
X13707729Y-14491031D01*
X13707729Y-14491031D02*
X13717253Y-14481508D01*
X13717253Y-14481508D02*
X13736301Y-14471984D01*
X13736301Y-14471984D02*
X13774396Y-14471984D01*
X13774396Y-14471984D02*
X13793444Y-14481508D01*
X13793444Y-14481508D02*
X13802968Y-14491031D01*
X13802968Y-14491031D02*
X13812491Y-14510079D01*
X13812491Y-14510079D02*
X13812491Y-14519603D01*
X13812491Y-14519603D02*
X13802968Y-14538650D01*
X13802968Y-14538650D02*
X13793444Y-14548174D01*
X13793444Y-14548174D02*
X13774396Y-14557698D01*
X13774396Y-14557698D02*
X13736301Y-14557698D01*
X13736301Y-14557698D02*
X13717253Y-14567222D01*
X13717253Y-14567222D02*
X13707729Y-14576746D01*
X13707729Y-14576746D02*
X13698206Y-14595793D01*
X13698206Y-14595793D02*
X13698206Y-14633888D01*
X13698206Y-14633888D02*
X13707729Y-14652936D01*
X13707729Y-14652936D02*
X13717253Y-14662460D01*
X13717253Y-14662460D02*
X13736301Y-14671984D01*
X13736301Y-14671984D02*
X13774396Y-14671984D01*
X13774396Y-14671984D02*
X13793444Y-14662460D01*
X13793444Y-14662460D02*
X13802968Y-14652936D01*
X13802968Y-14652936D02*
X13812491Y-14633888D01*
X13812491Y-14633888D02*
X13812491Y-14595793D01*
X13812491Y-14595793D02*
X13802968Y-14576746D01*
X13802968Y-14576746D02*
X13793444Y-14567222D01*
X13793444Y-14567222D02*
X13774396Y-14557698D01*
X14050587Y-14671984D02*
X14050587Y-14471984D01*
X14136301Y-14671984D02*
X14136301Y-14567222D01*
X14136301Y-14567222D02*
X14126777Y-14548174D01*
X14126777Y-14548174D02*
X14107730Y-14538650D01*
X14107730Y-14538650D02*
X14079158Y-14538650D01*
X14079158Y-14538650D02*
X14060110Y-14548174D01*
X14060110Y-14548174D02*
X14050587Y-14557698D01*
X14260110Y-14671984D02*
X14241063Y-14662460D01*
X14241063Y-14662460D02*
X14231539Y-14652936D01*
X14231539Y-14652936D02*
X14222015Y-14633888D01*
X14222015Y-14633888D02*
X14222015Y-14576746D01*
X14222015Y-14576746D02*
X14231539Y-14557698D01*
X14231539Y-14557698D02*
X14241063Y-14548174D01*
X14241063Y-14548174D02*
X14260110Y-14538650D01*
X14260110Y-14538650D02*
X14288682Y-14538650D01*
X14288682Y-14538650D02*
X14307730Y-14548174D01*
X14307730Y-14548174D02*
X14317253Y-14557698D01*
X14317253Y-14557698D02*
X14326777Y-14576746D01*
X14326777Y-14576746D02*
X14326777Y-14633888D01*
X14326777Y-14633888D02*
X14317253Y-14652936D01*
X14317253Y-14652936D02*
X14307730Y-14662460D01*
X14307730Y-14662460D02*
X14288682Y-14671984D01*
X14288682Y-14671984D02*
X14260110Y-14671984D01*
X14441063Y-14671984D02*
X14422015Y-14662460D01*
X14422015Y-14662460D02*
X14412491Y-14643412D01*
X14412491Y-14643412D02*
X14412491Y-14471984D01*
X14593444Y-14662460D02*
X14574396Y-14671984D01*
X14574396Y-14671984D02*
X14536301Y-14671984D01*
X14536301Y-14671984D02*
X14517253Y-14662460D01*
X14517253Y-14662460D02*
X14507730Y-14643412D01*
X14507730Y-14643412D02*
X14507730Y-14567222D01*
X14507730Y-14567222D02*
X14517253Y-14548174D01*
X14517253Y-14548174D02*
X14536301Y-14538650D01*
X14536301Y-14538650D02*
X14574396Y-14538650D01*
X14574396Y-14538650D02*
X14593444Y-14548174D01*
X14593444Y-14548174D02*
X14602968Y-14567222D01*
X14602968Y-14567222D02*
X14602968Y-14586269D01*
X14602968Y-14586269D02*
X14507730Y-14605317D01*
X14679158Y-14662460D02*
X14698206Y-14671984D01*
X14698206Y-14671984D02*
X14736301Y-14671984D01*
X14736301Y-14671984D02*
X14755349Y-14662460D01*
X14755349Y-14662460D02*
X14764872Y-14643412D01*
X14764872Y-14643412D02*
X14764872Y-14633888D01*
X14764872Y-14633888D02*
X14755349Y-14614841D01*
X14755349Y-14614841D02*
X14736301Y-14605317D01*
X14736301Y-14605317D02*
X14707730Y-14605317D01*
X14707730Y-14605317D02*
X14688682Y-14595793D01*
X14688682Y-14595793D02*
X14679158Y-14576746D01*
X14679158Y-14576746D02*
X14679158Y-14567222D01*
X14679158Y-14567222D02*
X14688682Y-14548174D01*
X14688682Y-14548174D02*
X14707730Y-14538650D01*
X14707730Y-14538650D02*
X14736301Y-14538650D01*
X14736301Y-14538650D02*
X14755349Y-14548174D01*
X14831539Y-14748174D02*
X14841063Y-14738650D01*
X14841063Y-14738650D02*
X14860111Y-14710079D01*
X14860111Y-14710079D02*
X14869634Y-14691031D01*
X14869634Y-14691031D02*
X14879158Y-14662460D01*
X14879158Y-14662460D02*
X14888682Y-14614841D01*
X14888682Y-14614841D02*
X14888682Y-14576746D01*
X14888682Y-14576746D02*
X14879158Y-14529127D01*
X14879158Y-14529127D02*
X14869634Y-14500555D01*
X14869634Y-14500555D02*
X14860111Y-14481508D01*
X14860111Y-14481508D02*
X14841063Y-14452936D01*
X14841063Y-14452936D02*
X14831539Y-14443412D01*
D12*
X9866000Y-14844500D02*
G75*
G02*
X9816000Y-14844500I-25000J0D01*
G01*
X9816000Y-14844500D02*
G75*
G02*
X9866000Y-14844500I25000J0D01*
G01*
D11*
X10164872Y-14735984D02*
X10183920Y-14735984D01*
X10183920Y-14735984D02*
X10202967Y-14745508D01*
X10202967Y-14745508D02*
X10212491Y-14755031D01*
X10212491Y-14755031D02*
X10222015Y-14774079D01*
X10222015Y-14774079D02*
X10231539Y-14812174D01*
X10231539Y-14812174D02*
X10231539Y-14859793D01*
X10231539Y-14859793D02*
X10222015Y-14897888D01*
X10222015Y-14897888D02*
X10212491Y-14916936D01*
X10212491Y-14916936D02*
X10202967Y-14926460D01*
X10202967Y-14926460D02*
X10183920Y-14935984D01*
X10183920Y-14935984D02*
X10164872Y-14935984D01*
X10164872Y-14935984D02*
X10145824Y-14926460D01*
X10145824Y-14926460D02*
X10136301Y-14916936D01*
X10136301Y-14916936D02*
X10126777Y-14897888D01*
X10126777Y-14897888D02*
X10117253Y-14859793D01*
X10117253Y-14859793D02*
X10117253Y-14812174D01*
X10117253Y-14812174D02*
X10126777Y-14774079D01*
X10126777Y-14774079D02*
X10136301Y-14755031D01*
X10136301Y-14755031D02*
X10145824Y-14745508D01*
X10145824Y-14745508D02*
X10164872Y-14735984D01*
X10317253Y-14916936D02*
X10326777Y-14926460D01*
X10326777Y-14926460D02*
X10317253Y-14935984D01*
X10317253Y-14935984D02*
X10307729Y-14926460D01*
X10307729Y-14926460D02*
X10317253Y-14916936D01*
X10317253Y-14916936D02*
X10317253Y-14935984D01*
X10507729Y-14735984D02*
X10412491Y-14735984D01*
X10412491Y-14735984D02*
X10402967Y-14831222D01*
X10402967Y-14831222D02*
X10412491Y-14821698D01*
X10412491Y-14821698D02*
X10431539Y-14812174D01*
X10431539Y-14812174D02*
X10479158Y-14812174D01*
X10479158Y-14812174D02*
X10498205Y-14821698D01*
X10498205Y-14821698D02*
X10507729Y-14831222D01*
X10507729Y-14831222D02*
X10517253Y-14850269D01*
X10517253Y-14850269D02*
X10517253Y-14897888D01*
X10517253Y-14897888D02*
X10507729Y-14916936D01*
X10507729Y-14916936D02*
X10498205Y-14926460D01*
X10498205Y-14926460D02*
X10479158Y-14935984D01*
X10479158Y-14935984D02*
X10431539Y-14935984D01*
X10431539Y-14935984D02*
X10412491Y-14926460D01*
X10412491Y-14926460D02*
X10402967Y-14916936D01*
X10641063Y-14735984D02*
X10660110Y-14735984D01*
X10660110Y-14735984D02*
X10679158Y-14745508D01*
X10679158Y-14745508D02*
X10688682Y-14755031D01*
X10688682Y-14755031D02*
X10698205Y-14774079D01*
X10698205Y-14774079D02*
X10707729Y-14812174D01*
X10707729Y-14812174D02*
X10707729Y-14859793D01*
X10707729Y-14859793D02*
X10698205Y-14897888D01*
X10698205Y-14897888D02*
X10688682Y-14916936D01*
X10688682Y-14916936D02*
X10679158Y-14926460D01*
X10679158Y-14926460D02*
X10660110Y-14935984D01*
X10660110Y-14935984D02*
X10641063Y-14935984D01*
X10641063Y-14935984D02*
X10622015Y-14926460D01*
X10622015Y-14926460D02*
X10612491Y-14916936D01*
X10612491Y-14916936D02*
X10602967Y-14897888D01*
X10602967Y-14897888D02*
X10593444Y-14859793D01*
X10593444Y-14859793D02*
X10593444Y-14812174D01*
X10593444Y-14812174D02*
X10602967Y-14774079D01*
X10602967Y-14774079D02*
X10612491Y-14755031D01*
X10612491Y-14755031D02*
X10622015Y-14745508D01*
X10622015Y-14745508D02*
X10641063Y-14735984D01*
X10831539Y-14735984D02*
X10850586Y-14735984D01*
X10850586Y-14735984D02*
X10869634Y-14745508D01*
X10869634Y-14745508D02*
X10879158Y-14755031D01*
X10879158Y-14755031D02*
X10888682Y-14774079D01*
X10888682Y-14774079D02*
X10898205Y-14812174D01*
X10898205Y-14812174D02*
X10898205Y-14859793D01*
X10898205Y-14859793D02*
X10888682Y-14897888D01*
X10888682Y-14897888D02*
X10879158Y-14916936D01*
X10879158Y-14916936D02*
X10869634Y-14926460D01*
X10869634Y-14926460D02*
X10850586Y-14935984D01*
X10850586Y-14935984D02*
X10831539Y-14935984D01*
X10831539Y-14935984D02*
X10812491Y-14926460D01*
X10812491Y-14926460D02*
X10802967Y-14916936D01*
X10802967Y-14916936D02*
X10793444Y-14897888D01*
X10793444Y-14897888D02*
X10783920Y-14859793D01*
X10783920Y-14859793D02*
X10783920Y-14812174D01*
X10783920Y-14812174D02*
X10793444Y-14774079D01*
X10793444Y-14774079D02*
X10802967Y-14755031D01*
X10802967Y-14755031D02*
X10812491Y-14745508D01*
X10812491Y-14745508D02*
X10831539Y-14735984D01*
X10983920Y-14935984D02*
X10983920Y-14802650D01*
X10983920Y-14821698D02*
X10993444Y-14812174D01*
X10993444Y-14812174D02*
X11012491Y-14802650D01*
X11012491Y-14802650D02*
X11041063Y-14802650D01*
X11041063Y-14802650D02*
X11060110Y-14812174D01*
X11060110Y-14812174D02*
X11069634Y-14831222D01*
X11069634Y-14831222D02*
X11069634Y-14935984D01*
X11069634Y-14831222D02*
X11079158Y-14812174D01*
X11079158Y-14812174D02*
X11098205Y-14802650D01*
X11098205Y-14802650D02*
X11126777Y-14802650D01*
X11126777Y-14802650D02*
X11145825Y-14812174D01*
X11145825Y-14812174D02*
X11155348Y-14831222D01*
X11155348Y-14831222D02*
X11155348Y-14935984D01*
X11250586Y-14935984D02*
X11250586Y-14802650D01*
X11250586Y-14821698D02*
X11260110Y-14812174D01*
X11260110Y-14812174D02*
X11279158Y-14802650D01*
X11279158Y-14802650D02*
X11307729Y-14802650D01*
X11307729Y-14802650D02*
X11326777Y-14812174D01*
X11326777Y-14812174D02*
X11336301Y-14831222D01*
X11336301Y-14831222D02*
X11336301Y-14935984D01*
X11336301Y-14831222D02*
X11345824Y-14812174D01*
X11345824Y-14812174D02*
X11364872Y-14802650D01*
X11364872Y-14802650D02*
X11393443Y-14802650D01*
X11393443Y-14802650D02*
X11412491Y-14812174D01*
X11412491Y-14812174D02*
X11422015Y-14831222D01*
X11422015Y-14831222D02*
X11422015Y-14935984D01*
X11812491Y-14726460D02*
X11641063Y-14983603D01*
X12069634Y-14735984D02*
X12088682Y-14735984D01*
X12088682Y-14735984D02*
X12107729Y-14745508D01*
X12107729Y-14745508D02*
X12117253Y-14755031D01*
X12117253Y-14755031D02*
X12126777Y-14774079D01*
X12126777Y-14774079D02*
X12136301Y-14812174D01*
X12136301Y-14812174D02*
X12136301Y-14859793D01*
X12136301Y-14859793D02*
X12126777Y-14897888D01*
X12126777Y-14897888D02*
X12117253Y-14916936D01*
X12117253Y-14916936D02*
X12107729Y-14926460D01*
X12107729Y-14926460D02*
X12088682Y-14935984D01*
X12088682Y-14935984D02*
X12069634Y-14935984D01*
X12069634Y-14935984D02*
X12050586Y-14926460D01*
X12050586Y-14926460D02*
X12041063Y-14916936D01*
X12041063Y-14916936D02*
X12031539Y-14897888D01*
X12031539Y-14897888D02*
X12022015Y-14859793D01*
X12022015Y-14859793D02*
X12022015Y-14812174D01*
X12022015Y-14812174D02*
X12031539Y-14774079D01*
X12031539Y-14774079D02*
X12041063Y-14755031D01*
X12041063Y-14755031D02*
X12050586Y-14745508D01*
X12050586Y-14745508D02*
X12069634Y-14735984D01*
X12222015Y-14916936D02*
X12231539Y-14926460D01*
X12231539Y-14926460D02*
X12222015Y-14935984D01*
X12222015Y-14935984D02*
X12212491Y-14926460D01*
X12212491Y-14926460D02*
X12222015Y-14916936D01*
X12222015Y-14916936D02*
X12222015Y-14935984D01*
X12355348Y-14735984D02*
X12374396Y-14735984D01*
X12374396Y-14735984D02*
X12393444Y-14745508D01*
X12393444Y-14745508D02*
X12402967Y-14755031D01*
X12402967Y-14755031D02*
X12412491Y-14774079D01*
X12412491Y-14774079D02*
X12422015Y-14812174D01*
X12422015Y-14812174D02*
X12422015Y-14859793D01*
X12422015Y-14859793D02*
X12412491Y-14897888D01*
X12412491Y-14897888D02*
X12402967Y-14916936D01*
X12402967Y-14916936D02*
X12393444Y-14926460D01*
X12393444Y-14926460D02*
X12374396Y-14935984D01*
X12374396Y-14935984D02*
X12355348Y-14935984D01*
X12355348Y-14935984D02*
X12336301Y-14926460D01*
X12336301Y-14926460D02*
X12326777Y-14916936D01*
X12326777Y-14916936D02*
X12317253Y-14897888D01*
X12317253Y-14897888D02*
X12307729Y-14859793D01*
X12307729Y-14859793D02*
X12307729Y-14812174D01*
X12307729Y-14812174D02*
X12317253Y-14774079D01*
X12317253Y-14774079D02*
X12326777Y-14755031D01*
X12326777Y-14755031D02*
X12336301Y-14745508D01*
X12336301Y-14745508D02*
X12355348Y-14735984D01*
X12612491Y-14935984D02*
X12498206Y-14935984D01*
X12555348Y-14935984D02*
X12555348Y-14735984D01*
X12555348Y-14735984D02*
X12536301Y-14764555D01*
X12536301Y-14764555D02*
X12517253Y-14783603D01*
X12517253Y-14783603D02*
X12498206Y-14793127D01*
X12707729Y-14935984D02*
X12745825Y-14935984D01*
X12745825Y-14935984D02*
X12764872Y-14926460D01*
X12764872Y-14926460D02*
X12774396Y-14916936D01*
X12774396Y-14916936D02*
X12793444Y-14888365D01*
X12793444Y-14888365D02*
X12802967Y-14850269D01*
X12802967Y-14850269D02*
X12802967Y-14774079D01*
X12802967Y-14774079D02*
X12793444Y-14755031D01*
X12793444Y-14755031D02*
X12783920Y-14745508D01*
X12783920Y-14745508D02*
X12764872Y-14735984D01*
X12764872Y-14735984D02*
X12726777Y-14735984D01*
X12726777Y-14735984D02*
X12707729Y-14745508D01*
X12707729Y-14745508D02*
X12698206Y-14755031D01*
X12698206Y-14755031D02*
X12688682Y-14774079D01*
X12688682Y-14774079D02*
X12688682Y-14821698D01*
X12688682Y-14821698D02*
X12698206Y-14840746D01*
X12698206Y-14840746D02*
X12707729Y-14850269D01*
X12707729Y-14850269D02*
X12726777Y-14859793D01*
X12726777Y-14859793D02*
X12764872Y-14859793D01*
X12764872Y-14859793D02*
X12783920Y-14850269D01*
X12783920Y-14850269D02*
X12793444Y-14840746D01*
X12793444Y-14840746D02*
X12802967Y-14821698D01*
X12869634Y-14735984D02*
X13002967Y-14735984D01*
X13002967Y-14735984D02*
X12917253Y-14935984D01*
X13069634Y-14735984D02*
X13069634Y-14774079D01*
X13145825Y-14735984D02*
X13145825Y-14774079D01*
X13441063Y-15012174D02*
X13431539Y-15002650D01*
X13431539Y-15002650D02*
X13412491Y-14974079D01*
X13412491Y-14974079D02*
X13402968Y-14955031D01*
X13402968Y-14955031D02*
X13393444Y-14926460D01*
X13393444Y-14926460D02*
X13383920Y-14878841D01*
X13383920Y-14878841D02*
X13383920Y-14840746D01*
X13383920Y-14840746D02*
X13393444Y-14793127D01*
X13393444Y-14793127D02*
X13402968Y-14764555D01*
X13402968Y-14764555D02*
X13412491Y-14745508D01*
X13412491Y-14745508D02*
X13431539Y-14716936D01*
X13431539Y-14716936D02*
X13441063Y-14707412D01*
X13498206Y-14735984D02*
X13622015Y-14735984D01*
X13622015Y-14735984D02*
X13555348Y-14812174D01*
X13555348Y-14812174D02*
X13583920Y-14812174D01*
X13583920Y-14812174D02*
X13602968Y-14821698D01*
X13602968Y-14821698D02*
X13612491Y-14831222D01*
X13612491Y-14831222D02*
X13622015Y-14850269D01*
X13622015Y-14850269D02*
X13622015Y-14897888D01*
X13622015Y-14897888D02*
X13612491Y-14916936D01*
X13612491Y-14916936D02*
X13602968Y-14926460D01*
X13602968Y-14926460D02*
X13583920Y-14935984D01*
X13583920Y-14935984D02*
X13526777Y-14935984D01*
X13526777Y-14935984D02*
X13507729Y-14926460D01*
X13507729Y-14926460D02*
X13498206Y-14916936D01*
X13698206Y-14755031D02*
X13707729Y-14745508D01*
X13707729Y-14745508D02*
X13726777Y-14735984D01*
X13726777Y-14735984D02*
X13774396Y-14735984D01*
X13774396Y-14735984D02*
X13793444Y-14745508D01*
X13793444Y-14745508D02*
X13802968Y-14755031D01*
X13802968Y-14755031D02*
X13812491Y-14774079D01*
X13812491Y-14774079D02*
X13812491Y-14793127D01*
X13812491Y-14793127D02*
X13802968Y-14821698D01*
X13802968Y-14821698D02*
X13688682Y-14935984D01*
X13688682Y-14935984D02*
X13812491Y-14935984D01*
X14050587Y-14935984D02*
X14050587Y-14735984D01*
X14136301Y-14935984D02*
X14136301Y-14831222D01*
X14136301Y-14831222D02*
X14126777Y-14812174D01*
X14126777Y-14812174D02*
X14107730Y-14802650D01*
X14107730Y-14802650D02*
X14079158Y-14802650D01*
X14079158Y-14802650D02*
X14060110Y-14812174D01*
X14060110Y-14812174D02*
X14050587Y-14821698D01*
X14260110Y-14935984D02*
X14241063Y-14926460D01*
X14241063Y-14926460D02*
X14231539Y-14916936D01*
X14231539Y-14916936D02*
X14222015Y-14897888D01*
X14222015Y-14897888D02*
X14222015Y-14840746D01*
X14222015Y-14840746D02*
X14231539Y-14821698D01*
X14231539Y-14821698D02*
X14241063Y-14812174D01*
X14241063Y-14812174D02*
X14260110Y-14802650D01*
X14260110Y-14802650D02*
X14288682Y-14802650D01*
X14288682Y-14802650D02*
X14307730Y-14812174D01*
X14307730Y-14812174D02*
X14317253Y-14821698D01*
X14317253Y-14821698D02*
X14326777Y-14840746D01*
X14326777Y-14840746D02*
X14326777Y-14897888D01*
X14326777Y-14897888D02*
X14317253Y-14916936D01*
X14317253Y-14916936D02*
X14307730Y-14926460D01*
X14307730Y-14926460D02*
X14288682Y-14935984D01*
X14288682Y-14935984D02*
X14260110Y-14935984D01*
X14441063Y-14935984D02*
X14422015Y-14926460D01*
X14422015Y-14926460D02*
X14412491Y-14907412D01*
X14412491Y-14907412D02*
X14412491Y-14735984D01*
X14593444Y-14926460D02*
X14574396Y-14935984D01*
X14574396Y-14935984D02*
X14536301Y-14935984D01*
X14536301Y-14935984D02*
X14517253Y-14926460D01*
X14517253Y-14926460D02*
X14507730Y-14907412D01*
X14507730Y-14907412D02*
X14507730Y-14831222D01*
X14507730Y-14831222D02*
X14517253Y-14812174D01*
X14517253Y-14812174D02*
X14536301Y-14802650D01*
X14536301Y-14802650D02*
X14574396Y-14802650D01*
X14574396Y-14802650D02*
X14593444Y-14812174D01*
X14593444Y-14812174D02*
X14602968Y-14831222D01*
X14602968Y-14831222D02*
X14602968Y-14850269D01*
X14602968Y-14850269D02*
X14507730Y-14869317D01*
X14679158Y-14926460D02*
X14698206Y-14935984D01*
X14698206Y-14935984D02*
X14736301Y-14935984D01*
X14736301Y-14935984D02*
X14755349Y-14926460D01*
X14755349Y-14926460D02*
X14764872Y-14907412D01*
X14764872Y-14907412D02*
X14764872Y-14897888D01*
X14764872Y-14897888D02*
X14755349Y-14878841D01*
X14755349Y-14878841D02*
X14736301Y-14869317D01*
X14736301Y-14869317D02*
X14707730Y-14869317D01*
X14707730Y-14869317D02*
X14688682Y-14859793D01*
X14688682Y-14859793D02*
X14679158Y-14840746D01*
X14679158Y-14840746D02*
X14679158Y-14831222D01*
X14679158Y-14831222D02*
X14688682Y-14812174D01*
X14688682Y-14812174D02*
X14707730Y-14802650D01*
X14707730Y-14802650D02*
X14736301Y-14802650D01*
X14736301Y-14802650D02*
X14755349Y-14812174D01*
X14831539Y-15012174D02*
X14841063Y-15002650D01*
X14841063Y-15002650D02*
X14860111Y-14974079D01*
X14860111Y-14974079D02*
X14869634Y-14955031D01*
X14869634Y-14955031D02*
X14879158Y-14926460D01*
X14879158Y-14926460D02*
X14888682Y-14878841D01*
X14888682Y-14878841D02*
X14888682Y-14840746D01*
X14888682Y-14840746D02*
X14879158Y-14793127D01*
X14879158Y-14793127D02*
X14869634Y-14764555D01*
X14869634Y-14764555D02*
X14860111Y-14745508D01*
X14860111Y-14745508D02*
X14841063Y-14716936D01*
X14841063Y-14716936D02*
X14831539Y-14707412D01*
D12*
X9826000Y-15068500D02*
X9826000Y-15148500D01*
X9786000Y-15108500D02*
X9866000Y-15108500D01*
D11*
X10164872Y-14999984D02*
X10183920Y-14999984D01*
X10183920Y-14999984D02*
X10202967Y-15009508D01*
X10202967Y-15009508D02*
X10212491Y-15019031D01*
X10212491Y-15019031D02*
X10222015Y-15038079D01*
X10222015Y-15038079D02*
X10231539Y-15076174D01*
X10231539Y-15076174D02*
X10231539Y-15123793D01*
X10231539Y-15123793D02*
X10222015Y-15161888D01*
X10222015Y-15161888D02*
X10212491Y-15180936D01*
X10212491Y-15180936D02*
X10202967Y-15190460D01*
X10202967Y-15190460D02*
X10183920Y-15199984D01*
X10183920Y-15199984D02*
X10164872Y-15199984D01*
X10164872Y-15199984D02*
X10145824Y-15190460D01*
X10145824Y-15190460D02*
X10136301Y-15180936D01*
X10136301Y-15180936D02*
X10126777Y-15161888D01*
X10126777Y-15161888D02*
X10117253Y-15123793D01*
X10117253Y-15123793D02*
X10117253Y-15076174D01*
X10117253Y-15076174D02*
X10126777Y-15038079D01*
X10126777Y-15038079D02*
X10136301Y-15019031D01*
X10136301Y-15019031D02*
X10145824Y-15009508D01*
X10145824Y-15009508D02*
X10164872Y-14999984D01*
X10317253Y-15180936D02*
X10326777Y-15190460D01*
X10326777Y-15190460D02*
X10317253Y-15199984D01*
X10317253Y-15199984D02*
X10307729Y-15190460D01*
X10307729Y-15190460D02*
X10317253Y-15180936D01*
X10317253Y-15180936D02*
X10317253Y-15199984D01*
X10441063Y-15085698D02*
X10422015Y-15076174D01*
X10422015Y-15076174D02*
X10412491Y-15066650D01*
X10412491Y-15066650D02*
X10402967Y-15047603D01*
X10402967Y-15047603D02*
X10402967Y-15038079D01*
X10402967Y-15038079D02*
X10412491Y-15019031D01*
X10412491Y-15019031D02*
X10422015Y-15009508D01*
X10422015Y-15009508D02*
X10441063Y-14999984D01*
X10441063Y-14999984D02*
X10479158Y-14999984D01*
X10479158Y-14999984D02*
X10498205Y-15009508D01*
X10498205Y-15009508D02*
X10507729Y-15019031D01*
X10507729Y-15019031D02*
X10517253Y-15038079D01*
X10517253Y-15038079D02*
X10517253Y-15047603D01*
X10517253Y-15047603D02*
X10507729Y-15066650D01*
X10507729Y-15066650D02*
X10498205Y-15076174D01*
X10498205Y-15076174D02*
X10479158Y-15085698D01*
X10479158Y-15085698D02*
X10441063Y-15085698D01*
X10441063Y-15085698D02*
X10422015Y-15095222D01*
X10422015Y-15095222D02*
X10412491Y-15104746D01*
X10412491Y-15104746D02*
X10402967Y-15123793D01*
X10402967Y-15123793D02*
X10402967Y-15161888D01*
X10402967Y-15161888D02*
X10412491Y-15180936D01*
X10412491Y-15180936D02*
X10422015Y-15190460D01*
X10422015Y-15190460D02*
X10441063Y-15199984D01*
X10441063Y-15199984D02*
X10479158Y-15199984D01*
X10479158Y-15199984D02*
X10498205Y-15190460D01*
X10498205Y-15190460D02*
X10507729Y-15180936D01*
X10507729Y-15180936D02*
X10517253Y-15161888D01*
X10517253Y-15161888D02*
X10517253Y-15123793D01*
X10517253Y-15123793D02*
X10507729Y-15104746D01*
X10507729Y-15104746D02*
X10498205Y-15095222D01*
X10498205Y-15095222D02*
X10479158Y-15085698D01*
X10641063Y-14999984D02*
X10660110Y-14999984D01*
X10660110Y-14999984D02*
X10679158Y-15009508D01*
X10679158Y-15009508D02*
X10688682Y-15019031D01*
X10688682Y-15019031D02*
X10698205Y-15038079D01*
X10698205Y-15038079D02*
X10707729Y-15076174D01*
X10707729Y-15076174D02*
X10707729Y-15123793D01*
X10707729Y-15123793D02*
X10698205Y-15161888D01*
X10698205Y-15161888D02*
X10688682Y-15180936D01*
X10688682Y-15180936D02*
X10679158Y-15190460D01*
X10679158Y-15190460D02*
X10660110Y-15199984D01*
X10660110Y-15199984D02*
X10641063Y-15199984D01*
X10641063Y-15199984D02*
X10622015Y-15190460D01*
X10622015Y-15190460D02*
X10612491Y-15180936D01*
X10612491Y-15180936D02*
X10602967Y-15161888D01*
X10602967Y-15161888D02*
X10593444Y-15123793D01*
X10593444Y-15123793D02*
X10593444Y-15076174D01*
X10593444Y-15076174D02*
X10602967Y-15038079D01*
X10602967Y-15038079D02*
X10612491Y-15019031D01*
X10612491Y-15019031D02*
X10622015Y-15009508D01*
X10622015Y-15009508D02*
X10641063Y-14999984D01*
X10831539Y-14999984D02*
X10850586Y-14999984D01*
X10850586Y-14999984D02*
X10869634Y-15009508D01*
X10869634Y-15009508D02*
X10879158Y-15019031D01*
X10879158Y-15019031D02*
X10888682Y-15038079D01*
X10888682Y-15038079D02*
X10898205Y-15076174D01*
X10898205Y-15076174D02*
X10898205Y-15123793D01*
X10898205Y-15123793D02*
X10888682Y-15161888D01*
X10888682Y-15161888D02*
X10879158Y-15180936D01*
X10879158Y-15180936D02*
X10869634Y-15190460D01*
X10869634Y-15190460D02*
X10850586Y-15199984D01*
X10850586Y-15199984D02*
X10831539Y-15199984D01*
X10831539Y-15199984D02*
X10812491Y-15190460D01*
X10812491Y-15190460D02*
X10802967Y-15180936D01*
X10802967Y-15180936D02*
X10793444Y-15161888D01*
X10793444Y-15161888D02*
X10783920Y-15123793D01*
X10783920Y-15123793D02*
X10783920Y-15076174D01*
X10783920Y-15076174D02*
X10793444Y-15038079D01*
X10793444Y-15038079D02*
X10802967Y-15019031D01*
X10802967Y-15019031D02*
X10812491Y-15009508D01*
X10812491Y-15009508D02*
X10831539Y-14999984D01*
X10983920Y-15199984D02*
X10983920Y-15066650D01*
X10983920Y-15085698D02*
X10993444Y-15076174D01*
X10993444Y-15076174D02*
X11012491Y-15066650D01*
X11012491Y-15066650D02*
X11041063Y-15066650D01*
X11041063Y-15066650D02*
X11060110Y-15076174D01*
X11060110Y-15076174D02*
X11069634Y-15095222D01*
X11069634Y-15095222D02*
X11069634Y-15199984D01*
X11069634Y-15095222D02*
X11079158Y-15076174D01*
X11079158Y-15076174D02*
X11098205Y-15066650D01*
X11098205Y-15066650D02*
X11126777Y-15066650D01*
X11126777Y-15066650D02*
X11145825Y-15076174D01*
X11145825Y-15076174D02*
X11155348Y-15095222D01*
X11155348Y-15095222D02*
X11155348Y-15199984D01*
X11250586Y-15199984D02*
X11250586Y-15066650D01*
X11250586Y-15085698D02*
X11260110Y-15076174D01*
X11260110Y-15076174D02*
X11279158Y-15066650D01*
X11279158Y-15066650D02*
X11307729Y-15066650D01*
X11307729Y-15066650D02*
X11326777Y-15076174D01*
X11326777Y-15076174D02*
X11336301Y-15095222D01*
X11336301Y-15095222D02*
X11336301Y-15199984D01*
X11336301Y-15095222D02*
X11345824Y-15076174D01*
X11345824Y-15076174D02*
X11364872Y-15066650D01*
X11364872Y-15066650D02*
X11393443Y-15066650D01*
X11393443Y-15066650D02*
X11412491Y-15076174D01*
X11412491Y-15076174D02*
X11422015Y-15095222D01*
X11422015Y-15095222D02*
X11422015Y-15199984D01*
X11812491Y-14990460D02*
X11641063Y-15247603D01*
X12069634Y-14999984D02*
X12088682Y-14999984D01*
X12088682Y-14999984D02*
X12107729Y-15009508D01*
X12107729Y-15009508D02*
X12117253Y-15019031D01*
X12117253Y-15019031D02*
X12126777Y-15038079D01*
X12126777Y-15038079D02*
X12136301Y-15076174D01*
X12136301Y-15076174D02*
X12136301Y-15123793D01*
X12136301Y-15123793D02*
X12126777Y-15161888D01*
X12126777Y-15161888D02*
X12117253Y-15180936D01*
X12117253Y-15180936D02*
X12107729Y-15190460D01*
X12107729Y-15190460D02*
X12088682Y-15199984D01*
X12088682Y-15199984D02*
X12069634Y-15199984D01*
X12069634Y-15199984D02*
X12050586Y-15190460D01*
X12050586Y-15190460D02*
X12041063Y-15180936D01*
X12041063Y-15180936D02*
X12031539Y-15161888D01*
X12031539Y-15161888D02*
X12022015Y-15123793D01*
X12022015Y-15123793D02*
X12022015Y-15076174D01*
X12022015Y-15076174D02*
X12031539Y-15038079D01*
X12031539Y-15038079D02*
X12041063Y-15019031D01*
X12041063Y-15019031D02*
X12050586Y-15009508D01*
X12050586Y-15009508D02*
X12069634Y-14999984D01*
X12222015Y-15180936D02*
X12231539Y-15190460D01*
X12231539Y-15190460D02*
X12222015Y-15199984D01*
X12222015Y-15199984D02*
X12212491Y-15190460D01*
X12212491Y-15190460D02*
X12222015Y-15180936D01*
X12222015Y-15180936D02*
X12222015Y-15199984D01*
X12355348Y-14999984D02*
X12374396Y-14999984D01*
X12374396Y-14999984D02*
X12393444Y-15009508D01*
X12393444Y-15009508D02*
X12402967Y-15019031D01*
X12402967Y-15019031D02*
X12412491Y-15038079D01*
X12412491Y-15038079D02*
X12422015Y-15076174D01*
X12422015Y-15076174D02*
X12422015Y-15123793D01*
X12422015Y-15123793D02*
X12412491Y-15161888D01*
X12412491Y-15161888D02*
X12402967Y-15180936D01*
X12402967Y-15180936D02*
X12393444Y-15190460D01*
X12393444Y-15190460D02*
X12374396Y-15199984D01*
X12374396Y-15199984D02*
X12355348Y-15199984D01*
X12355348Y-15199984D02*
X12336301Y-15190460D01*
X12336301Y-15190460D02*
X12326777Y-15180936D01*
X12326777Y-15180936D02*
X12317253Y-15161888D01*
X12317253Y-15161888D02*
X12307729Y-15123793D01*
X12307729Y-15123793D02*
X12307729Y-15076174D01*
X12307729Y-15076174D02*
X12317253Y-15038079D01*
X12317253Y-15038079D02*
X12326777Y-15019031D01*
X12326777Y-15019031D02*
X12336301Y-15009508D01*
X12336301Y-15009508D02*
X12355348Y-14999984D01*
X12488682Y-14999984D02*
X12612491Y-14999984D01*
X12612491Y-14999984D02*
X12545825Y-15076174D01*
X12545825Y-15076174D02*
X12574396Y-15076174D01*
X12574396Y-15076174D02*
X12593444Y-15085698D01*
X12593444Y-15085698D02*
X12602967Y-15095222D01*
X12602967Y-15095222D02*
X12612491Y-15114269D01*
X12612491Y-15114269D02*
X12612491Y-15161888D01*
X12612491Y-15161888D02*
X12602967Y-15180936D01*
X12602967Y-15180936D02*
X12593444Y-15190460D01*
X12593444Y-15190460D02*
X12574396Y-15199984D01*
X12574396Y-15199984D02*
X12517253Y-15199984D01*
X12517253Y-15199984D02*
X12498206Y-15190460D01*
X12498206Y-15190460D02*
X12488682Y-15180936D01*
X12802967Y-15199984D02*
X12688682Y-15199984D01*
X12745825Y-15199984D02*
X12745825Y-14999984D01*
X12745825Y-14999984D02*
X12726777Y-15028555D01*
X12726777Y-15028555D02*
X12707729Y-15047603D01*
X12707729Y-15047603D02*
X12688682Y-15057127D01*
X12983920Y-14999984D02*
X12888682Y-14999984D01*
X12888682Y-14999984D02*
X12879158Y-15095222D01*
X12879158Y-15095222D02*
X12888682Y-15085698D01*
X12888682Y-15085698D02*
X12907729Y-15076174D01*
X12907729Y-15076174D02*
X12955348Y-15076174D01*
X12955348Y-15076174D02*
X12974396Y-15085698D01*
X12974396Y-15085698D02*
X12983920Y-15095222D01*
X12983920Y-15095222D02*
X12993444Y-15114269D01*
X12993444Y-15114269D02*
X12993444Y-15161888D01*
X12993444Y-15161888D02*
X12983920Y-15180936D01*
X12983920Y-15180936D02*
X12974396Y-15190460D01*
X12974396Y-15190460D02*
X12955348Y-15199984D01*
X12955348Y-15199984D02*
X12907729Y-15199984D01*
X12907729Y-15199984D02*
X12888682Y-15190460D01*
X12888682Y-15190460D02*
X12879158Y-15180936D01*
X13069634Y-14999984D02*
X13069634Y-15038079D01*
X13145825Y-14999984D02*
X13145825Y-15038079D01*
X13441063Y-15276174D02*
X13431539Y-15266650D01*
X13431539Y-15266650D02*
X13412491Y-15238079D01*
X13412491Y-15238079D02*
X13402968Y-15219031D01*
X13402968Y-15219031D02*
X13393444Y-15190460D01*
X13393444Y-15190460D02*
X13383920Y-15142841D01*
X13383920Y-15142841D02*
X13383920Y-15104746D01*
X13383920Y-15104746D02*
X13393444Y-15057127D01*
X13393444Y-15057127D02*
X13402968Y-15028555D01*
X13402968Y-15028555D02*
X13412491Y-15009508D01*
X13412491Y-15009508D02*
X13431539Y-14980936D01*
X13431539Y-14980936D02*
X13441063Y-14971412D01*
X13622015Y-15199984D02*
X13507729Y-15199984D01*
X13564872Y-15199984D02*
X13564872Y-14999984D01*
X13564872Y-14999984D02*
X13545825Y-15028555D01*
X13545825Y-15028555D02*
X13526777Y-15047603D01*
X13526777Y-15047603D02*
X13507729Y-15057127D01*
X13736301Y-15085698D02*
X13717253Y-15076174D01*
X13717253Y-15076174D02*
X13707729Y-15066650D01*
X13707729Y-15066650D02*
X13698206Y-15047603D01*
X13698206Y-15047603D02*
X13698206Y-15038079D01*
X13698206Y-15038079D02*
X13707729Y-15019031D01*
X13707729Y-15019031D02*
X13717253Y-15009508D01*
X13717253Y-15009508D02*
X13736301Y-14999984D01*
X13736301Y-14999984D02*
X13774396Y-14999984D01*
X13774396Y-14999984D02*
X13793444Y-15009508D01*
X13793444Y-15009508D02*
X13802968Y-15019031D01*
X13802968Y-15019031D02*
X13812491Y-15038079D01*
X13812491Y-15038079D02*
X13812491Y-15047603D01*
X13812491Y-15047603D02*
X13802968Y-15066650D01*
X13802968Y-15066650D02*
X13793444Y-15076174D01*
X13793444Y-15076174D02*
X13774396Y-15085698D01*
X13774396Y-15085698D02*
X13736301Y-15085698D01*
X13736301Y-15085698D02*
X13717253Y-15095222D01*
X13717253Y-15095222D02*
X13707729Y-15104746D01*
X13707729Y-15104746D02*
X13698206Y-15123793D01*
X13698206Y-15123793D02*
X13698206Y-15161888D01*
X13698206Y-15161888D02*
X13707729Y-15180936D01*
X13707729Y-15180936D02*
X13717253Y-15190460D01*
X13717253Y-15190460D02*
X13736301Y-15199984D01*
X13736301Y-15199984D02*
X13774396Y-15199984D01*
X13774396Y-15199984D02*
X13793444Y-15190460D01*
X13793444Y-15190460D02*
X13802968Y-15180936D01*
X13802968Y-15180936D02*
X13812491Y-15161888D01*
X13812491Y-15161888D02*
X13812491Y-15123793D01*
X13812491Y-15123793D02*
X13802968Y-15104746D01*
X13802968Y-15104746D02*
X13793444Y-15095222D01*
X13793444Y-15095222D02*
X13774396Y-15085698D01*
X14050587Y-15199984D02*
X14050587Y-14999984D01*
X14136301Y-15199984D02*
X14136301Y-15095222D01*
X14136301Y-15095222D02*
X14126777Y-15076174D01*
X14126777Y-15076174D02*
X14107730Y-15066650D01*
X14107730Y-15066650D02*
X14079158Y-15066650D01*
X14079158Y-15066650D02*
X14060110Y-15076174D01*
X14060110Y-15076174D02*
X14050587Y-15085698D01*
X14260110Y-15199984D02*
X14241063Y-15190460D01*
X14241063Y-15190460D02*
X14231539Y-15180936D01*
X14231539Y-15180936D02*
X14222015Y-15161888D01*
X14222015Y-15161888D02*
X14222015Y-15104746D01*
X14222015Y-15104746D02*
X14231539Y-15085698D01*
X14231539Y-15085698D02*
X14241063Y-15076174D01*
X14241063Y-15076174D02*
X14260110Y-15066650D01*
X14260110Y-15066650D02*
X14288682Y-15066650D01*
X14288682Y-15066650D02*
X14307730Y-15076174D01*
X14307730Y-15076174D02*
X14317253Y-15085698D01*
X14317253Y-15085698D02*
X14326777Y-15104746D01*
X14326777Y-15104746D02*
X14326777Y-15161888D01*
X14326777Y-15161888D02*
X14317253Y-15180936D01*
X14317253Y-15180936D02*
X14307730Y-15190460D01*
X14307730Y-15190460D02*
X14288682Y-15199984D01*
X14288682Y-15199984D02*
X14260110Y-15199984D01*
X14441063Y-15199984D02*
X14422015Y-15190460D01*
X14422015Y-15190460D02*
X14412491Y-15171412D01*
X14412491Y-15171412D02*
X14412491Y-14999984D01*
X14593444Y-15190460D02*
X14574396Y-15199984D01*
X14574396Y-15199984D02*
X14536301Y-15199984D01*
X14536301Y-15199984D02*
X14517253Y-15190460D01*
X14517253Y-15190460D02*
X14507730Y-15171412D01*
X14507730Y-15171412D02*
X14507730Y-15095222D01*
X14507730Y-15095222D02*
X14517253Y-15076174D01*
X14517253Y-15076174D02*
X14536301Y-15066650D01*
X14536301Y-15066650D02*
X14574396Y-15066650D01*
X14574396Y-15066650D02*
X14593444Y-15076174D01*
X14593444Y-15076174D02*
X14602968Y-15095222D01*
X14602968Y-15095222D02*
X14602968Y-15114269D01*
X14602968Y-15114269D02*
X14507730Y-15133317D01*
X14679158Y-15190460D02*
X14698206Y-15199984D01*
X14698206Y-15199984D02*
X14736301Y-15199984D01*
X14736301Y-15199984D02*
X14755349Y-15190460D01*
X14755349Y-15190460D02*
X14764872Y-15171412D01*
X14764872Y-15171412D02*
X14764872Y-15161888D01*
X14764872Y-15161888D02*
X14755349Y-15142841D01*
X14755349Y-15142841D02*
X14736301Y-15133317D01*
X14736301Y-15133317D02*
X14707730Y-15133317D01*
X14707730Y-15133317D02*
X14688682Y-15123793D01*
X14688682Y-15123793D02*
X14679158Y-15104746D01*
X14679158Y-15104746D02*
X14679158Y-15095222D01*
X14679158Y-15095222D02*
X14688682Y-15076174D01*
X14688682Y-15076174D02*
X14707730Y-15066650D01*
X14707730Y-15066650D02*
X14736301Y-15066650D01*
X14736301Y-15066650D02*
X14755349Y-15076174D01*
X14831539Y-15276174D02*
X14841063Y-15266650D01*
X14841063Y-15266650D02*
X14860111Y-15238079D01*
X14860111Y-15238079D02*
X14869634Y-15219031D01*
X14869634Y-15219031D02*
X14879158Y-15190460D01*
X14879158Y-15190460D02*
X14888682Y-15142841D01*
X14888682Y-15142841D02*
X14888682Y-15104746D01*
X14888682Y-15104746D02*
X14879158Y-15057127D01*
X14879158Y-15057127D02*
X14869634Y-15028555D01*
X14869634Y-15028555D02*
X14860111Y-15009508D01*
X14860111Y-15009508D02*
X14841063Y-14980936D01*
X14841063Y-14980936D02*
X14831539Y-14971412D01*
D12*
X9851356Y-15407856D02*
X9851356Y-15337144D01*
X9780644Y-15337144D01*
X9780644Y-15407856D01*
X9851356Y-15407856D01*
D11*
X10231539Y-15463984D02*
X10117253Y-15463984D01*
X10174396Y-15463984D02*
X10174396Y-15263984D01*
X10174396Y-15263984D02*
X10155348Y-15292555D01*
X10155348Y-15292555D02*
X10136301Y-15311603D01*
X10136301Y-15311603D02*
X10117253Y-15321127D01*
X10317253Y-15444936D02*
X10326777Y-15454460D01*
X10326777Y-15454460D02*
X10317253Y-15463984D01*
X10317253Y-15463984D02*
X10307729Y-15454460D01*
X10307729Y-15454460D02*
X10317253Y-15444936D01*
X10317253Y-15444936D02*
X10317253Y-15463984D01*
X10450586Y-15263984D02*
X10469634Y-15263984D01*
X10469634Y-15263984D02*
X10488682Y-15273508D01*
X10488682Y-15273508D02*
X10498205Y-15283031D01*
X10498205Y-15283031D02*
X10507729Y-15302079D01*
X10507729Y-15302079D02*
X10517253Y-15340174D01*
X10517253Y-15340174D02*
X10517253Y-15387793D01*
X10517253Y-15387793D02*
X10507729Y-15425888D01*
X10507729Y-15425888D02*
X10498205Y-15444936D01*
X10498205Y-15444936D02*
X10488682Y-15454460D01*
X10488682Y-15454460D02*
X10469634Y-15463984D01*
X10469634Y-15463984D02*
X10450586Y-15463984D01*
X10450586Y-15463984D02*
X10431539Y-15454460D01*
X10431539Y-15454460D02*
X10422015Y-15444936D01*
X10422015Y-15444936D02*
X10412491Y-15425888D01*
X10412491Y-15425888D02*
X10402967Y-15387793D01*
X10402967Y-15387793D02*
X10402967Y-15340174D01*
X10402967Y-15340174D02*
X10412491Y-15302079D01*
X10412491Y-15302079D02*
X10422015Y-15283031D01*
X10422015Y-15283031D02*
X10431539Y-15273508D01*
X10431539Y-15273508D02*
X10450586Y-15263984D01*
X10641063Y-15263984D02*
X10660110Y-15263984D01*
X10660110Y-15263984D02*
X10679158Y-15273508D01*
X10679158Y-15273508D02*
X10688682Y-15283031D01*
X10688682Y-15283031D02*
X10698205Y-15302079D01*
X10698205Y-15302079D02*
X10707729Y-15340174D01*
X10707729Y-15340174D02*
X10707729Y-15387793D01*
X10707729Y-15387793D02*
X10698205Y-15425888D01*
X10698205Y-15425888D02*
X10688682Y-15444936D01*
X10688682Y-15444936D02*
X10679158Y-15454460D01*
X10679158Y-15454460D02*
X10660110Y-15463984D01*
X10660110Y-15463984D02*
X10641063Y-15463984D01*
X10641063Y-15463984D02*
X10622015Y-15454460D01*
X10622015Y-15454460D02*
X10612491Y-15444936D01*
X10612491Y-15444936D02*
X10602967Y-15425888D01*
X10602967Y-15425888D02*
X10593444Y-15387793D01*
X10593444Y-15387793D02*
X10593444Y-15340174D01*
X10593444Y-15340174D02*
X10602967Y-15302079D01*
X10602967Y-15302079D02*
X10612491Y-15283031D01*
X10612491Y-15283031D02*
X10622015Y-15273508D01*
X10622015Y-15273508D02*
X10641063Y-15263984D01*
X10831539Y-15263984D02*
X10850586Y-15263984D01*
X10850586Y-15263984D02*
X10869634Y-15273508D01*
X10869634Y-15273508D02*
X10879158Y-15283031D01*
X10879158Y-15283031D02*
X10888682Y-15302079D01*
X10888682Y-15302079D02*
X10898205Y-15340174D01*
X10898205Y-15340174D02*
X10898205Y-15387793D01*
X10898205Y-15387793D02*
X10888682Y-15425888D01*
X10888682Y-15425888D02*
X10879158Y-15444936D01*
X10879158Y-15444936D02*
X10869634Y-15454460D01*
X10869634Y-15454460D02*
X10850586Y-15463984D01*
X10850586Y-15463984D02*
X10831539Y-15463984D01*
X10831539Y-15463984D02*
X10812491Y-15454460D01*
X10812491Y-15454460D02*
X10802967Y-15444936D01*
X10802967Y-15444936D02*
X10793444Y-15425888D01*
X10793444Y-15425888D02*
X10783920Y-15387793D01*
X10783920Y-15387793D02*
X10783920Y-15340174D01*
X10783920Y-15340174D02*
X10793444Y-15302079D01*
X10793444Y-15302079D02*
X10802967Y-15283031D01*
X10802967Y-15283031D02*
X10812491Y-15273508D01*
X10812491Y-15273508D02*
X10831539Y-15263984D01*
X10983920Y-15463984D02*
X10983920Y-15330650D01*
X10983920Y-15349698D02*
X10993444Y-15340174D01*
X10993444Y-15340174D02*
X11012491Y-15330650D01*
X11012491Y-15330650D02*
X11041063Y-15330650D01*
X11041063Y-15330650D02*
X11060110Y-15340174D01*
X11060110Y-15340174D02*
X11069634Y-15359222D01*
X11069634Y-15359222D02*
X11069634Y-15463984D01*
X11069634Y-15359222D02*
X11079158Y-15340174D01*
X11079158Y-15340174D02*
X11098205Y-15330650D01*
X11098205Y-15330650D02*
X11126777Y-15330650D01*
X11126777Y-15330650D02*
X11145825Y-15340174D01*
X11145825Y-15340174D02*
X11155348Y-15359222D01*
X11155348Y-15359222D02*
X11155348Y-15463984D01*
X11250586Y-15463984D02*
X11250586Y-15330650D01*
X11250586Y-15349698D02*
X11260110Y-15340174D01*
X11260110Y-15340174D02*
X11279158Y-15330650D01*
X11279158Y-15330650D02*
X11307729Y-15330650D01*
X11307729Y-15330650D02*
X11326777Y-15340174D01*
X11326777Y-15340174D02*
X11336301Y-15359222D01*
X11336301Y-15359222D02*
X11336301Y-15463984D01*
X11336301Y-15359222D02*
X11345824Y-15340174D01*
X11345824Y-15340174D02*
X11364872Y-15330650D01*
X11364872Y-15330650D02*
X11393443Y-15330650D01*
X11393443Y-15330650D02*
X11412491Y-15340174D01*
X11412491Y-15340174D02*
X11422015Y-15359222D01*
X11422015Y-15359222D02*
X11422015Y-15463984D01*
X11812491Y-15254460D02*
X11641063Y-15511603D01*
X12069634Y-15263984D02*
X12088682Y-15263984D01*
X12088682Y-15263984D02*
X12107729Y-15273508D01*
X12107729Y-15273508D02*
X12117253Y-15283031D01*
X12117253Y-15283031D02*
X12126777Y-15302079D01*
X12126777Y-15302079D02*
X12136301Y-15340174D01*
X12136301Y-15340174D02*
X12136301Y-15387793D01*
X12136301Y-15387793D02*
X12126777Y-15425888D01*
X12126777Y-15425888D02*
X12117253Y-15444936D01*
X12117253Y-15444936D02*
X12107729Y-15454460D01*
X12107729Y-15454460D02*
X12088682Y-15463984D01*
X12088682Y-15463984D02*
X12069634Y-15463984D01*
X12069634Y-15463984D02*
X12050586Y-15454460D01*
X12050586Y-15454460D02*
X12041063Y-15444936D01*
X12041063Y-15444936D02*
X12031539Y-15425888D01*
X12031539Y-15425888D02*
X12022015Y-15387793D01*
X12022015Y-15387793D02*
X12022015Y-15340174D01*
X12022015Y-15340174D02*
X12031539Y-15302079D01*
X12031539Y-15302079D02*
X12041063Y-15283031D01*
X12041063Y-15283031D02*
X12050586Y-15273508D01*
X12050586Y-15273508D02*
X12069634Y-15263984D01*
X12222015Y-15444936D02*
X12231539Y-15454460D01*
X12231539Y-15454460D02*
X12222015Y-15463984D01*
X12222015Y-15463984D02*
X12212491Y-15454460D01*
X12212491Y-15454460D02*
X12222015Y-15444936D01*
X12222015Y-15444936D02*
X12222015Y-15463984D01*
X12355348Y-15263984D02*
X12374396Y-15263984D01*
X12374396Y-15263984D02*
X12393444Y-15273508D01*
X12393444Y-15273508D02*
X12402967Y-15283031D01*
X12402967Y-15283031D02*
X12412491Y-15302079D01*
X12412491Y-15302079D02*
X12422015Y-15340174D01*
X12422015Y-15340174D02*
X12422015Y-15387793D01*
X12422015Y-15387793D02*
X12412491Y-15425888D01*
X12412491Y-15425888D02*
X12402967Y-15444936D01*
X12402967Y-15444936D02*
X12393444Y-15454460D01*
X12393444Y-15454460D02*
X12374396Y-15463984D01*
X12374396Y-15463984D02*
X12355348Y-15463984D01*
X12355348Y-15463984D02*
X12336301Y-15454460D01*
X12336301Y-15454460D02*
X12326777Y-15444936D01*
X12326777Y-15444936D02*
X12317253Y-15425888D01*
X12317253Y-15425888D02*
X12307729Y-15387793D01*
X12307729Y-15387793D02*
X12307729Y-15340174D01*
X12307729Y-15340174D02*
X12317253Y-15302079D01*
X12317253Y-15302079D02*
X12326777Y-15283031D01*
X12326777Y-15283031D02*
X12336301Y-15273508D01*
X12336301Y-15273508D02*
X12355348Y-15263984D01*
X12488682Y-15263984D02*
X12612491Y-15263984D01*
X12612491Y-15263984D02*
X12545825Y-15340174D01*
X12545825Y-15340174D02*
X12574396Y-15340174D01*
X12574396Y-15340174D02*
X12593444Y-15349698D01*
X12593444Y-15349698D02*
X12602967Y-15359222D01*
X12602967Y-15359222D02*
X12612491Y-15378269D01*
X12612491Y-15378269D02*
X12612491Y-15425888D01*
X12612491Y-15425888D02*
X12602967Y-15444936D01*
X12602967Y-15444936D02*
X12593444Y-15454460D01*
X12593444Y-15454460D02*
X12574396Y-15463984D01*
X12574396Y-15463984D02*
X12517253Y-15463984D01*
X12517253Y-15463984D02*
X12498206Y-15454460D01*
X12498206Y-15454460D02*
X12488682Y-15444936D01*
X12707729Y-15463984D02*
X12745825Y-15463984D01*
X12745825Y-15463984D02*
X12764872Y-15454460D01*
X12764872Y-15454460D02*
X12774396Y-15444936D01*
X12774396Y-15444936D02*
X12793444Y-15416365D01*
X12793444Y-15416365D02*
X12802967Y-15378269D01*
X12802967Y-15378269D02*
X12802967Y-15302079D01*
X12802967Y-15302079D02*
X12793444Y-15283031D01*
X12793444Y-15283031D02*
X12783920Y-15273508D01*
X12783920Y-15273508D02*
X12764872Y-15263984D01*
X12764872Y-15263984D02*
X12726777Y-15263984D01*
X12726777Y-15263984D02*
X12707729Y-15273508D01*
X12707729Y-15273508D02*
X12698206Y-15283031D01*
X12698206Y-15283031D02*
X12688682Y-15302079D01*
X12688682Y-15302079D02*
X12688682Y-15349698D01*
X12688682Y-15349698D02*
X12698206Y-15368746D01*
X12698206Y-15368746D02*
X12707729Y-15378269D01*
X12707729Y-15378269D02*
X12726777Y-15387793D01*
X12726777Y-15387793D02*
X12764872Y-15387793D01*
X12764872Y-15387793D02*
X12783920Y-15378269D01*
X12783920Y-15378269D02*
X12793444Y-15368746D01*
X12793444Y-15368746D02*
X12802967Y-15349698D01*
X12974396Y-15330650D02*
X12974396Y-15463984D01*
X12926777Y-15254460D02*
X12879158Y-15397317D01*
X12879158Y-15397317D02*
X13002967Y-15397317D01*
X13069634Y-15263984D02*
X13069634Y-15302079D01*
X13145825Y-15263984D02*
X13145825Y-15302079D01*
X13441063Y-15540174D02*
X13431539Y-15530650D01*
X13431539Y-15530650D02*
X13412491Y-15502079D01*
X13412491Y-15502079D02*
X13402968Y-15483031D01*
X13402968Y-15483031D02*
X13393444Y-15454460D01*
X13393444Y-15454460D02*
X13383920Y-15406841D01*
X13383920Y-15406841D02*
X13383920Y-15368746D01*
X13383920Y-15368746D02*
X13393444Y-15321127D01*
X13393444Y-15321127D02*
X13402968Y-15292555D01*
X13402968Y-15292555D02*
X13412491Y-15273508D01*
X13412491Y-15273508D02*
X13431539Y-15244936D01*
X13431539Y-15244936D02*
X13441063Y-15235412D01*
X13545825Y-15349698D02*
X13526777Y-15340174D01*
X13526777Y-15340174D02*
X13517253Y-15330650D01*
X13517253Y-15330650D02*
X13507729Y-15311603D01*
X13507729Y-15311603D02*
X13507729Y-15302079D01*
X13507729Y-15302079D02*
X13517253Y-15283031D01*
X13517253Y-15283031D02*
X13526777Y-15273508D01*
X13526777Y-15273508D02*
X13545825Y-15263984D01*
X13545825Y-15263984D02*
X13583920Y-15263984D01*
X13583920Y-15263984D02*
X13602968Y-15273508D01*
X13602968Y-15273508D02*
X13612491Y-15283031D01*
X13612491Y-15283031D02*
X13622015Y-15302079D01*
X13622015Y-15302079D02*
X13622015Y-15311603D01*
X13622015Y-15311603D02*
X13612491Y-15330650D01*
X13612491Y-15330650D02*
X13602968Y-15340174D01*
X13602968Y-15340174D02*
X13583920Y-15349698D01*
X13583920Y-15349698D02*
X13545825Y-15349698D01*
X13545825Y-15349698D02*
X13526777Y-15359222D01*
X13526777Y-15359222D02*
X13517253Y-15368746D01*
X13517253Y-15368746D02*
X13507729Y-15387793D01*
X13507729Y-15387793D02*
X13507729Y-15425888D01*
X13507729Y-15425888D02*
X13517253Y-15444936D01*
X13517253Y-15444936D02*
X13526777Y-15454460D01*
X13526777Y-15454460D02*
X13545825Y-15463984D01*
X13545825Y-15463984D02*
X13583920Y-15463984D01*
X13583920Y-15463984D02*
X13602968Y-15454460D01*
X13602968Y-15454460D02*
X13612491Y-15444936D01*
X13612491Y-15444936D02*
X13622015Y-15425888D01*
X13622015Y-15425888D02*
X13622015Y-15387793D01*
X13622015Y-15387793D02*
X13612491Y-15368746D01*
X13612491Y-15368746D02*
X13602968Y-15359222D01*
X13602968Y-15359222D02*
X13583920Y-15349698D01*
X13860110Y-15463984D02*
X13860110Y-15263984D01*
X13945825Y-15463984D02*
X13945825Y-15359222D01*
X13945825Y-15359222D02*
X13936301Y-15340174D01*
X13936301Y-15340174D02*
X13917253Y-15330650D01*
X13917253Y-15330650D02*
X13888682Y-15330650D01*
X13888682Y-15330650D02*
X13869634Y-15340174D01*
X13869634Y-15340174D02*
X13860110Y-15349698D01*
X14069634Y-15463984D02*
X14050587Y-15454460D01*
X14050587Y-15454460D02*
X14041063Y-15444936D01*
X14041063Y-15444936D02*
X14031539Y-15425888D01*
X14031539Y-15425888D02*
X14031539Y-15368746D01*
X14031539Y-15368746D02*
X14041063Y-15349698D01*
X14041063Y-15349698D02*
X14050587Y-15340174D01*
X14050587Y-15340174D02*
X14069634Y-15330650D01*
X14069634Y-15330650D02*
X14098206Y-15330650D01*
X14098206Y-15330650D02*
X14117253Y-15340174D01*
X14117253Y-15340174D02*
X14126777Y-15349698D01*
X14126777Y-15349698D02*
X14136301Y-15368746D01*
X14136301Y-15368746D02*
X14136301Y-15425888D01*
X14136301Y-15425888D02*
X14126777Y-15444936D01*
X14126777Y-15444936D02*
X14117253Y-15454460D01*
X14117253Y-15454460D02*
X14098206Y-15463984D01*
X14098206Y-15463984D02*
X14069634Y-15463984D01*
X14250587Y-15463984D02*
X14231539Y-15454460D01*
X14231539Y-15454460D02*
X14222015Y-15435412D01*
X14222015Y-15435412D02*
X14222015Y-15263984D01*
X14402968Y-15454460D02*
X14383920Y-15463984D01*
X14383920Y-15463984D02*
X14345825Y-15463984D01*
X14345825Y-15463984D02*
X14326777Y-15454460D01*
X14326777Y-15454460D02*
X14317253Y-15435412D01*
X14317253Y-15435412D02*
X14317253Y-15359222D01*
X14317253Y-15359222D02*
X14326777Y-15340174D01*
X14326777Y-15340174D02*
X14345825Y-15330650D01*
X14345825Y-15330650D02*
X14383920Y-15330650D01*
X14383920Y-15330650D02*
X14402968Y-15340174D01*
X14402968Y-15340174D02*
X14412491Y-15359222D01*
X14412491Y-15359222D02*
X14412491Y-15378269D01*
X14412491Y-15378269D02*
X14317253Y-15397317D01*
X14488682Y-15454460D02*
X14507730Y-15463984D01*
X14507730Y-15463984D02*
X14545825Y-15463984D01*
X14545825Y-15463984D02*
X14564872Y-15454460D01*
X14564872Y-15454460D02*
X14574396Y-15435412D01*
X14574396Y-15435412D02*
X14574396Y-15425888D01*
X14574396Y-15425888D02*
X14564872Y-15406841D01*
X14564872Y-15406841D02*
X14545825Y-15397317D01*
X14545825Y-15397317D02*
X14517253Y-15397317D01*
X14517253Y-15397317D02*
X14498206Y-15387793D01*
X14498206Y-15387793D02*
X14488682Y-15368746D01*
X14488682Y-15368746D02*
X14488682Y-15359222D01*
X14488682Y-15359222D02*
X14498206Y-15340174D01*
X14498206Y-15340174D02*
X14517253Y-15330650D01*
X14517253Y-15330650D02*
X14545825Y-15330650D01*
X14545825Y-15330650D02*
X14564872Y-15340174D01*
X14641063Y-15540174D02*
X14650587Y-15530650D01*
X14650587Y-15530650D02*
X14669634Y-15502079D01*
X14669634Y-15502079D02*
X14679158Y-15483031D01*
X14679158Y-15483031D02*
X14688682Y-15454460D01*
X14688682Y-15454460D02*
X14698206Y-15406841D01*
X14698206Y-15406841D02*
X14698206Y-15368746D01*
X14698206Y-15368746D02*
X14688682Y-15321127D01*
X14688682Y-15321127D02*
X14679158Y-15292555D01*
X14679158Y-15292555D02*
X14669634Y-15273508D01*
X14669634Y-15273508D02*
X14650587Y-15244936D01*
X14650587Y-15244936D02*
X14641063Y-15235412D01*
D13*
X9801000Y-15701500D02*
X9866000Y-15636500D01*
X9801000Y-15571500D01*
X9736000Y-15636500D01*
X9801000Y-15701500D01*
D11*
X10231539Y-15727984D02*
X10117253Y-15727984D01*
X10174396Y-15727984D02*
X10174396Y-15527984D01*
X10174396Y-15527984D02*
X10155348Y-15556555D01*
X10155348Y-15556555D02*
X10136301Y-15575603D01*
X10136301Y-15575603D02*
X10117253Y-15585127D01*
X10317253Y-15708936D02*
X10326777Y-15718460D01*
X10326777Y-15718460D02*
X10317253Y-15727984D01*
X10317253Y-15727984D02*
X10307729Y-15718460D01*
X10307729Y-15718460D02*
X10317253Y-15708936D01*
X10317253Y-15708936D02*
X10317253Y-15727984D01*
X10393444Y-15527984D02*
X10517253Y-15527984D01*
X10517253Y-15527984D02*
X10450586Y-15604174D01*
X10450586Y-15604174D02*
X10479158Y-15604174D01*
X10479158Y-15604174D02*
X10498205Y-15613698D01*
X10498205Y-15613698D02*
X10507729Y-15623222D01*
X10507729Y-15623222D02*
X10517253Y-15642269D01*
X10517253Y-15642269D02*
X10517253Y-15689888D01*
X10517253Y-15689888D02*
X10507729Y-15708936D01*
X10507729Y-15708936D02*
X10498205Y-15718460D01*
X10498205Y-15718460D02*
X10479158Y-15727984D01*
X10479158Y-15727984D02*
X10422015Y-15727984D01*
X10422015Y-15727984D02*
X10402967Y-15718460D01*
X10402967Y-15718460D02*
X10393444Y-15708936D01*
X10641063Y-15527984D02*
X10660110Y-15527984D01*
X10660110Y-15527984D02*
X10679158Y-15537508D01*
X10679158Y-15537508D02*
X10688682Y-15547031D01*
X10688682Y-15547031D02*
X10698205Y-15566079D01*
X10698205Y-15566079D02*
X10707729Y-15604174D01*
X10707729Y-15604174D02*
X10707729Y-15651793D01*
X10707729Y-15651793D02*
X10698205Y-15689888D01*
X10698205Y-15689888D02*
X10688682Y-15708936D01*
X10688682Y-15708936D02*
X10679158Y-15718460D01*
X10679158Y-15718460D02*
X10660110Y-15727984D01*
X10660110Y-15727984D02*
X10641063Y-15727984D01*
X10641063Y-15727984D02*
X10622015Y-15718460D01*
X10622015Y-15718460D02*
X10612491Y-15708936D01*
X10612491Y-15708936D02*
X10602967Y-15689888D01*
X10602967Y-15689888D02*
X10593444Y-15651793D01*
X10593444Y-15651793D02*
X10593444Y-15604174D01*
X10593444Y-15604174D02*
X10602967Y-15566079D01*
X10602967Y-15566079D02*
X10612491Y-15547031D01*
X10612491Y-15547031D02*
X10622015Y-15537508D01*
X10622015Y-15537508D02*
X10641063Y-15527984D01*
X10831539Y-15527984D02*
X10850586Y-15527984D01*
X10850586Y-15527984D02*
X10869634Y-15537508D01*
X10869634Y-15537508D02*
X10879158Y-15547031D01*
X10879158Y-15547031D02*
X10888682Y-15566079D01*
X10888682Y-15566079D02*
X10898205Y-15604174D01*
X10898205Y-15604174D02*
X10898205Y-15651793D01*
X10898205Y-15651793D02*
X10888682Y-15689888D01*
X10888682Y-15689888D02*
X10879158Y-15708936D01*
X10879158Y-15708936D02*
X10869634Y-15718460D01*
X10869634Y-15718460D02*
X10850586Y-15727984D01*
X10850586Y-15727984D02*
X10831539Y-15727984D01*
X10831539Y-15727984D02*
X10812491Y-15718460D01*
X10812491Y-15718460D02*
X10802967Y-15708936D01*
X10802967Y-15708936D02*
X10793444Y-15689888D01*
X10793444Y-15689888D02*
X10783920Y-15651793D01*
X10783920Y-15651793D02*
X10783920Y-15604174D01*
X10783920Y-15604174D02*
X10793444Y-15566079D01*
X10793444Y-15566079D02*
X10802967Y-15547031D01*
X10802967Y-15547031D02*
X10812491Y-15537508D01*
X10812491Y-15537508D02*
X10831539Y-15527984D01*
X10983920Y-15727984D02*
X10983920Y-15594650D01*
X10983920Y-15613698D02*
X10993444Y-15604174D01*
X10993444Y-15604174D02*
X11012491Y-15594650D01*
X11012491Y-15594650D02*
X11041063Y-15594650D01*
X11041063Y-15594650D02*
X11060110Y-15604174D01*
X11060110Y-15604174D02*
X11069634Y-15623222D01*
X11069634Y-15623222D02*
X11069634Y-15727984D01*
X11069634Y-15623222D02*
X11079158Y-15604174D01*
X11079158Y-15604174D02*
X11098205Y-15594650D01*
X11098205Y-15594650D02*
X11126777Y-15594650D01*
X11126777Y-15594650D02*
X11145825Y-15604174D01*
X11145825Y-15604174D02*
X11155348Y-15623222D01*
X11155348Y-15623222D02*
X11155348Y-15727984D01*
X11250586Y-15727984D02*
X11250586Y-15594650D01*
X11250586Y-15613698D02*
X11260110Y-15604174D01*
X11260110Y-15604174D02*
X11279158Y-15594650D01*
X11279158Y-15594650D02*
X11307729Y-15594650D01*
X11307729Y-15594650D02*
X11326777Y-15604174D01*
X11326777Y-15604174D02*
X11336301Y-15623222D01*
X11336301Y-15623222D02*
X11336301Y-15727984D01*
X11336301Y-15623222D02*
X11345824Y-15604174D01*
X11345824Y-15604174D02*
X11364872Y-15594650D01*
X11364872Y-15594650D02*
X11393443Y-15594650D01*
X11393443Y-15594650D02*
X11412491Y-15604174D01*
X11412491Y-15604174D02*
X11422015Y-15623222D01*
X11422015Y-15623222D02*
X11422015Y-15727984D01*
X11812491Y-15518460D02*
X11641063Y-15775603D01*
X12069634Y-15527984D02*
X12088682Y-15527984D01*
X12088682Y-15527984D02*
X12107729Y-15537508D01*
X12107729Y-15537508D02*
X12117253Y-15547031D01*
X12117253Y-15547031D02*
X12126777Y-15566079D01*
X12126777Y-15566079D02*
X12136301Y-15604174D01*
X12136301Y-15604174D02*
X12136301Y-15651793D01*
X12136301Y-15651793D02*
X12126777Y-15689888D01*
X12126777Y-15689888D02*
X12117253Y-15708936D01*
X12117253Y-15708936D02*
X12107729Y-15718460D01*
X12107729Y-15718460D02*
X12088682Y-15727984D01*
X12088682Y-15727984D02*
X12069634Y-15727984D01*
X12069634Y-15727984D02*
X12050586Y-15718460D01*
X12050586Y-15718460D02*
X12041063Y-15708936D01*
X12041063Y-15708936D02*
X12031539Y-15689888D01*
X12031539Y-15689888D02*
X12022015Y-15651793D01*
X12022015Y-15651793D02*
X12022015Y-15604174D01*
X12022015Y-15604174D02*
X12031539Y-15566079D01*
X12031539Y-15566079D02*
X12041063Y-15547031D01*
X12041063Y-15547031D02*
X12050586Y-15537508D01*
X12050586Y-15537508D02*
X12069634Y-15527984D01*
X12222015Y-15708936D02*
X12231539Y-15718460D01*
X12231539Y-15718460D02*
X12222015Y-15727984D01*
X12222015Y-15727984D02*
X12212491Y-15718460D01*
X12212491Y-15718460D02*
X12222015Y-15708936D01*
X12222015Y-15708936D02*
X12222015Y-15727984D01*
X12355348Y-15527984D02*
X12374396Y-15527984D01*
X12374396Y-15527984D02*
X12393444Y-15537508D01*
X12393444Y-15537508D02*
X12402967Y-15547031D01*
X12402967Y-15547031D02*
X12412491Y-15566079D01*
X12412491Y-15566079D02*
X12422015Y-15604174D01*
X12422015Y-15604174D02*
X12422015Y-15651793D01*
X12422015Y-15651793D02*
X12412491Y-15689888D01*
X12412491Y-15689888D02*
X12402967Y-15708936D01*
X12402967Y-15708936D02*
X12393444Y-15718460D01*
X12393444Y-15718460D02*
X12374396Y-15727984D01*
X12374396Y-15727984D02*
X12355348Y-15727984D01*
X12355348Y-15727984D02*
X12336301Y-15718460D01*
X12336301Y-15718460D02*
X12326777Y-15708936D01*
X12326777Y-15708936D02*
X12317253Y-15689888D01*
X12317253Y-15689888D02*
X12307729Y-15651793D01*
X12307729Y-15651793D02*
X12307729Y-15604174D01*
X12307729Y-15604174D02*
X12317253Y-15566079D01*
X12317253Y-15566079D02*
X12326777Y-15547031D01*
X12326777Y-15547031D02*
X12336301Y-15537508D01*
X12336301Y-15537508D02*
X12355348Y-15527984D01*
X12602967Y-15527984D02*
X12507729Y-15527984D01*
X12507729Y-15527984D02*
X12498206Y-15623222D01*
X12498206Y-15623222D02*
X12507729Y-15613698D01*
X12507729Y-15613698D02*
X12526777Y-15604174D01*
X12526777Y-15604174D02*
X12574396Y-15604174D01*
X12574396Y-15604174D02*
X12593444Y-15613698D01*
X12593444Y-15613698D02*
X12602967Y-15623222D01*
X12602967Y-15623222D02*
X12612491Y-15642269D01*
X12612491Y-15642269D02*
X12612491Y-15689888D01*
X12612491Y-15689888D02*
X12602967Y-15708936D01*
X12602967Y-15708936D02*
X12593444Y-15718460D01*
X12593444Y-15718460D02*
X12574396Y-15727984D01*
X12574396Y-15727984D02*
X12526777Y-15727984D01*
X12526777Y-15727984D02*
X12507729Y-15718460D01*
X12507729Y-15718460D02*
X12498206Y-15708936D01*
X12802967Y-15727984D02*
X12688682Y-15727984D01*
X12745825Y-15727984D02*
X12745825Y-15527984D01*
X12745825Y-15527984D02*
X12726777Y-15556555D01*
X12726777Y-15556555D02*
X12707729Y-15575603D01*
X12707729Y-15575603D02*
X12688682Y-15585127D01*
X12879158Y-15547031D02*
X12888682Y-15537508D01*
X12888682Y-15537508D02*
X12907729Y-15527984D01*
X12907729Y-15527984D02*
X12955348Y-15527984D01*
X12955348Y-15527984D02*
X12974396Y-15537508D01*
X12974396Y-15537508D02*
X12983920Y-15547031D01*
X12983920Y-15547031D02*
X12993444Y-15566079D01*
X12993444Y-15566079D02*
X12993444Y-15585127D01*
X12993444Y-15585127D02*
X12983920Y-15613698D01*
X12983920Y-15613698D02*
X12869634Y-15727984D01*
X12869634Y-15727984D02*
X12993444Y-15727984D01*
X13069634Y-15527984D02*
X13069634Y-15566079D01*
X13145825Y-15527984D02*
X13145825Y-15566079D01*
X13441063Y-15804174D02*
X13431539Y-15794650D01*
X13431539Y-15794650D02*
X13412491Y-15766079D01*
X13412491Y-15766079D02*
X13402968Y-15747031D01*
X13402968Y-15747031D02*
X13393444Y-15718460D01*
X13393444Y-15718460D02*
X13383920Y-15670841D01*
X13383920Y-15670841D02*
X13383920Y-15632746D01*
X13383920Y-15632746D02*
X13393444Y-15585127D01*
X13393444Y-15585127D02*
X13402968Y-15556555D01*
X13402968Y-15556555D02*
X13412491Y-15537508D01*
X13412491Y-15537508D02*
X13431539Y-15508936D01*
X13431539Y-15508936D02*
X13441063Y-15499412D01*
X13602968Y-15594650D02*
X13602968Y-15727984D01*
X13555348Y-15518460D02*
X13507729Y-15661317D01*
X13507729Y-15661317D02*
X13631539Y-15661317D01*
X13745825Y-15527984D02*
X13764872Y-15527984D01*
X13764872Y-15527984D02*
X13783920Y-15537508D01*
X13783920Y-15537508D02*
X13793444Y-15547031D01*
X13793444Y-15547031D02*
X13802968Y-15566079D01*
X13802968Y-15566079D02*
X13812491Y-15604174D01*
X13812491Y-15604174D02*
X13812491Y-15651793D01*
X13812491Y-15651793D02*
X13802968Y-15689888D01*
X13802968Y-15689888D02*
X13793444Y-15708936D01*
X13793444Y-15708936D02*
X13783920Y-15718460D01*
X13783920Y-15718460D02*
X13764872Y-15727984D01*
X13764872Y-15727984D02*
X13745825Y-15727984D01*
X13745825Y-15727984D02*
X13726777Y-15718460D01*
X13726777Y-15718460D02*
X13717253Y-15708936D01*
X13717253Y-15708936D02*
X13707729Y-15689888D01*
X13707729Y-15689888D02*
X13698206Y-15651793D01*
X13698206Y-15651793D02*
X13698206Y-15604174D01*
X13698206Y-15604174D02*
X13707729Y-15566079D01*
X13707729Y-15566079D02*
X13717253Y-15547031D01*
X13717253Y-15547031D02*
X13726777Y-15537508D01*
X13726777Y-15537508D02*
X13745825Y-15527984D01*
X14050587Y-15727984D02*
X14050587Y-15527984D01*
X14136301Y-15727984D02*
X14136301Y-15623222D01*
X14136301Y-15623222D02*
X14126777Y-15604174D01*
X14126777Y-15604174D02*
X14107730Y-15594650D01*
X14107730Y-15594650D02*
X14079158Y-15594650D01*
X14079158Y-15594650D02*
X14060110Y-15604174D01*
X14060110Y-15604174D02*
X14050587Y-15613698D01*
X14260110Y-15727984D02*
X14241063Y-15718460D01*
X14241063Y-15718460D02*
X14231539Y-15708936D01*
X14231539Y-15708936D02*
X14222015Y-15689888D01*
X14222015Y-15689888D02*
X14222015Y-15632746D01*
X14222015Y-15632746D02*
X14231539Y-15613698D01*
X14231539Y-15613698D02*
X14241063Y-15604174D01*
X14241063Y-15604174D02*
X14260110Y-15594650D01*
X14260110Y-15594650D02*
X14288682Y-15594650D01*
X14288682Y-15594650D02*
X14307730Y-15604174D01*
X14307730Y-15604174D02*
X14317253Y-15613698D01*
X14317253Y-15613698D02*
X14326777Y-15632746D01*
X14326777Y-15632746D02*
X14326777Y-15689888D01*
X14326777Y-15689888D02*
X14317253Y-15708936D01*
X14317253Y-15708936D02*
X14307730Y-15718460D01*
X14307730Y-15718460D02*
X14288682Y-15727984D01*
X14288682Y-15727984D02*
X14260110Y-15727984D01*
X14441063Y-15727984D02*
X14422015Y-15718460D01*
X14422015Y-15718460D02*
X14412491Y-15699412D01*
X14412491Y-15699412D02*
X14412491Y-15527984D01*
X14593444Y-15718460D02*
X14574396Y-15727984D01*
X14574396Y-15727984D02*
X14536301Y-15727984D01*
X14536301Y-15727984D02*
X14517253Y-15718460D01*
X14517253Y-15718460D02*
X14507730Y-15699412D01*
X14507730Y-15699412D02*
X14507730Y-15623222D01*
X14507730Y-15623222D02*
X14517253Y-15604174D01*
X14517253Y-15604174D02*
X14536301Y-15594650D01*
X14536301Y-15594650D02*
X14574396Y-15594650D01*
X14574396Y-15594650D02*
X14593444Y-15604174D01*
X14593444Y-15604174D02*
X14602968Y-15623222D01*
X14602968Y-15623222D02*
X14602968Y-15642269D01*
X14602968Y-15642269D02*
X14507730Y-15661317D01*
X14679158Y-15718460D02*
X14698206Y-15727984D01*
X14698206Y-15727984D02*
X14736301Y-15727984D01*
X14736301Y-15727984D02*
X14755349Y-15718460D01*
X14755349Y-15718460D02*
X14764872Y-15699412D01*
X14764872Y-15699412D02*
X14764872Y-15689888D01*
X14764872Y-15689888D02*
X14755349Y-15670841D01*
X14755349Y-15670841D02*
X14736301Y-15661317D01*
X14736301Y-15661317D02*
X14707730Y-15661317D01*
X14707730Y-15661317D02*
X14688682Y-15651793D01*
X14688682Y-15651793D02*
X14679158Y-15632746D01*
X14679158Y-15632746D02*
X14679158Y-15623222D01*
X14679158Y-15623222D02*
X14688682Y-15604174D01*
X14688682Y-15604174D02*
X14707730Y-15594650D01*
X14707730Y-15594650D02*
X14736301Y-15594650D01*
X14736301Y-15594650D02*
X14755349Y-15604174D01*
X14831539Y-15804174D02*
X14841063Y-15794650D01*
X14841063Y-15794650D02*
X14860111Y-15766079D01*
X14860111Y-15766079D02*
X14869634Y-15747031D01*
X14869634Y-15747031D02*
X14879158Y-15718460D01*
X14879158Y-15718460D02*
X14888682Y-15670841D01*
X14888682Y-15670841D02*
X14888682Y-15632746D01*
X14888682Y-15632746D02*
X14879158Y-15585127D01*
X14879158Y-15585127D02*
X14869634Y-15556555D01*
X14869634Y-15556555D02*
X14860111Y-15537508D01*
X14860111Y-15537508D02*
X14841063Y-15508936D01*
X14841063Y-15508936D02*
X14831539Y-15499412D01*
D14*
X9696000Y-15815500D02*
X9866000Y-15985500D01*
X9866000Y-15815500D02*
X9696000Y-15985500D01*
X9866000Y-15900500D02*
G75*
G02*
X9696000Y-15900500I-85000J0D01*
G01*
X9696000Y-15900500D02*
G75*
G02*
X9866000Y-15900500I85000J0D01*
G01*
D11*
X10231539Y-15991984D02*
X10117253Y-15991984D01*
X10174396Y-15991984D02*
X10174396Y-15791984D01*
X10174396Y-15791984D02*
X10155348Y-15820555D01*
X10155348Y-15820555D02*
X10136301Y-15839603D01*
X10136301Y-15839603D02*
X10117253Y-15849127D01*
X10317253Y-15972936D02*
X10326777Y-15982460D01*
X10326777Y-15982460D02*
X10317253Y-15991984D01*
X10317253Y-15991984D02*
X10307729Y-15982460D01*
X10307729Y-15982460D02*
X10317253Y-15972936D01*
X10317253Y-15972936D02*
X10317253Y-15991984D01*
X10393444Y-15791984D02*
X10526777Y-15791984D01*
X10526777Y-15791984D02*
X10441063Y-15991984D01*
X10641063Y-15791984D02*
X10660110Y-15791984D01*
X10660110Y-15791984D02*
X10679158Y-15801508D01*
X10679158Y-15801508D02*
X10688682Y-15811031D01*
X10688682Y-15811031D02*
X10698205Y-15830079D01*
X10698205Y-15830079D02*
X10707729Y-15868174D01*
X10707729Y-15868174D02*
X10707729Y-15915793D01*
X10707729Y-15915793D02*
X10698205Y-15953888D01*
X10698205Y-15953888D02*
X10688682Y-15972936D01*
X10688682Y-15972936D02*
X10679158Y-15982460D01*
X10679158Y-15982460D02*
X10660110Y-15991984D01*
X10660110Y-15991984D02*
X10641063Y-15991984D01*
X10641063Y-15991984D02*
X10622015Y-15982460D01*
X10622015Y-15982460D02*
X10612491Y-15972936D01*
X10612491Y-15972936D02*
X10602967Y-15953888D01*
X10602967Y-15953888D02*
X10593444Y-15915793D01*
X10593444Y-15915793D02*
X10593444Y-15868174D01*
X10593444Y-15868174D02*
X10602967Y-15830079D01*
X10602967Y-15830079D02*
X10612491Y-15811031D01*
X10612491Y-15811031D02*
X10622015Y-15801508D01*
X10622015Y-15801508D02*
X10641063Y-15791984D01*
X10831539Y-15791984D02*
X10850586Y-15791984D01*
X10850586Y-15791984D02*
X10869634Y-15801508D01*
X10869634Y-15801508D02*
X10879158Y-15811031D01*
X10879158Y-15811031D02*
X10888682Y-15830079D01*
X10888682Y-15830079D02*
X10898205Y-15868174D01*
X10898205Y-15868174D02*
X10898205Y-15915793D01*
X10898205Y-15915793D02*
X10888682Y-15953888D01*
X10888682Y-15953888D02*
X10879158Y-15972936D01*
X10879158Y-15972936D02*
X10869634Y-15982460D01*
X10869634Y-15982460D02*
X10850586Y-15991984D01*
X10850586Y-15991984D02*
X10831539Y-15991984D01*
X10831539Y-15991984D02*
X10812491Y-15982460D01*
X10812491Y-15982460D02*
X10802967Y-15972936D01*
X10802967Y-15972936D02*
X10793444Y-15953888D01*
X10793444Y-15953888D02*
X10783920Y-15915793D01*
X10783920Y-15915793D02*
X10783920Y-15868174D01*
X10783920Y-15868174D02*
X10793444Y-15830079D01*
X10793444Y-15830079D02*
X10802967Y-15811031D01*
X10802967Y-15811031D02*
X10812491Y-15801508D01*
X10812491Y-15801508D02*
X10831539Y-15791984D01*
X10983920Y-15991984D02*
X10983920Y-15858650D01*
X10983920Y-15877698D02*
X10993444Y-15868174D01*
X10993444Y-15868174D02*
X11012491Y-15858650D01*
X11012491Y-15858650D02*
X11041063Y-15858650D01*
X11041063Y-15858650D02*
X11060110Y-15868174D01*
X11060110Y-15868174D02*
X11069634Y-15887222D01*
X11069634Y-15887222D02*
X11069634Y-15991984D01*
X11069634Y-15887222D02*
X11079158Y-15868174D01*
X11079158Y-15868174D02*
X11098205Y-15858650D01*
X11098205Y-15858650D02*
X11126777Y-15858650D01*
X11126777Y-15858650D02*
X11145825Y-15868174D01*
X11145825Y-15868174D02*
X11155348Y-15887222D01*
X11155348Y-15887222D02*
X11155348Y-15991984D01*
X11250586Y-15991984D02*
X11250586Y-15858650D01*
X11250586Y-15877698D02*
X11260110Y-15868174D01*
X11260110Y-15868174D02*
X11279158Y-15858650D01*
X11279158Y-15858650D02*
X11307729Y-15858650D01*
X11307729Y-15858650D02*
X11326777Y-15868174D01*
X11326777Y-15868174D02*
X11336301Y-15887222D01*
X11336301Y-15887222D02*
X11336301Y-15991984D01*
X11336301Y-15887222D02*
X11345824Y-15868174D01*
X11345824Y-15868174D02*
X11364872Y-15858650D01*
X11364872Y-15858650D02*
X11393443Y-15858650D01*
X11393443Y-15858650D02*
X11412491Y-15868174D01*
X11412491Y-15868174D02*
X11422015Y-15887222D01*
X11422015Y-15887222D02*
X11422015Y-15991984D01*
X11812491Y-15782460D02*
X11641063Y-16039603D01*
X12069634Y-15791984D02*
X12088682Y-15791984D01*
X12088682Y-15791984D02*
X12107729Y-15801508D01*
X12107729Y-15801508D02*
X12117253Y-15811031D01*
X12117253Y-15811031D02*
X12126777Y-15830079D01*
X12126777Y-15830079D02*
X12136301Y-15868174D01*
X12136301Y-15868174D02*
X12136301Y-15915793D01*
X12136301Y-15915793D02*
X12126777Y-15953888D01*
X12126777Y-15953888D02*
X12117253Y-15972936D01*
X12117253Y-15972936D02*
X12107729Y-15982460D01*
X12107729Y-15982460D02*
X12088682Y-15991984D01*
X12088682Y-15991984D02*
X12069634Y-15991984D01*
X12069634Y-15991984D02*
X12050586Y-15982460D01*
X12050586Y-15982460D02*
X12041063Y-15972936D01*
X12041063Y-15972936D02*
X12031539Y-15953888D01*
X12031539Y-15953888D02*
X12022015Y-15915793D01*
X12022015Y-15915793D02*
X12022015Y-15868174D01*
X12022015Y-15868174D02*
X12031539Y-15830079D01*
X12031539Y-15830079D02*
X12041063Y-15811031D01*
X12041063Y-15811031D02*
X12050586Y-15801508D01*
X12050586Y-15801508D02*
X12069634Y-15791984D01*
X12222015Y-15972936D02*
X12231539Y-15982460D01*
X12231539Y-15982460D02*
X12222015Y-15991984D01*
X12222015Y-15991984D02*
X12212491Y-15982460D01*
X12212491Y-15982460D02*
X12222015Y-15972936D01*
X12222015Y-15972936D02*
X12222015Y-15991984D01*
X12355348Y-15791984D02*
X12374396Y-15791984D01*
X12374396Y-15791984D02*
X12393444Y-15801508D01*
X12393444Y-15801508D02*
X12402967Y-15811031D01*
X12402967Y-15811031D02*
X12412491Y-15830079D01*
X12412491Y-15830079D02*
X12422015Y-15868174D01*
X12422015Y-15868174D02*
X12422015Y-15915793D01*
X12422015Y-15915793D02*
X12412491Y-15953888D01*
X12412491Y-15953888D02*
X12402967Y-15972936D01*
X12402967Y-15972936D02*
X12393444Y-15982460D01*
X12393444Y-15982460D02*
X12374396Y-15991984D01*
X12374396Y-15991984D02*
X12355348Y-15991984D01*
X12355348Y-15991984D02*
X12336301Y-15982460D01*
X12336301Y-15982460D02*
X12326777Y-15972936D01*
X12326777Y-15972936D02*
X12317253Y-15953888D01*
X12317253Y-15953888D02*
X12307729Y-15915793D01*
X12307729Y-15915793D02*
X12307729Y-15868174D01*
X12307729Y-15868174D02*
X12317253Y-15830079D01*
X12317253Y-15830079D02*
X12326777Y-15811031D01*
X12326777Y-15811031D02*
X12336301Y-15801508D01*
X12336301Y-15801508D02*
X12355348Y-15791984D01*
X12593444Y-15791984D02*
X12555348Y-15791984D01*
X12555348Y-15791984D02*
X12536301Y-15801508D01*
X12536301Y-15801508D02*
X12526777Y-15811031D01*
X12526777Y-15811031D02*
X12507729Y-15839603D01*
X12507729Y-15839603D02*
X12498206Y-15877698D01*
X12498206Y-15877698D02*
X12498206Y-15953888D01*
X12498206Y-15953888D02*
X12507729Y-15972936D01*
X12507729Y-15972936D02*
X12517253Y-15982460D01*
X12517253Y-15982460D02*
X12536301Y-15991984D01*
X12536301Y-15991984D02*
X12574396Y-15991984D01*
X12574396Y-15991984D02*
X12593444Y-15982460D01*
X12593444Y-15982460D02*
X12602967Y-15972936D01*
X12602967Y-15972936D02*
X12612491Y-15953888D01*
X12612491Y-15953888D02*
X12612491Y-15906269D01*
X12612491Y-15906269D02*
X12602967Y-15887222D01*
X12602967Y-15887222D02*
X12593444Y-15877698D01*
X12593444Y-15877698D02*
X12574396Y-15868174D01*
X12574396Y-15868174D02*
X12536301Y-15868174D01*
X12536301Y-15868174D02*
X12517253Y-15877698D01*
X12517253Y-15877698D02*
X12507729Y-15887222D01*
X12507729Y-15887222D02*
X12498206Y-15906269D01*
X12783920Y-15791984D02*
X12745825Y-15791984D01*
X12745825Y-15791984D02*
X12726777Y-15801508D01*
X12726777Y-15801508D02*
X12717253Y-15811031D01*
X12717253Y-15811031D02*
X12698206Y-15839603D01*
X12698206Y-15839603D02*
X12688682Y-15877698D01*
X12688682Y-15877698D02*
X12688682Y-15953888D01*
X12688682Y-15953888D02*
X12698206Y-15972936D01*
X12698206Y-15972936D02*
X12707729Y-15982460D01*
X12707729Y-15982460D02*
X12726777Y-15991984D01*
X12726777Y-15991984D02*
X12764872Y-15991984D01*
X12764872Y-15991984D02*
X12783920Y-15982460D01*
X12783920Y-15982460D02*
X12793444Y-15972936D01*
X12793444Y-15972936D02*
X12802967Y-15953888D01*
X12802967Y-15953888D02*
X12802967Y-15906269D01*
X12802967Y-15906269D02*
X12793444Y-15887222D01*
X12793444Y-15887222D02*
X12783920Y-15877698D01*
X12783920Y-15877698D02*
X12764872Y-15868174D01*
X12764872Y-15868174D02*
X12726777Y-15868174D01*
X12726777Y-15868174D02*
X12707729Y-15877698D01*
X12707729Y-15877698D02*
X12698206Y-15887222D01*
X12698206Y-15887222D02*
X12688682Y-15906269D01*
X12898206Y-15991984D02*
X12936301Y-15991984D01*
X12936301Y-15991984D02*
X12955348Y-15982460D01*
X12955348Y-15982460D02*
X12964872Y-15972936D01*
X12964872Y-15972936D02*
X12983920Y-15944365D01*
X12983920Y-15944365D02*
X12993444Y-15906269D01*
X12993444Y-15906269D02*
X12993444Y-15830079D01*
X12993444Y-15830079D02*
X12983920Y-15811031D01*
X12983920Y-15811031D02*
X12974396Y-15801508D01*
X12974396Y-15801508D02*
X12955348Y-15791984D01*
X12955348Y-15791984D02*
X12917253Y-15791984D01*
X12917253Y-15791984D02*
X12898206Y-15801508D01*
X12898206Y-15801508D02*
X12888682Y-15811031D01*
X12888682Y-15811031D02*
X12879158Y-15830079D01*
X12879158Y-15830079D02*
X12879158Y-15877698D01*
X12879158Y-15877698D02*
X12888682Y-15896746D01*
X12888682Y-15896746D02*
X12898206Y-15906269D01*
X12898206Y-15906269D02*
X12917253Y-15915793D01*
X12917253Y-15915793D02*
X12955348Y-15915793D01*
X12955348Y-15915793D02*
X12974396Y-15906269D01*
X12974396Y-15906269D02*
X12983920Y-15896746D01*
X12983920Y-15896746D02*
X12993444Y-15877698D01*
X13069634Y-15791984D02*
X13069634Y-15830079D01*
X13145825Y-15791984D02*
X13145825Y-15830079D01*
X13441063Y-16068174D02*
X13431539Y-16058650D01*
X13431539Y-16058650D02*
X13412491Y-16030079D01*
X13412491Y-16030079D02*
X13402968Y-16011031D01*
X13402968Y-16011031D02*
X13393444Y-15982460D01*
X13393444Y-15982460D02*
X13383920Y-15934841D01*
X13383920Y-15934841D02*
X13383920Y-15896746D01*
X13383920Y-15896746D02*
X13393444Y-15849127D01*
X13393444Y-15849127D02*
X13402968Y-15820555D01*
X13402968Y-15820555D02*
X13412491Y-15801508D01*
X13412491Y-15801508D02*
X13431539Y-15772936D01*
X13431539Y-15772936D02*
X13441063Y-15763412D01*
X13507729Y-15811031D02*
X13517253Y-15801508D01*
X13517253Y-15801508D02*
X13536301Y-15791984D01*
X13536301Y-15791984D02*
X13583920Y-15791984D01*
X13583920Y-15791984D02*
X13602968Y-15801508D01*
X13602968Y-15801508D02*
X13612491Y-15811031D01*
X13612491Y-15811031D02*
X13622015Y-15830079D01*
X13622015Y-15830079D02*
X13622015Y-15849127D01*
X13622015Y-15849127D02*
X13612491Y-15877698D01*
X13612491Y-15877698D02*
X13498206Y-15991984D01*
X13498206Y-15991984D02*
X13622015Y-15991984D01*
X13793444Y-15791984D02*
X13755348Y-15791984D01*
X13755348Y-15791984D02*
X13736301Y-15801508D01*
X13736301Y-15801508D02*
X13726777Y-15811031D01*
X13726777Y-15811031D02*
X13707729Y-15839603D01*
X13707729Y-15839603D02*
X13698206Y-15877698D01*
X13698206Y-15877698D02*
X13698206Y-15953888D01*
X13698206Y-15953888D02*
X13707729Y-15972936D01*
X13707729Y-15972936D02*
X13717253Y-15982460D01*
X13717253Y-15982460D02*
X13736301Y-15991984D01*
X13736301Y-15991984D02*
X13774396Y-15991984D01*
X13774396Y-15991984D02*
X13793444Y-15982460D01*
X13793444Y-15982460D02*
X13802968Y-15972936D01*
X13802968Y-15972936D02*
X13812491Y-15953888D01*
X13812491Y-15953888D02*
X13812491Y-15906269D01*
X13812491Y-15906269D02*
X13802968Y-15887222D01*
X13802968Y-15887222D02*
X13793444Y-15877698D01*
X13793444Y-15877698D02*
X13774396Y-15868174D01*
X13774396Y-15868174D02*
X13736301Y-15868174D01*
X13736301Y-15868174D02*
X13717253Y-15877698D01*
X13717253Y-15877698D02*
X13707729Y-15887222D01*
X13707729Y-15887222D02*
X13698206Y-15906269D01*
X14050587Y-15991984D02*
X14050587Y-15791984D01*
X14136301Y-15991984D02*
X14136301Y-15887222D01*
X14136301Y-15887222D02*
X14126777Y-15868174D01*
X14126777Y-15868174D02*
X14107730Y-15858650D01*
X14107730Y-15858650D02*
X14079158Y-15858650D01*
X14079158Y-15858650D02*
X14060110Y-15868174D01*
X14060110Y-15868174D02*
X14050587Y-15877698D01*
X14260110Y-15991984D02*
X14241063Y-15982460D01*
X14241063Y-15982460D02*
X14231539Y-15972936D01*
X14231539Y-15972936D02*
X14222015Y-15953888D01*
X14222015Y-15953888D02*
X14222015Y-15896746D01*
X14222015Y-15896746D02*
X14231539Y-15877698D01*
X14231539Y-15877698D02*
X14241063Y-15868174D01*
X14241063Y-15868174D02*
X14260110Y-15858650D01*
X14260110Y-15858650D02*
X14288682Y-15858650D01*
X14288682Y-15858650D02*
X14307730Y-15868174D01*
X14307730Y-15868174D02*
X14317253Y-15877698D01*
X14317253Y-15877698D02*
X14326777Y-15896746D01*
X14326777Y-15896746D02*
X14326777Y-15953888D01*
X14326777Y-15953888D02*
X14317253Y-15972936D01*
X14317253Y-15972936D02*
X14307730Y-15982460D01*
X14307730Y-15982460D02*
X14288682Y-15991984D01*
X14288682Y-15991984D02*
X14260110Y-15991984D01*
X14441063Y-15991984D02*
X14422015Y-15982460D01*
X14422015Y-15982460D02*
X14412491Y-15963412D01*
X14412491Y-15963412D02*
X14412491Y-15791984D01*
X14593444Y-15982460D02*
X14574396Y-15991984D01*
X14574396Y-15991984D02*
X14536301Y-15991984D01*
X14536301Y-15991984D02*
X14517253Y-15982460D01*
X14517253Y-15982460D02*
X14507730Y-15963412D01*
X14507730Y-15963412D02*
X14507730Y-15887222D01*
X14507730Y-15887222D02*
X14517253Y-15868174D01*
X14517253Y-15868174D02*
X14536301Y-15858650D01*
X14536301Y-15858650D02*
X14574396Y-15858650D01*
X14574396Y-15858650D02*
X14593444Y-15868174D01*
X14593444Y-15868174D02*
X14602968Y-15887222D01*
X14602968Y-15887222D02*
X14602968Y-15906269D01*
X14602968Y-15906269D02*
X14507730Y-15925317D01*
X14679158Y-15982460D02*
X14698206Y-15991984D01*
X14698206Y-15991984D02*
X14736301Y-15991984D01*
X14736301Y-15991984D02*
X14755349Y-15982460D01*
X14755349Y-15982460D02*
X14764872Y-15963412D01*
X14764872Y-15963412D02*
X14764872Y-15953888D01*
X14764872Y-15953888D02*
X14755349Y-15934841D01*
X14755349Y-15934841D02*
X14736301Y-15925317D01*
X14736301Y-15925317D02*
X14707730Y-15925317D01*
X14707730Y-15925317D02*
X14688682Y-15915793D01*
X14688682Y-15915793D02*
X14679158Y-15896746D01*
X14679158Y-15896746D02*
X14679158Y-15887222D01*
X14679158Y-15887222D02*
X14688682Y-15868174D01*
X14688682Y-15868174D02*
X14707730Y-15858650D01*
X14707730Y-15858650D02*
X14736301Y-15858650D01*
X14736301Y-15858650D02*
X14755349Y-15868174D01*
X14831539Y-16068174D02*
X14841063Y-16058650D01*
X14841063Y-16058650D02*
X14860111Y-16030079D01*
X14860111Y-16030079D02*
X14869634Y-16011031D01*
X14869634Y-16011031D02*
X14879158Y-15982460D01*
X14879158Y-15982460D02*
X14888682Y-15934841D01*
X14888682Y-15934841D02*
X14888682Y-15896746D01*
X14888682Y-15896746D02*
X14879158Y-15849127D01*
X14879158Y-15849127D02*
X14869634Y-15820555D01*
X14869634Y-15820555D02*
X14860111Y-15801508D01*
X14860111Y-15801508D02*
X14841063Y-15772936D01*
X14841063Y-15772936D02*
X14831539Y-15763412D01*
X9666000Y-16090500D02*
X9866000Y-16290500D01*
X9866000Y-16090500D02*
X9666000Y-16290500D01*
X9766000Y-16090500D02*
X9766000Y-16290500D01*
X9666000Y-16190500D02*
X9866000Y-16190500D01*
X10117253Y-16101031D02*
X10126777Y-16091508D01*
X10126777Y-16091508D02*
X10145824Y-16081984D01*
X10145824Y-16081984D02*
X10193444Y-16081984D01*
X10193444Y-16081984D02*
X10212491Y-16091508D01*
X10212491Y-16091508D02*
X10222015Y-16101031D01*
X10222015Y-16101031D02*
X10231539Y-16120079D01*
X10231539Y-16120079D02*
X10231539Y-16139127D01*
X10231539Y-16139127D02*
X10222015Y-16167698D01*
X10222015Y-16167698D02*
X10107729Y-16281984D01*
X10107729Y-16281984D02*
X10231539Y-16281984D01*
X10317253Y-16262936D02*
X10326777Y-16272460D01*
X10326777Y-16272460D02*
X10317253Y-16281984D01*
X10317253Y-16281984D02*
X10307729Y-16272460D01*
X10307729Y-16272460D02*
X10317253Y-16262936D01*
X10317253Y-16262936D02*
X10317253Y-16281984D01*
X10507729Y-16081984D02*
X10412491Y-16081984D01*
X10412491Y-16081984D02*
X10402967Y-16177222D01*
X10402967Y-16177222D02*
X10412491Y-16167698D01*
X10412491Y-16167698D02*
X10431539Y-16158174D01*
X10431539Y-16158174D02*
X10479158Y-16158174D01*
X10479158Y-16158174D02*
X10498205Y-16167698D01*
X10498205Y-16167698D02*
X10507729Y-16177222D01*
X10507729Y-16177222D02*
X10517253Y-16196269D01*
X10517253Y-16196269D02*
X10517253Y-16243888D01*
X10517253Y-16243888D02*
X10507729Y-16262936D01*
X10507729Y-16262936D02*
X10498205Y-16272460D01*
X10498205Y-16272460D02*
X10479158Y-16281984D01*
X10479158Y-16281984D02*
X10431539Y-16281984D01*
X10431539Y-16281984D02*
X10412491Y-16272460D01*
X10412491Y-16272460D02*
X10402967Y-16262936D01*
X10641063Y-16081984D02*
X10660110Y-16081984D01*
X10660110Y-16081984D02*
X10679158Y-16091508D01*
X10679158Y-16091508D02*
X10688682Y-16101031D01*
X10688682Y-16101031D02*
X10698205Y-16120079D01*
X10698205Y-16120079D02*
X10707729Y-16158174D01*
X10707729Y-16158174D02*
X10707729Y-16205793D01*
X10707729Y-16205793D02*
X10698205Y-16243888D01*
X10698205Y-16243888D02*
X10688682Y-16262936D01*
X10688682Y-16262936D02*
X10679158Y-16272460D01*
X10679158Y-16272460D02*
X10660110Y-16281984D01*
X10660110Y-16281984D02*
X10641063Y-16281984D01*
X10641063Y-16281984D02*
X10622015Y-16272460D01*
X10622015Y-16272460D02*
X10612491Y-16262936D01*
X10612491Y-16262936D02*
X10602967Y-16243888D01*
X10602967Y-16243888D02*
X10593444Y-16205793D01*
X10593444Y-16205793D02*
X10593444Y-16158174D01*
X10593444Y-16158174D02*
X10602967Y-16120079D01*
X10602967Y-16120079D02*
X10612491Y-16101031D01*
X10612491Y-16101031D02*
X10622015Y-16091508D01*
X10622015Y-16091508D02*
X10641063Y-16081984D01*
X10831539Y-16081984D02*
X10850586Y-16081984D01*
X10850586Y-16081984D02*
X10869634Y-16091508D01*
X10869634Y-16091508D02*
X10879158Y-16101031D01*
X10879158Y-16101031D02*
X10888682Y-16120079D01*
X10888682Y-16120079D02*
X10898205Y-16158174D01*
X10898205Y-16158174D02*
X10898205Y-16205793D01*
X10898205Y-16205793D02*
X10888682Y-16243888D01*
X10888682Y-16243888D02*
X10879158Y-16262936D01*
X10879158Y-16262936D02*
X10869634Y-16272460D01*
X10869634Y-16272460D02*
X10850586Y-16281984D01*
X10850586Y-16281984D02*
X10831539Y-16281984D01*
X10831539Y-16281984D02*
X10812491Y-16272460D01*
X10812491Y-16272460D02*
X10802967Y-16262936D01*
X10802967Y-16262936D02*
X10793444Y-16243888D01*
X10793444Y-16243888D02*
X10783920Y-16205793D01*
X10783920Y-16205793D02*
X10783920Y-16158174D01*
X10783920Y-16158174D02*
X10793444Y-16120079D01*
X10793444Y-16120079D02*
X10802967Y-16101031D01*
X10802967Y-16101031D02*
X10812491Y-16091508D01*
X10812491Y-16091508D02*
X10831539Y-16081984D01*
X10983920Y-16281984D02*
X10983920Y-16148650D01*
X10983920Y-16167698D02*
X10993444Y-16158174D01*
X10993444Y-16158174D02*
X11012491Y-16148650D01*
X11012491Y-16148650D02*
X11041063Y-16148650D01*
X11041063Y-16148650D02*
X11060110Y-16158174D01*
X11060110Y-16158174D02*
X11069634Y-16177222D01*
X11069634Y-16177222D02*
X11069634Y-16281984D01*
X11069634Y-16177222D02*
X11079158Y-16158174D01*
X11079158Y-16158174D02*
X11098205Y-16148650D01*
X11098205Y-16148650D02*
X11126777Y-16148650D01*
X11126777Y-16148650D02*
X11145825Y-16158174D01*
X11145825Y-16158174D02*
X11155348Y-16177222D01*
X11155348Y-16177222D02*
X11155348Y-16281984D01*
X11250586Y-16281984D02*
X11250586Y-16148650D01*
X11250586Y-16167698D02*
X11260110Y-16158174D01*
X11260110Y-16158174D02*
X11279158Y-16148650D01*
X11279158Y-16148650D02*
X11307729Y-16148650D01*
X11307729Y-16148650D02*
X11326777Y-16158174D01*
X11326777Y-16158174D02*
X11336301Y-16177222D01*
X11336301Y-16177222D02*
X11336301Y-16281984D01*
X11336301Y-16177222D02*
X11345824Y-16158174D01*
X11345824Y-16158174D02*
X11364872Y-16148650D01*
X11364872Y-16148650D02*
X11393443Y-16148650D01*
X11393443Y-16148650D02*
X11412491Y-16158174D01*
X11412491Y-16158174D02*
X11422015Y-16177222D01*
X11422015Y-16177222D02*
X11422015Y-16281984D01*
X11812491Y-16072460D02*
X11641063Y-16329603D01*
X12069634Y-16081984D02*
X12088682Y-16081984D01*
X12088682Y-16081984D02*
X12107729Y-16091508D01*
X12107729Y-16091508D02*
X12117253Y-16101031D01*
X12117253Y-16101031D02*
X12126777Y-16120079D01*
X12126777Y-16120079D02*
X12136301Y-16158174D01*
X12136301Y-16158174D02*
X12136301Y-16205793D01*
X12136301Y-16205793D02*
X12126777Y-16243888D01*
X12126777Y-16243888D02*
X12117253Y-16262936D01*
X12117253Y-16262936D02*
X12107729Y-16272460D01*
X12107729Y-16272460D02*
X12088682Y-16281984D01*
X12088682Y-16281984D02*
X12069634Y-16281984D01*
X12069634Y-16281984D02*
X12050586Y-16272460D01*
X12050586Y-16272460D02*
X12041063Y-16262936D01*
X12041063Y-16262936D02*
X12031539Y-16243888D01*
X12031539Y-16243888D02*
X12022015Y-16205793D01*
X12022015Y-16205793D02*
X12022015Y-16158174D01*
X12022015Y-16158174D02*
X12031539Y-16120079D01*
X12031539Y-16120079D02*
X12041063Y-16101031D01*
X12041063Y-16101031D02*
X12050586Y-16091508D01*
X12050586Y-16091508D02*
X12069634Y-16081984D01*
X12222015Y-16262936D02*
X12231539Y-16272460D01*
X12231539Y-16272460D02*
X12222015Y-16281984D01*
X12222015Y-16281984D02*
X12212491Y-16272460D01*
X12212491Y-16272460D02*
X12222015Y-16262936D01*
X12222015Y-16262936D02*
X12222015Y-16281984D01*
X12355348Y-16081984D02*
X12374396Y-16081984D01*
X12374396Y-16081984D02*
X12393444Y-16091508D01*
X12393444Y-16091508D02*
X12402967Y-16101031D01*
X12402967Y-16101031D02*
X12412491Y-16120079D01*
X12412491Y-16120079D02*
X12422015Y-16158174D01*
X12422015Y-16158174D02*
X12422015Y-16205793D01*
X12422015Y-16205793D02*
X12412491Y-16243888D01*
X12412491Y-16243888D02*
X12402967Y-16262936D01*
X12402967Y-16262936D02*
X12393444Y-16272460D01*
X12393444Y-16272460D02*
X12374396Y-16281984D01*
X12374396Y-16281984D02*
X12355348Y-16281984D01*
X12355348Y-16281984D02*
X12336301Y-16272460D01*
X12336301Y-16272460D02*
X12326777Y-16262936D01*
X12326777Y-16262936D02*
X12317253Y-16243888D01*
X12317253Y-16243888D02*
X12307729Y-16205793D01*
X12307729Y-16205793D02*
X12307729Y-16158174D01*
X12307729Y-16158174D02*
X12317253Y-16120079D01*
X12317253Y-16120079D02*
X12326777Y-16101031D01*
X12326777Y-16101031D02*
X12336301Y-16091508D01*
X12336301Y-16091508D02*
X12355348Y-16081984D01*
X12517253Y-16281984D02*
X12555348Y-16281984D01*
X12555348Y-16281984D02*
X12574396Y-16272460D01*
X12574396Y-16272460D02*
X12583920Y-16262936D01*
X12583920Y-16262936D02*
X12602967Y-16234365D01*
X12602967Y-16234365D02*
X12612491Y-16196269D01*
X12612491Y-16196269D02*
X12612491Y-16120079D01*
X12612491Y-16120079D02*
X12602967Y-16101031D01*
X12602967Y-16101031D02*
X12593444Y-16091508D01*
X12593444Y-16091508D02*
X12574396Y-16081984D01*
X12574396Y-16081984D02*
X12536301Y-16081984D01*
X12536301Y-16081984D02*
X12517253Y-16091508D01*
X12517253Y-16091508D02*
X12507729Y-16101031D01*
X12507729Y-16101031D02*
X12498206Y-16120079D01*
X12498206Y-16120079D02*
X12498206Y-16167698D01*
X12498206Y-16167698D02*
X12507729Y-16186746D01*
X12507729Y-16186746D02*
X12517253Y-16196269D01*
X12517253Y-16196269D02*
X12536301Y-16205793D01*
X12536301Y-16205793D02*
X12574396Y-16205793D01*
X12574396Y-16205793D02*
X12593444Y-16196269D01*
X12593444Y-16196269D02*
X12602967Y-16186746D01*
X12602967Y-16186746D02*
X12612491Y-16167698D01*
X12726777Y-16167698D02*
X12707729Y-16158174D01*
X12707729Y-16158174D02*
X12698206Y-16148650D01*
X12698206Y-16148650D02*
X12688682Y-16129603D01*
X12688682Y-16129603D02*
X12688682Y-16120079D01*
X12688682Y-16120079D02*
X12698206Y-16101031D01*
X12698206Y-16101031D02*
X12707729Y-16091508D01*
X12707729Y-16091508D02*
X12726777Y-16081984D01*
X12726777Y-16081984D02*
X12764872Y-16081984D01*
X12764872Y-16081984D02*
X12783920Y-16091508D01*
X12783920Y-16091508D02*
X12793444Y-16101031D01*
X12793444Y-16101031D02*
X12802967Y-16120079D01*
X12802967Y-16120079D02*
X12802967Y-16129603D01*
X12802967Y-16129603D02*
X12793444Y-16148650D01*
X12793444Y-16148650D02*
X12783920Y-16158174D01*
X12783920Y-16158174D02*
X12764872Y-16167698D01*
X12764872Y-16167698D02*
X12726777Y-16167698D01*
X12726777Y-16167698D02*
X12707729Y-16177222D01*
X12707729Y-16177222D02*
X12698206Y-16186746D01*
X12698206Y-16186746D02*
X12688682Y-16205793D01*
X12688682Y-16205793D02*
X12688682Y-16243888D01*
X12688682Y-16243888D02*
X12698206Y-16262936D01*
X12698206Y-16262936D02*
X12707729Y-16272460D01*
X12707729Y-16272460D02*
X12726777Y-16281984D01*
X12726777Y-16281984D02*
X12764872Y-16281984D01*
X12764872Y-16281984D02*
X12783920Y-16272460D01*
X12783920Y-16272460D02*
X12793444Y-16262936D01*
X12793444Y-16262936D02*
X12802967Y-16243888D01*
X12802967Y-16243888D02*
X12802967Y-16205793D01*
X12802967Y-16205793D02*
X12793444Y-16186746D01*
X12793444Y-16186746D02*
X12783920Y-16177222D01*
X12783920Y-16177222D02*
X12764872Y-16167698D01*
X12974396Y-16148650D02*
X12974396Y-16281984D01*
X12926777Y-16072460D02*
X12879158Y-16215317D01*
X12879158Y-16215317D02*
X13002967Y-16215317D01*
X13069634Y-16081984D02*
X13069634Y-16120079D01*
X13145825Y-16081984D02*
X13145825Y-16120079D01*
X13441063Y-16358174D02*
X13431539Y-16348650D01*
X13431539Y-16348650D02*
X13412491Y-16320079D01*
X13412491Y-16320079D02*
X13402968Y-16301031D01*
X13402968Y-16301031D02*
X13393444Y-16272460D01*
X13393444Y-16272460D02*
X13383920Y-16224841D01*
X13383920Y-16224841D02*
X13383920Y-16186746D01*
X13383920Y-16186746D02*
X13393444Y-16139127D01*
X13393444Y-16139127D02*
X13402968Y-16110555D01*
X13402968Y-16110555D02*
X13412491Y-16091508D01*
X13412491Y-16091508D02*
X13431539Y-16062936D01*
X13431539Y-16062936D02*
X13441063Y-16053412D01*
X13602968Y-16148650D02*
X13602968Y-16281984D01*
X13555348Y-16072460D02*
X13507729Y-16215317D01*
X13507729Y-16215317D02*
X13631539Y-16215317D01*
X13860110Y-16281984D02*
X13860110Y-16081984D01*
X13945825Y-16281984D02*
X13945825Y-16177222D01*
X13945825Y-16177222D02*
X13936301Y-16158174D01*
X13936301Y-16158174D02*
X13917253Y-16148650D01*
X13917253Y-16148650D02*
X13888682Y-16148650D01*
X13888682Y-16148650D02*
X13869634Y-16158174D01*
X13869634Y-16158174D02*
X13860110Y-16167698D01*
X14069634Y-16281984D02*
X14050587Y-16272460D01*
X14050587Y-16272460D02*
X14041063Y-16262936D01*
X14041063Y-16262936D02*
X14031539Y-16243888D01*
X14031539Y-16243888D02*
X14031539Y-16186746D01*
X14031539Y-16186746D02*
X14041063Y-16167698D01*
X14041063Y-16167698D02*
X14050587Y-16158174D01*
X14050587Y-16158174D02*
X14069634Y-16148650D01*
X14069634Y-16148650D02*
X14098206Y-16148650D01*
X14098206Y-16148650D02*
X14117253Y-16158174D01*
X14117253Y-16158174D02*
X14126777Y-16167698D01*
X14126777Y-16167698D02*
X14136301Y-16186746D01*
X14136301Y-16186746D02*
X14136301Y-16243888D01*
X14136301Y-16243888D02*
X14126777Y-16262936D01*
X14126777Y-16262936D02*
X14117253Y-16272460D01*
X14117253Y-16272460D02*
X14098206Y-16281984D01*
X14098206Y-16281984D02*
X14069634Y-16281984D01*
X14250587Y-16281984D02*
X14231539Y-16272460D01*
X14231539Y-16272460D02*
X14222015Y-16253412D01*
X14222015Y-16253412D02*
X14222015Y-16081984D01*
X14402968Y-16272460D02*
X14383920Y-16281984D01*
X14383920Y-16281984D02*
X14345825Y-16281984D01*
X14345825Y-16281984D02*
X14326777Y-16272460D01*
X14326777Y-16272460D02*
X14317253Y-16253412D01*
X14317253Y-16253412D02*
X14317253Y-16177222D01*
X14317253Y-16177222D02*
X14326777Y-16158174D01*
X14326777Y-16158174D02*
X14345825Y-16148650D01*
X14345825Y-16148650D02*
X14383920Y-16148650D01*
X14383920Y-16148650D02*
X14402968Y-16158174D01*
X14402968Y-16158174D02*
X14412491Y-16177222D01*
X14412491Y-16177222D02*
X14412491Y-16196269D01*
X14412491Y-16196269D02*
X14317253Y-16215317D01*
X14488682Y-16272460D02*
X14507730Y-16281984D01*
X14507730Y-16281984D02*
X14545825Y-16281984D01*
X14545825Y-16281984D02*
X14564872Y-16272460D01*
X14564872Y-16272460D02*
X14574396Y-16253412D01*
X14574396Y-16253412D02*
X14574396Y-16243888D01*
X14574396Y-16243888D02*
X14564872Y-16224841D01*
X14564872Y-16224841D02*
X14545825Y-16215317D01*
X14545825Y-16215317D02*
X14517253Y-16215317D01*
X14517253Y-16215317D02*
X14498206Y-16205793D01*
X14498206Y-16205793D02*
X14488682Y-16186746D01*
X14488682Y-16186746D02*
X14488682Y-16177222D01*
X14488682Y-16177222D02*
X14498206Y-16158174D01*
X14498206Y-16158174D02*
X14517253Y-16148650D01*
X14517253Y-16148650D02*
X14545825Y-16148650D01*
X14545825Y-16148650D02*
X14564872Y-16158174D01*
X14641063Y-16358174D02*
X14650587Y-16348650D01*
X14650587Y-16348650D02*
X14669634Y-16320079D01*
X14669634Y-16320079D02*
X14679158Y-16301031D01*
X14679158Y-16301031D02*
X14688682Y-16272460D01*
X14688682Y-16272460D02*
X14698206Y-16224841D01*
X14698206Y-16224841D02*
X14698206Y-16186746D01*
X14698206Y-16186746D02*
X14688682Y-16139127D01*
X14688682Y-16139127D02*
X14679158Y-16110555D01*
X14679158Y-16110555D02*
X14669634Y-16091508D01*
X14669634Y-16091508D02*
X14650587Y-16062936D01*
X14650587Y-16062936D02*
X14641063Y-16053412D01*
M02*
