%TF.GenerationSoftware,KiCad,Pcbnew,9.0.1*%
%TF.CreationDate,2025-07-11T18:37:37+05:30*%
%TF.ProjectId,relaymodule,72656c61-796d-46f6-9475-6c652e6b6963,rev?*%
%TF.SameCoordinates,Original*%
%TF.FileFunction,Legend,Top*%
%TF.FilePolarity,Positive*%
%FSLAX46Y46*%
G04 Gerber Fmt 4.6, Leading zero omitted, Abs format (unit mm)*
G04 Created by KiCad (PCBNEW 9.0.1) date 2025-07-11 18:37:37*
%MOMM*%
%LPD*%
G01*
G04 APERTURE LIST*
%ADD10C,0.150000*%
%ADD11C,0.120000*%
G04 APERTURE END LIST*
D10*
X195248920Y-133660644D02*
X195248920Y-132660644D01*
X195248920Y-133136834D02*
X195820348Y-133136834D01*
X195820348Y-133660644D02*
X195820348Y-132660644D01*
X196725110Y-132993977D02*
X196725110Y-133660644D01*
X196487015Y-132613025D02*
X196248920Y-133327310D01*
X196248920Y-133327310D02*
X196867967Y-133327310D01*
X142969819Y-70018094D02*
X141969819Y-70018094D01*
X141969819Y-70018094D02*
X141969819Y-69779999D01*
X141969819Y-69779999D02*
X142017438Y-69637142D01*
X142017438Y-69637142D02*
X142112676Y-69541904D01*
X142112676Y-69541904D02*
X142207914Y-69494285D01*
X142207914Y-69494285D02*
X142398390Y-69446666D01*
X142398390Y-69446666D02*
X142541247Y-69446666D01*
X142541247Y-69446666D02*
X142731723Y-69494285D01*
X142731723Y-69494285D02*
X142826961Y-69541904D01*
X142826961Y-69541904D02*
X142922200Y-69637142D01*
X142922200Y-69637142D02*
X142969819Y-69779999D01*
X142969819Y-69779999D02*
X142969819Y-70018094D01*
X142969819Y-68494285D02*
X142969819Y-69065713D01*
X142969819Y-68779999D02*
X141969819Y-68779999D01*
X141969819Y-68779999D02*
X142112676Y-68875237D01*
X142112676Y-68875237D02*
X142207914Y-68970475D01*
X142207914Y-68970475D02*
X142255533Y-69065713D01*
X152542142Y-74184819D02*
X152208809Y-73708628D01*
X151970714Y-74184819D02*
X151970714Y-73184819D01*
X151970714Y-73184819D02*
X152351666Y-73184819D01*
X152351666Y-73184819D02*
X152446904Y-73232438D01*
X152446904Y-73232438D02*
X152494523Y-73280057D01*
X152494523Y-73280057D02*
X152542142Y-73375295D01*
X152542142Y-73375295D02*
X152542142Y-73518152D01*
X152542142Y-73518152D02*
X152494523Y-73613390D01*
X152494523Y-73613390D02*
X152446904Y-73661009D01*
X152446904Y-73661009D02*
X152351666Y-73708628D01*
X152351666Y-73708628D02*
X151970714Y-73708628D01*
X152923095Y-73280057D02*
X152970714Y-73232438D01*
X152970714Y-73232438D02*
X153065952Y-73184819D01*
X153065952Y-73184819D02*
X153304047Y-73184819D01*
X153304047Y-73184819D02*
X153399285Y-73232438D01*
X153399285Y-73232438D02*
X153446904Y-73280057D01*
X153446904Y-73280057D02*
X153494523Y-73375295D01*
X153494523Y-73375295D02*
X153494523Y-73470533D01*
X153494523Y-73470533D02*
X153446904Y-73613390D01*
X153446904Y-73613390D02*
X152875476Y-74184819D01*
X152875476Y-74184819D02*
X153494523Y-74184819D01*
X154351666Y-73518152D02*
X154351666Y-74184819D01*
X154113571Y-73137200D02*
X153875476Y-73851485D01*
X153875476Y-73851485D02*
X154494523Y-73851485D01*
X182189819Y-89213333D02*
X182904104Y-89213333D01*
X182904104Y-89213333D02*
X183046961Y-89260952D01*
X183046961Y-89260952D02*
X183142200Y-89356190D01*
X183142200Y-89356190D02*
X183189819Y-89499047D01*
X183189819Y-89499047D02*
X183189819Y-89594285D01*
X182189819Y-88308571D02*
X182189819Y-88499047D01*
X182189819Y-88499047D02*
X182237438Y-88594285D01*
X182237438Y-88594285D02*
X182285057Y-88641904D01*
X182285057Y-88641904D02*
X182427914Y-88737142D01*
X182427914Y-88737142D02*
X182618390Y-88784761D01*
X182618390Y-88784761D02*
X182999342Y-88784761D01*
X182999342Y-88784761D02*
X183094580Y-88737142D01*
X183094580Y-88737142D02*
X183142200Y-88689523D01*
X183142200Y-88689523D02*
X183189819Y-88594285D01*
X183189819Y-88594285D02*
X183189819Y-88403809D01*
X183189819Y-88403809D02*
X183142200Y-88308571D01*
X183142200Y-88308571D02*
X183094580Y-88260952D01*
X183094580Y-88260952D02*
X182999342Y-88213333D01*
X182999342Y-88213333D02*
X182761247Y-88213333D01*
X182761247Y-88213333D02*
X182666009Y-88260952D01*
X182666009Y-88260952D02*
X182618390Y-88308571D01*
X182618390Y-88308571D02*
X182570771Y-88403809D01*
X182570771Y-88403809D02*
X182570771Y-88594285D01*
X182570771Y-88594285D02*
X182618390Y-88689523D01*
X182618390Y-88689523D02*
X182666009Y-88737142D01*
X182666009Y-88737142D02*
X182761247Y-88784761D01*
X159212319Y-130118094D02*
X158212319Y-130118094D01*
X159212319Y-129546666D02*
X158640890Y-129975237D01*
X158212319Y-129546666D02*
X158783747Y-130118094D01*
X158640890Y-128975237D02*
X158593271Y-129070475D01*
X158593271Y-129070475D02*
X158545652Y-129118094D01*
X158545652Y-129118094D02*
X158450414Y-129165713D01*
X158450414Y-129165713D02*
X158402795Y-129165713D01*
X158402795Y-129165713D02*
X158307557Y-129118094D01*
X158307557Y-129118094D02*
X158259938Y-129070475D01*
X158259938Y-129070475D02*
X158212319Y-128975237D01*
X158212319Y-128975237D02*
X158212319Y-128784761D01*
X158212319Y-128784761D02*
X158259938Y-128689523D01*
X158259938Y-128689523D02*
X158307557Y-128641904D01*
X158307557Y-128641904D02*
X158402795Y-128594285D01*
X158402795Y-128594285D02*
X158450414Y-128594285D01*
X158450414Y-128594285D02*
X158545652Y-128641904D01*
X158545652Y-128641904D02*
X158593271Y-128689523D01*
X158593271Y-128689523D02*
X158640890Y-128784761D01*
X158640890Y-128784761D02*
X158640890Y-128975237D01*
X158640890Y-128975237D02*
X158688509Y-129070475D01*
X158688509Y-129070475D02*
X158736128Y-129118094D01*
X158736128Y-129118094D02*
X158831366Y-129165713D01*
X158831366Y-129165713D02*
X159021842Y-129165713D01*
X159021842Y-129165713D02*
X159117080Y-129118094D01*
X159117080Y-129118094D02*
X159164700Y-129070475D01*
X159164700Y-129070475D02*
X159212319Y-128975237D01*
X159212319Y-128975237D02*
X159212319Y-128784761D01*
X159212319Y-128784761D02*
X159164700Y-128689523D01*
X159164700Y-128689523D02*
X159117080Y-128641904D01*
X159117080Y-128641904D02*
X159021842Y-128594285D01*
X159021842Y-128594285D02*
X158831366Y-128594285D01*
X158831366Y-128594285D02*
X158736128Y-128641904D01*
X158736128Y-128641904D02*
X158688509Y-128689523D01*
X158688509Y-128689523D02*
X158640890Y-128784761D01*
X142969819Y-111118094D02*
X141969819Y-111118094D01*
X141969819Y-111118094D02*
X141969819Y-110879999D01*
X141969819Y-110879999D02*
X142017438Y-110737142D01*
X142017438Y-110737142D02*
X142112676Y-110641904D01*
X142112676Y-110641904D02*
X142207914Y-110594285D01*
X142207914Y-110594285D02*
X142398390Y-110546666D01*
X142398390Y-110546666D02*
X142541247Y-110546666D01*
X142541247Y-110546666D02*
X142731723Y-110594285D01*
X142731723Y-110594285D02*
X142826961Y-110641904D01*
X142826961Y-110641904D02*
X142922200Y-110737142D01*
X142922200Y-110737142D02*
X142969819Y-110879999D01*
X142969819Y-110879999D02*
X142969819Y-111118094D01*
X141969819Y-109641904D02*
X141969819Y-110118094D01*
X141969819Y-110118094D02*
X142446009Y-110165713D01*
X142446009Y-110165713D02*
X142398390Y-110118094D01*
X142398390Y-110118094D02*
X142350771Y-110022856D01*
X142350771Y-110022856D02*
X142350771Y-109784761D01*
X142350771Y-109784761D02*
X142398390Y-109689523D01*
X142398390Y-109689523D02*
X142446009Y-109641904D01*
X142446009Y-109641904D02*
X142541247Y-109594285D01*
X142541247Y-109594285D02*
X142779342Y-109594285D01*
X142779342Y-109594285D02*
X142874580Y-109641904D01*
X142874580Y-109641904D02*
X142922200Y-109689523D01*
X142922200Y-109689523D02*
X142969819Y-109784761D01*
X142969819Y-109784761D02*
X142969819Y-110022856D01*
X142969819Y-110022856D02*
X142922200Y-110118094D01*
X142922200Y-110118094D02*
X142874580Y-110165713D01*
X142969819Y-116618094D02*
X141969819Y-116618094D01*
X141969819Y-116618094D02*
X141969819Y-116379999D01*
X141969819Y-116379999D02*
X142017438Y-116237142D01*
X142017438Y-116237142D02*
X142112676Y-116141904D01*
X142112676Y-116141904D02*
X142207914Y-116094285D01*
X142207914Y-116094285D02*
X142398390Y-116046666D01*
X142398390Y-116046666D02*
X142541247Y-116046666D01*
X142541247Y-116046666D02*
X142731723Y-116094285D01*
X142731723Y-116094285D02*
X142826961Y-116141904D01*
X142826961Y-116141904D02*
X142922200Y-116237142D01*
X142922200Y-116237142D02*
X142969819Y-116379999D01*
X142969819Y-116379999D02*
X142969819Y-116618094D01*
X141969819Y-115189523D02*
X141969819Y-115379999D01*
X141969819Y-115379999D02*
X142017438Y-115475237D01*
X142017438Y-115475237D02*
X142065057Y-115522856D01*
X142065057Y-115522856D02*
X142207914Y-115618094D01*
X142207914Y-115618094D02*
X142398390Y-115665713D01*
X142398390Y-115665713D02*
X142779342Y-115665713D01*
X142779342Y-115665713D02*
X142874580Y-115618094D01*
X142874580Y-115618094D02*
X142922200Y-115570475D01*
X142922200Y-115570475D02*
X142969819Y-115475237D01*
X142969819Y-115475237D02*
X142969819Y-115284761D01*
X142969819Y-115284761D02*
X142922200Y-115189523D01*
X142922200Y-115189523D02*
X142874580Y-115141904D01*
X142874580Y-115141904D02*
X142779342Y-115094285D01*
X142779342Y-115094285D02*
X142541247Y-115094285D01*
X142541247Y-115094285D02*
X142446009Y-115141904D01*
X142446009Y-115141904D02*
X142398390Y-115189523D01*
X142398390Y-115189523D02*
X142350771Y-115284761D01*
X142350771Y-115284761D02*
X142350771Y-115475237D01*
X142350771Y-115475237D02*
X142398390Y-115570475D01*
X142398390Y-115570475D02*
X142446009Y-115618094D01*
X142446009Y-115618094D02*
X142541247Y-115665713D01*
X159969819Y-89594285D02*
X158969819Y-89594285D01*
X158969819Y-89594285D02*
X158969819Y-89356190D01*
X158969819Y-89356190D02*
X159017438Y-89213333D01*
X159017438Y-89213333D02*
X159112676Y-89118095D01*
X159112676Y-89118095D02*
X159207914Y-89070476D01*
X159207914Y-89070476D02*
X159398390Y-89022857D01*
X159398390Y-89022857D02*
X159541247Y-89022857D01*
X159541247Y-89022857D02*
X159731723Y-89070476D01*
X159731723Y-89070476D02*
X159826961Y-89118095D01*
X159826961Y-89118095D02*
X159922200Y-89213333D01*
X159922200Y-89213333D02*
X159969819Y-89356190D01*
X159969819Y-89356190D02*
X159969819Y-89594285D01*
X159969819Y-88070476D02*
X159969819Y-88641904D01*
X159969819Y-88356190D02*
X158969819Y-88356190D01*
X158969819Y-88356190D02*
X159112676Y-88451428D01*
X159112676Y-88451428D02*
X159207914Y-88546666D01*
X159207914Y-88546666D02*
X159255533Y-88641904D01*
X159969819Y-87118095D02*
X159969819Y-87689523D01*
X159969819Y-87403809D02*
X158969819Y-87403809D01*
X158969819Y-87403809D02*
X159112676Y-87499047D01*
X159112676Y-87499047D02*
X159207914Y-87594285D01*
X159207914Y-87594285D02*
X159255533Y-87689523D01*
X151989819Y-114522857D02*
X151513628Y-114856190D01*
X151989819Y-115094285D02*
X150989819Y-115094285D01*
X150989819Y-115094285D02*
X150989819Y-114713333D01*
X150989819Y-114713333D02*
X151037438Y-114618095D01*
X151037438Y-114618095D02*
X151085057Y-114570476D01*
X151085057Y-114570476D02*
X151180295Y-114522857D01*
X151180295Y-114522857D02*
X151323152Y-114522857D01*
X151323152Y-114522857D02*
X151418390Y-114570476D01*
X151418390Y-114570476D02*
X151466009Y-114618095D01*
X151466009Y-114618095D02*
X151513628Y-114713333D01*
X151513628Y-114713333D02*
X151513628Y-115094285D01*
X151989819Y-113570476D02*
X151989819Y-114141904D01*
X151989819Y-113856190D02*
X150989819Y-113856190D01*
X150989819Y-113856190D02*
X151132676Y-113951428D01*
X151132676Y-113951428D02*
X151227914Y-114046666D01*
X151227914Y-114046666D02*
X151275533Y-114141904D01*
X151085057Y-113189523D02*
X151037438Y-113141904D01*
X151037438Y-113141904D02*
X150989819Y-113046666D01*
X150989819Y-113046666D02*
X150989819Y-112808571D01*
X150989819Y-112808571D02*
X151037438Y-112713333D01*
X151037438Y-112713333D02*
X151085057Y-112665714D01*
X151085057Y-112665714D02*
X151180295Y-112618095D01*
X151180295Y-112618095D02*
X151275533Y-112618095D01*
X151275533Y-112618095D02*
X151418390Y-112665714D01*
X151418390Y-112665714D02*
X151989819Y-113237142D01*
X151989819Y-113237142D02*
X151989819Y-112618095D01*
X142969819Y-89518094D02*
X141969819Y-89518094D01*
X141969819Y-89518094D02*
X141969819Y-89279999D01*
X141969819Y-89279999D02*
X142017438Y-89137142D01*
X142017438Y-89137142D02*
X142112676Y-89041904D01*
X142112676Y-89041904D02*
X142207914Y-88994285D01*
X142207914Y-88994285D02*
X142398390Y-88946666D01*
X142398390Y-88946666D02*
X142541247Y-88946666D01*
X142541247Y-88946666D02*
X142731723Y-88994285D01*
X142731723Y-88994285D02*
X142826961Y-89041904D01*
X142826961Y-89041904D02*
X142922200Y-89137142D01*
X142922200Y-89137142D02*
X142969819Y-89279999D01*
X142969819Y-89279999D02*
X142969819Y-89518094D01*
X141969819Y-88613332D02*
X141969819Y-87994285D01*
X141969819Y-87994285D02*
X142350771Y-88327618D01*
X142350771Y-88327618D02*
X142350771Y-88184761D01*
X142350771Y-88184761D02*
X142398390Y-88089523D01*
X142398390Y-88089523D02*
X142446009Y-88041904D01*
X142446009Y-88041904D02*
X142541247Y-87994285D01*
X142541247Y-87994285D02*
X142779342Y-87994285D01*
X142779342Y-87994285D02*
X142874580Y-88041904D01*
X142874580Y-88041904D02*
X142922200Y-88089523D01*
X142922200Y-88089523D02*
X142969819Y-88184761D01*
X142969819Y-88184761D02*
X142969819Y-88470475D01*
X142969819Y-88470475D02*
X142922200Y-88565713D01*
X142922200Y-88565713D02*
X142874580Y-88613332D01*
X182189819Y-110713333D02*
X182904104Y-110713333D01*
X182904104Y-110713333D02*
X183046961Y-110760952D01*
X183046961Y-110760952D02*
X183142200Y-110856190D01*
X183142200Y-110856190D02*
X183189819Y-110999047D01*
X183189819Y-110999047D02*
X183189819Y-111094285D01*
X182189819Y-110332380D02*
X182189819Y-109665714D01*
X182189819Y-109665714D02*
X183189819Y-110094285D01*
X144542142Y-67184819D02*
X144208809Y-66708628D01*
X143970714Y-67184819D02*
X143970714Y-66184819D01*
X143970714Y-66184819D02*
X144351666Y-66184819D01*
X144351666Y-66184819D02*
X144446904Y-66232438D01*
X144446904Y-66232438D02*
X144494523Y-66280057D01*
X144494523Y-66280057D02*
X144542142Y-66375295D01*
X144542142Y-66375295D02*
X144542142Y-66518152D01*
X144542142Y-66518152D02*
X144494523Y-66613390D01*
X144494523Y-66613390D02*
X144446904Y-66661009D01*
X144446904Y-66661009D02*
X144351666Y-66708628D01*
X144351666Y-66708628D02*
X143970714Y-66708628D01*
X145494523Y-67184819D02*
X144923095Y-67184819D01*
X145208809Y-67184819D02*
X145208809Y-66184819D01*
X145208809Y-66184819D02*
X145113571Y-66327676D01*
X145113571Y-66327676D02*
X145018333Y-66422914D01*
X145018333Y-66422914D02*
X144923095Y-66470533D01*
X146351666Y-66184819D02*
X146161190Y-66184819D01*
X146161190Y-66184819D02*
X146065952Y-66232438D01*
X146065952Y-66232438D02*
X146018333Y-66280057D01*
X146018333Y-66280057D02*
X145923095Y-66422914D01*
X145923095Y-66422914D02*
X145875476Y-66613390D01*
X145875476Y-66613390D02*
X145875476Y-66994342D01*
X145875476Y-66994342D02*
X145923095Y-67089580D01*
X145923095Y-67089580D02*
X145970714Y-67137200D01*
X145970714Y-67137200D02*
X146065952Y-67184819D01*
X146065952Y-67184819D02*
X146256428Y-67184819D01*
X146256428Y-67184819D02*
X146351666Y-67137200D01*
X146351666Y-67137200D02*
X146399285Y-67089580D01*
X146399285Y-67089580D02*
X146446904Y-66994342D01*
X146446904Y-66994342D02*
X146446904Y-66756247D01*
X146446904Y-66756247D02*
X146399285Y-66661009D01*
X146399285Y-66661009D02*
X146351666Y-66613390D01*
X146351666Y-66613390D02*
X146256428Y-66565771D01*
X146256428Y-66565771D02*
X146065952Y-66565771D01*
X146065952Y-66565771D02*
X145970714Y-66613390D01*
X145970714Y-66613390D02*
X145923095Y-66661009D01*
X145923095Y-66661009D02*
X145875476Y-66756247D01*
X142969819Y-130218094D02*
X141969819Y-130218094D01*
X141969819Y-130218094D02*
X141969819Y-129979999D01*
X141969819Y-129979999D02*
X142017438Y-129837142D01*
X142017438Y-129837142D02*
X142112676Y-129741904D01*
X142112676Y-129741904D02*
X142207914Y-129694285D01*
X142207914Y-129694285D02*
X142398390Y-129646666D01*
X142398390Y-129646666D02*
X142541247Y-129646666D01*
X142541247Y-129646666D02*
X142731723Y-129694285D01*
X142731723Y-129694285D02*
X142826961Y-129741904D01*
X142826961Y-129741904D02*
X142922200Y-129837142D01*
X142922200Y-129837142D02*
X142969819Y-129979999D01*
X142969819Y-129979999D02*
X142969819Y-130218094D01*
X141969819Y-129313332D02*
X141969819Y-128646666D01*
X141969819Y-128646666D02*
X142969819Y-129075237D01*
X144542142Y-60684819D02*
X144208809Y-60208628D01*
X143970714Y-60684819D02*
X143970714Y-59684819D01*
X143970714Y-59684819D02*
X144351666Y-59684819D01*
X144351666Y-59684819D02*
X144446904Y-59732438D01*
X144446904Y-59732438D02*
X144494523Y-59780057D01*
X144494523Y-59780057D02*
X144542142Y-59875295D01*
X144542142Y-59875295D02*
X144542142Y-60018152D01*
X144542142Y-60018152D02*
X144494523Y-60113390D01*
X144494523Y-60113390D02*
X144446904Y-60161009D01*
X144446904Y-60161009D02*
X144351666Y-60208628D01*
X144351666Y-60208628D02*
X143970714Y-60208628D01*
X145494523Y-60684819D02*
X144923095Y-60684819D01*
X145208809Y-60684819D02*
X145208809Y-59684819D01*
X145208809Y-59684819D02*
X145113571Y-59827676D01*
X145113571Y-59827676D02*
X145018333Y-59922914D01*
X145018333Y-59922914D02*
X144923095Y-59970533D01*
X146351666Y-60018152D02*
X146351666Y-60684819D01*
X146113571Y-59637200D02*
X145875476Y-60351485D01*
X145875476Y-60351485D02*
X146494523Y-60351485D01*
X100597270Y-133660644D02*
X100597270Y-132660644D01*
X100597270Y-133136834D02*
X101168698Y-133136834D01*
X101168698Y-133660644D02*
X101168698Y-132660644D01*
X101549651Y-132660644D02*
X102168698Y-132660644D01*
X102168698Y-132660644D02*
X101835365Y-133041596D01*
X101835365Y-133041596D02*
X101978222Y-133041596D01*
X101978222Y-133041596D02*
X102073460Y-133089215D01*
X102073460Y-133089215D02*
X102121079Y-133136834D01*
X102121079Y-133136834D02*
X102168698Y-133232072D01*
X102168698Y-133232072D02*
X102168698Y-133470167D01*
X102168698Y-133470167D02*
X102121079Y-133565405D01*
X102121079Y-133565405D02*
X102073460Y-133613025D01*
X102073460Y-133613025D02*
X101978222Y-133660644D01*
X101978222Y-133660644D02*
X101692508Y-133660644D01*
X101692508Y-133660644D02*
X101597270Y-133613025D01*
X101597270Y-133613025D02*
X101549651Y-133565405D01*
X142789819Y-83546666D02*
X142313628Y-83879999D01*
X142789819Y-84118094D02*
X141789819Y-84118094D01*
X141789819Y-84118094D02*
X141789819Y-83737142D01*
X141789819Y-83737142D02*
X141837438Y-83641904D01*
X141837438Y-83641904D02*
X141885057Y-83594285D01*
X141885057Y-83594285D02*
X141980295Y-83546666D01*
X141980295Y-83546666D02*
X142123152Y-83546666D01*
X142123152Y-83546666D02*
X142218390Y-83594285D01*
X142218390Y-83594285D02*
X142266009Y-83641904D01*
X142266009Y-83641904D02*
X142313628Y-83737142D01*
X142313628Y-83737142D02*
X142313628Y-84118094D01*
X141885057Y-83165713D02*
X141837438Y-83118094D01*
X141837438Y-83118094D02*
X141789819Y-83022856D01*
X141789819Y-83022856D02*
X141789819Y-82784761D01*
X141789819Y-82784761D02*
X141837438Y-82689523D01*
X141837438Y-82689523D02*
X141885057Y-82641904D01*
X141885057Y-82641904D02*
X141980295Y-82594285D01*
X141980295Y-82594285D02*
X142075533Y-82594285D01*
X142075533Y-82594285D02*
X142218390Y-82641904D01*
X142218390Y-82641904D02*
X142789819Y-83213332D01*
X142789819Y-83213332D02*
X142789819Y-82594285D01*
X195048095Y-59334819D02*
X195048095Y-58334819D01*
X195048095Y-58811009D02*
X195619523Y-58811009D01*
X195619523Y-59334819D02*
X195619523Y-58334819D01*
X196048095Y-58430057D02*
X196095714Y-58382438D01*
X196095714Y-58382438D02*
X196190952Y-58334819D01*
X196190952Y-58334819D02*
X196429047Y-58334819D01*
X196429047Y-58334819D02*
X196524285Y-58382438D01*
X196524285Y-58382438D02*
X196571904Y-58430057D01*
X196571904Y-58430057D02*
X196619523Y-58525295D01*
X196619523Y-58525295D02*
X196619523Y-58620533D01*
X196619523Y-58620533D02*
X196571904Y-58763390D01*
X196571904Y-58763390D02*
X196000476Y-59334819D01*
X196000476Y-59334819D02*
X196619523Y-59334819D01*
X147827080Y-112546666D02*
X147874700Y-112594285D01*
X147874700Y-112594285D02*
X147922319Y-112737142D01*
X147922319Y-112737142D02*
X147922319Y-112832380D01*
X147922319Y-112832380D02*
X147874700Y-112975237D01*
X147874700Y-112975237D02*
X147779461Y-113070475D01*
X147779461Y-113070475D02*
X147684223Y-113118094D01*
X147684223Y-113118094D02*
X147493747Y-113165713D01*
X147493747Y-113165713D02*
X147350890Y-113165713D01*
X147350890Y-113165713D02*
X147160414Y-113118094D01*
X147160414Y-113118094D02*
X147065176Y-113070475D01*
X147065176Y-113070475D02*
X146969938Y-112975237D01*
X146969938Y-112975237D02*
X146922319Y-112832380D01*
X146922319Y-112832380D02*
X146922319Y-112737142D01*
X146922319Y-112737142D02*
X146969938Y-112594285D01*
X146969938Y-112594285D02*
X147017557Y-112546666D01*
X147017557Y-112165713D02*
X146969938Y-112118094D01*
X146969938Y-112118094D02*
X146922319Y-112022856D01*
X146922319Y-112022856D02*
X146922319Y-111784761D01*
X146922319Y-111784761D02*
X146969938Y-111689523D01*
X146969938Y-111689523D02*
X147017557Y-111641904D01*
X147017557Y-111641904D02*
X147112795Y-111594285D01*
X147112795Y-111594285D02*
X147208033Y-111594285D01*
X147208033Y-111594285D02*
X147350890Y-111641904D01*
X147350890Y-111641904D02*
X147922319Y-112213332D01*
X147922319Y-112213332D02*
X147922319Y-111594285D01*
X114039819Y-110713333D02*
X114754104Y-110713333D01*
X114754104Y-110713333D02*
X114896961Y-110760952D01*
X114896961Y-110760952D02*
X114992200Y-110856190D01*
X114992200Y-110856190D02*
X115039819Y-110999047D01*
X115039819Y-110999047D02*
X115039819Y-111094285D01*
X114039819Y-110332380D02*
X114039819Y-109713333D01*
X114039819Y-109713333D02*
X114420771Y-110046666D01*
X114420771Y-110046666D02*
X114420771Y-109903809D01*
X114420771Y-109903809D02*
X114468390Y-109808571D01*
X114468390Y-109808571D02*
X114516009Y-109760952D01*
X114516009Y-109760952D02*
X114611247Y-109713333D01*
X114611247Y-109713333D02*
X114849342Y-109713333D01*
X114849342Y-109713333D02*
X114944580Y-109760952D01*
X114944580Y-109760952D02*
X114992200Y-109808571D01*
X114992200Y-109808571D02*
X115039819Y-109903809D01*
X115039819Y-109903809D02*
X115039819Y-110189523D01*
X115039819Y-110189523D02*
X114992200Y-110284761D01*
X114992200Y-110284761D02*
X114944580Y-110332380D01*
X144542142Y-77684819D02*
X144208809Y-77208628D01*
X143970714Y-77684819D02*
X143970714Y-76684819D01*
X143970714Y-76684819D02*
X144351666Y-76684819D01*
X144351666Y-76684819D02*
X144446904Y-76732438D01*
X144446904Y-76732438D02*
X144494523Y-76780057D01*
X144494523Y-76780057D02*
X144542142Y-76875295D01*
X144542142Y-76875295D02*
X144542142Y-77018152D01*
X144542142Y-77018152D02*
X144494523Y-77113390D01*
X144494523Y-77113390D02*
X144446904Y-77161009D01*
X144446904Y-77161009D02*
X144351666Y-77208628D01*
X144351666Y-77208628D02*
X143970714Y-77208628D01*
X145494523Y-77684819D02*
X144923095Y-77684819D01*
X145208809Y-77684819D02*
X145208809Y-76684819D01*
X145208809Y-76684819D02*
X145113571Y-76827676D01*
X145113571Y-76827676D02*
X145018333Y-76922914D01*
X145018333Y-76922914D02*
X144923095Y-76970533D01*
X145970714Y-77684819D02*
X146161190Y-77684819D01*
X146161190Y-77684819D02*
X146256428Y-77637200D01*
X146256428Y-77637200D02*
X146304047Y-77589580D01*
X146304047Y-77589580D02*
X146399285Y-77446723D01*
X146399285Y-77446723D02*
X146446904Y-77256247D01*
X146446904Y-77256247D02*
X146446904Y-76875295D01*
X146446904Y-76875295D02*
X146399285Y-76780057D01*
X146399285Y-76780057D02*
X146351666Y-76732438D01*
X146351666Y-76732438D02*
X146256428Y-76684819D01*
X146256428Y-76684819D02*
X146065952Y-76684819D01*
X146065952Y-76684819D02*
X145970714Y-76732438D01*
X145970714Y-76732438D02*
X145923095Y-76780057D01*
X145923095Y-76780057D02*
X145875476Y-76875295D01*
X145875476Y-76875295D02*
X145875476Y-77113390D01*
X145875476Y-77113390D02*
X145923095Y-77208628D01*
X145923095Y-77208628D02*
X145970714Y-77256247D01*
X145970714Y-77256247D02*
X146065952Y-77303866D01*
X146065952Y-77303866D02*
X146256428Y-77303866D01*
X146256428Y-77303866D02*
X146351666Y-77256247D01*
X146351666Y-77256247D02*
X146399285Y-77208628D01*
X146399285Y-77208628D02*
X146446904Y-77113390D01*
X159789819Y-123946666D02*
X159313628Y-124279999D01*
X159789819Y-124518094D02*
X158789819Y-124518094D01*
X158789819Y-124518094D02*
X158789819Y-124137142D01*
X158789819Y-124137142D02*
X158837438Y-124041904D01*
X158837438Y-124041904D02*
X158885057Y-123994285D01*
X158885057Y-123994285D02*
X158980295Y-123946666D01*
X158980295Y-123946666D02*
X159123152Y-123946666D01*
X159123152Y-123946666D02*
X159218390Y-123994285D01*
X159218390Y-123994285D02*
X159266009Y-124041904D01*
X159266009Y-124041904D02*
X159313628Y-124137142D01*
X159313628Y-124137142D02*
X159313628Y-124518094D01*
X159218390Y-123375237D02*
X159170771Y-123470475D01*
X159170771Y-123470475D02*
X159123152Y-123518094D01*
X159123152Y-123518094D02*
X159027914Y-123565713D01*
X159027914Y-123565713D02*
X158980295Y-123565713D01*
X158980295Y-123565713D02*
X158885057Y-123518094D01*
X158885057Y-123518094D02*
X158837438Y-123470475D01*
X158837438Y-123470475D02*
X158789819Y-123375237D01*
X158789819Y-123375237D02*
X158789819Y-123184761D01*
X158789819Y-123184761D02*
X158837438Y-123089523D01*
X158837438Y-123089523D02*
X158885057Y-123041904D01*
X158885057Y-123041904D02*
X158980295Y-122994285D01*
X158980295Y-122994285D02*
X159027914Y-122994285D01*
X159027914Y-122994285D02*
X159123152Y-123041904D01*
X159123152Y-123041904D02*
X159170771Y-123089523D01*
X159170771Y-123089523D02*
X159218390Y-123184761D01*
X159218390Y-123184761D02*
X159218390Y-123375237D01*
X159218390Y-123375237D02*
X159266009Y-123470475D01*
X159266009Y-123470475D02*
X159313628Y-123518094D01*
X159313628Y-123518094D02*
X159408866Y-123565713D01*
X159408866Y-123565713D02*
X159599342Y-123565713D01*
X159599342Y-123565713D02*
X159694580Y-123518094D01*
X159694580Y-123518094D02*
X159742200Y-123470475D01*
X159742200Y-123470475D02*
X159789819Y-123375237D01*
X159789819Y-123375237D02*
X159789819Y-123184761D01*
X159789819Y-123184761D02*
X159742200Y-123089523D01*
X159742200Y-123089523D02*
X159694580Y-123041904D01*
X159694580Y-123041904D02*
X159599342Y-122994285D01*
X159599342Y-122994285D02*
X159408866Y-122994285D01*
X159408866Y-122994285D02*
X159313628Y-123041904D01*
X159313628Y-123041904D02*
X159266009Y-123089523D01*
X159266009Y-123089523D02*
X159218390Y-123184761D01*
X140067319Y-69618094D02*
X139067319Y-69618094D01*
X140067319Y-69046666D02*
X139495890Y-69475237D01*
X139067319Y-69046666D02*
X139638747Y-69618094D01*
X140067319Y-68094285D02*
X140067319Y-68665713D01*
X140067319Y-68379999D02*
X139067319Y-68379999D01*
X139067319Y-68379999D02*
X139210176Y-68475237D01*
X139210176Y-68475237D02*
X139305414Y-68570475D01*
X139305414Y-68570475D02*
X139353033Y-68665713D01*
X159969819Y-117594285D02*
X158969819Y-117594285D01*
X158969819Y-117594285D02*
X158969819Y-117356190D01*
X158969819Y-117356190D02*
X159017438Y-117213333D01*
X159017438Y-117213333D02*
X159112676Y-117118095D01*
X159112676Y-117118095D02*
X159207914Y-117070476D01*
X159207914Y-117070476D02*
X159398390Y-117022857D01*
X159398390Y-117022857D02*
X159541247Y-117022857D01*
X159541247Y-117022857D02*
X159731723Y-117070476D01*
X159731723Y-117070476D02*
X159826961Y-117118095D01*
X159826961Y-117118095D02*
X159922200Y-117213333D01*
X159922200Y-117213333D02*
X159969819Y-117356190D01*
X159969819Y-117356190D02*
X159969819Y-117594285D01*
X159969819Y-116070476D02*
X159969819Y-116641904D01*
X159969819Y-116356190D02*
X158969819Y-116356190D01*
X158969819Y-116356190D02*
X159112676Y-116451428D01*
X159112676Y-116451428D02*
X159207914Y-116546666D01*
X159207914Y-116546666D02*
X159255533Y-116641904D01*
X159303152Y-115213333D02*
X159969819Y-115213333D01*
X158922200Y-115451428D02*
X159636485Y-115689523D01*
X159636485Y-115689523D02*
X159636485Y-115070476D01*
X159969819Y-69618094D02*
X158969819Y-69618094D01*
X158969819Y-69618094D02*
X158969819Y-69379999D01*
X158969819Y-69379999D02*
X159017438Y-69237142D01*
X159017438Y-69237142D02*
X159112676Y-69141904D01*
X159112676Y-69141904D02*
X159207914Y-69094285D01*
X159207914Y-69094285D02*
X159398390Y-69046666D01*
X159398390Y-69046666D02*
X159541247Y-69046666D01*
X159541247Y-69046666D02*
X159731723Y-69094285D01*
X159731723Y-69094285D02*
X159826961Y-69141904D01*
X159826961Y-69141904D02*
X159922200Y-69237142D01*
X159922200Y-69237142D02*
X159969819Y-69379999D01*
X159969819Y-69379999D02*
X159969819Y-69618094D01*
X159969819Y-68570475D02*
X159969819Y-68379999D01*
X159969819Y-68379999D02*
X159922200Y-68284761D01*
X159922200Y-68284761D02*
X159874580Y-68237142D01*
X159874580Y-68237142D02*
X159731723Y-68141904D01*
X159731723Y-68141904D02*
X159541247Y-68094285D01*
X159541247Y-68094285D02*
X159160295Y-68094285D01*
X159160295Y-68094285D02*
X159065057Y-68141904D01*
X159065057Y-68141904D02*
X159017438Y-68189523D01*
X159017438Y-68189523D02*
X158969819Y-68284761D01*
X158969819Y-68284761D02*
X158969819Y-68475237D01*
X158969819Y-68475237D02*
X159017438Y-68570475D01*
X159017438Y-68570475D02*
X159065057Y-68618094D01*
X159065057Y-68618094D02*
X159160295Y-68665713D01*
X159160295Y-68665713D02*
X159398390Y-68665713D01*
X159398390Y-68665713D02*
X159493628Y-68618094D01*
X159493628Y-68618094D02*
X159541247Y-68570475D01*
X159541247Y-68570475D02*
X159588866Y-68475237D01*
X159588866Y-68475237D02*
X159588866Y-68284761D01*
X159588866Y-68284761D02*
X159541247Y-68189523D01*
X159541247Y-68189523D02*
X159493628Y-68141904D01*
X159493628Y-68141904D02*
X159398390Y-68094285D01*
X152542142Y-60184819D02*
X152208809Y-59708628D01*
X151970714Y-60184819D02*
X151970714Y-59184819D01*
X151970714Y-59184819D02*
X152351666Y-59184819D01*
X152351666Y-59184819D02*
X152446904Y-59232438D01*
X152446904Y-59232438D02*
X152494523Y-59280057D01*
X152494523Y-59280057D02*
X152542142Y-59375295D01*
X152542142Y-59375295D02*
X152542142Y-59518152D01*
X152542142Y-59518152D02*
X152494523Y-59613390D01*
X152494523Y-59613390D02*
X152446904Y-59661009D01*
X152446904Y-59661009D02*
X152351666Y-59708628D01*
X152351666Y-59708628D02*
X151970714Y-59708628D01*
X152923095Y-59280057D02*
X152970714Y-59232438D01*
X152970714Y-59232438D02*
X153065952Y-59184819D01*
X153065952Y-59184819D02*
X153304047Y-59184819D01*
X153304047Y-59184819D02*
X153399285Y-59232438D01*
X153399285Y-59232438D02*
X153446904Y-59280057D01*
X153446904Y-59280057D02*
X153494523Y-59375295D01*
X153494523Y-59375295D02*
X153494523Y-59470533D01*
X153494523Y-59470533D02*
X153446904Y-59613390D01*
X153446904Y-59613390D02*
X152875476Y-60184819D01*
X152875476Y-60184819D02*
X153494523Y-60184819D01*
X154113571Y-59184819D02*
X154208809Y-59184819D01*
X154208809Y-59184819D02*
X154304047Y-59232438D01*
X154304047Y-59232438D02*
X154351666Y-59280057D01*
X154351666Y-59280057D02*
X154399285Y-59375295D01*
X154399285Y-59375295D02*
X154446904Y-59565771D01*
X154446904Y-59565771D02*
X154446904Y-59803866D01*
X154446904Y-59803866D02*
X154399285Y-59994342D01*
X154399285Y-59994342D02*
X154351666Y-60089580D01*
X154351666Y-60089580D02*
X154304047Y-60137200D01*
X154304047Y-60137200D02*
X154208809Y-60184819D01*
X154208809Y-60184819D02*
X154113571Y-60184819D01*
X154113571Y-60184819D02*
X154018333Y-60137200D01*
X154018333Y-60137200D02*
X153970714Y-60089580D01*
X153970714Y-60089580D02*
X153923095Y-59994342D01*
X153923095Y-59994342D02*
X153875476Y-59803866D01*
X153875476Y-59803866D02*
X153875476Y-59565771D01*
X153875476Y-59565771D02*
X153923095Y-59375295D01*
X153923095Y-59375295D02*
X153970714Y-59280057D01*
X153970714Y-59280057D02*
X154018333Y-59232438D01*
X154018333Y-59232438D02*
X154113571Y-59184819D01*
X114539819Y-69435833D02*
X115254104Y-69435833D01*
X115254104Y-69435833D02*
X115396961Y-69483452D01*
X115396961Y-69483452D02*
X115492200Y-69578690D01*
X115492200Y-69578690D02*
X115539819Y-69721547D01*
X115539819Y-69721547D02*
X115539819Y-69816785D01*
X115539819Y-68435833D02*
X115539819Y-69007261D01*
X115539819Y-68721547D02*
X114539819Y-68721547D01*
X114539819Y-68721547D02*
X114682676Y-68816785D01*
X114682676Y-68816785D02*
X114777914Y-68912023D01*
X114777914Y-68912023D02*
X114825533Y-69007261D01*
X148428095Y-81344819D02*
X148428095Y-82154342D01*
X148428095Y-82154342D02*
X148475714Y-82249580D01*
X148475714Y-82249580D02*
X148523333Y-82297200D01*
X148523333Y-82297200D02*
X148618571Y-82344819D01*
X148618571Y-82344819D02*
X148809047Y-82344819D01*
X148809047Y-82344819D02*
X148904285Y-82297200D01*
X148904285Y-82297200D02*
X148951904Y-82249580D01*
X148951904Y-82249580D02*
X148999523Y-82154342D01*
X148999523Y-82154342D02*
X148999523Y-81344819D01*
X149999523Y-82344819D02*
X149428095Y-82344819D01*
X149713809Y-82344819D02*
X149713809Y-81344819D01*
X149713809Y-81344819D02*
X149618571Y-81487676D01*
X149618571Y-81487676D02*
X149523333Y-81582914D01*
X149523333Y-81582914D02*
X149428095Y-81630533D01*
X152542142Y-70684819D02*
X152208809Y-70208628D01*
X151970714Y-70684819D02*
X151970714Y-69684819D01*
X151970714Y-69684819D02*
X152351666Y-69684819D01*
X152351666Y-69684819D02*
X152446904Y-69732438D01*
X152446904Y-69732438D02*
X152494523Y-69780057D01*
X152494523Y-69780057D02*
X152542142Y-69875295D01*
X152542142Y-69875295D02*
X152542142Y-70018152D01*
X152542142Y-70018152D02*
X152494523Y-70113390D01*
X152494523Y-70113390D02*
X152446904Y-70161009D01*
X152446904Y-70161009D02*
X152351666Y-70208628D01*
X152351666Y-70208628D02*
X151970714Y-70208628D01*
X152923095Y-69780057D02*
X152970714Y-69732438D01*
X152970714Y-69732438D02*
X153065952Y-69684819D01*
X153065952Y-69684819D02*
X153304047Y-69684819D01*
X153304047Y-69684819D02*
X153399285Y-69732438D01*
X153399285Y-69732438D02*
X153446904Y-69780057D01*
X153446904Y-69780057D02*
X153494523Y-69875295D01*
X153494523Y-69875295D02*
X153494523Y-69970533D01*
X153494523Y-69970533D02*
X153446904Y-70113390D01*
X153446904Y-70113390D02*
X152875476Y-70684819D01*
X152875476Y-70684819D02*
X153494523Y-70684819D01*
X153827857Y-69684819D02*
X154446904Y-69684819D01*
X154446904Y-69684819D02*
X154113571Y-70065771D01*
X154113571Y-70065771D02*
X154256428Y-70065771D01*
X154256428Y-70065771D02*
X154351666Y-70113390D01*
X154351666Y-70113390D02*
X154399285Y-70161009D01*
X154399285Y-70161009D02*
X154446904Y-70256247D01*
X154446904Y-70256247D02*
X154446904Y-70494342D01*
X154446904Y-70494342D02*
X154399285Y-70589580D01*
X154399285Y-70589580D02*
X154351666Y-70637200D01*
X154351666Y-70637200D02*
X154256428Y-70684819D01*
X154256428Y-70684819D02*
X153970714Y-70684819D01*
X153970714Y-70684819D02*
X153875476Y-70637200D01*
X153875476Y-70637200D02*
X153827857Y-70589580D01*
X148570714Y-118504819D02*
X148570714Y-117504819D01*
X148570714Y-117504819D02*
X148808809Y-117504819D01*
X148808809Y-117504819D02*
X148951666Y-117552438D01*
X148951666Y-117552438D02*
X149046904Y-117647676D01*
X149046904Y-117647676D02*
X149094523Y-117742914D01*
X149094523Y-117742914D02*
X149142142Y-117933390D01*
X149142142Y-117933390D02*
X149142142Y-118076247D01*
X149142142Y-118076247D02*
X149094523Y-118266723D01*
X149094523Y-118266723D02*
X149046904Y-118361961D01*
X149046904Y-118361961D02*
X148951666Y-118457200D01*
X148951666Y-118457200D02*
X148808809Y-118504819D01*
X148808809Y-118504819D02*
X148570714Y-118504819D01*
X150094523Y-118504819D02*
X149523095Y-118504819D01*
X149808809Y-118504819D02*
X149808809Y-117504819D01*
X149808809Y-117504819D02*
X149713571Y-117647676D01*
X149713571Y-117647676D02*
X149618333Y-117742914D01*
X149618333Y-117742914D02*
X149523095Y-117790533D01*
X150427857Y-117504819D02*
X151094523Y-117504819D01*
X151094523Y-117504819D02*
X150665952Y-118504819D01*
X143989819Y-110522857D02*
X143513628Y-110856190D01*
X143989819Y-111094285D02*
X142989819Y-111094285D01*
X142989819Y-111094285D02*
X142989819Y-110713333D01*
X142989819Y-110713333D02*
X143037438Y-110618095D01*
X143037438Y-110618095D02*
X143085057Y-110570476D01*
X143085057Y-110570476D02*
X143180295Y-110522857D01*
X143180295Y-110522857D02*
X143323152Y-110522857D01*
X143323152Y-110522857D02*
X143418390Y-110570476D01*
X143418390Y-110570476D02*
X143466009Y-110618095D01*
X143466009Y-110618095D02*
X143513628Y-110713333D01*
X143513628Y-110713333D02*
X143513628Y-111094285D01*
X143989819Y-109570476D02*
X143989819Y-110141904D01*
X143989819Y-109856190D02*
X142989819Y-109856190D01*
X142989819Y-109856190D02*
X143132676Y-109951428D01*
X143132676Y-109951428D02*
X143227914Y-110046666D01*
X143227914Y-110046666D02*
X143275533Y-110141904D01*
X143989819Y-108618095D02*
X143989819Y-109189523D01*
X143989819Y-108903809D02*
X142989819Y-108903809D01*
X142989819Y-108903809D02*
X143132676Y-108999047D01*
X143132676Y-108999047D02*
X143227914Y-109094285D01*
X143227914Y-109094285D02*
X143275533Y-109189523D01*
X144542142Y-70684819D02*
X144208809Y-70208628D01*
X143970714Y-70684819D02*
X143970714Y-69684819D01*
X143970714Y-69684819D02*
X144351666Y-69684819D01*
X144351666Y-69684819D02*
X144446904Y-69732438D01*
X144446904Y-69732438D02*
X144494523Y-69780057D01*
X144494523Y-69780057D02*
X144542142Y-69875295D01*
X144542142Y-69875295D02*
X144542142Y-70018152D01*
X144542142Y-70018152D02*
X144494523Y-70113390D01*
X144494523Y-70113390D02*
X144446904Y-70161009D01*
X144446904Y-70161009D02*
X144351666Y-70208628D01*
X144351666Y-70208628D02*
X143970714Y-70208628D01*
X145494523Y-70684819D02*
X144923095Y-70684819D01*
X145208809Y-70684819D02*
X145208809Y-69684819D01*
X145208809Y-69684819D02*
X145113571Y-69827676D01*
X145113571Y-69827676D02*
X145018333Y-69922914D01*
X145018333Y-69922914D02*
X144923095Y-69970533D01*
X145827857Y-69684819D02*
X146494523Y-69684819D01*
X146494523Y-69684819D02*
X146065952Y-70684819D01*
X144364580Y-120084166D02*
X144412200Y-120131785D01*
X144412200Y-120131785D02*
X144459819Y-120274642D01*
X144459819Y-120274642D02*
X144459819Y-120369880D01*
X144459819Y-120369880D02*
X144412200Y-120512737D01*
X144412200Y-120512737D02*
X144316961Y-120607975D01*
X144316961Y-120607975D02*
X144221723Y-120655594D01*
X144221723Y-120655594D02*
X144031247Y-120703213D01*
X144031247Y-120703213D02*
X143888390Y-120703213D01*
X143888390Y-120703213D02*
X143697914Y-120655594D01*
X143697914Y-120655594D02*
X143602676Y-120607975D01*
X143602676Y-120607975D02*
X143507438Y-120512737D01*
X143507438Y-120512737D02*
X143459819Y-120369880D01*
X143459819Y-120369880D02*
X143459819Y-120274642D01*
X143459819Y-120274642D02*
X143507438Y-120131785D01*
X143507438Y-120131785D02*
X143555057Y-120084166D01*
X144459819Y-119131785D02*
X144459819Y-119703213D01*
X144459819Y-119417499D02*
X143459819Y-119417499D01*
X143459819Y-119417499D02*
X143602676Y-119512737D01*
X143602676Y-119512737D02*
X143697914Y-119607975D01*
X143697914Y-119607975D02*
X143745533Y-119703213D01*
X144542142Y-63684819D02*
X144208809Y-63208628D01*
X143970714Y-63684819D02*
X143970714Y-62684819D01*
X143970714Y-62684819D02*
X144351666Y-62684819D01*
X144351666Y-62684819D02*
X144446904Y-62732438D01*
X144446904Y-62732438D02*
X144494523Y-62780057D01*
X144494523Y-62780057D02*
X144542142Y-62875295D01*
X144542142Y-62875295D02*
X144542142Y-63018152D01*
X144542142Y-63018152D02*
X144494523Y-63113390D01*
X144494523Y-63113390D02*
X144446904Y-63161009D01*
X144446904Y-63161009D02*
X144351666Y-63208628D01*
X144351666Y-63208628D02*
X143970714Y-63208628D01*
X145494523Y-63684819D02*
X144923095Y-63684819D01*
X145208809Y-63684819D02*
X145208809Y-62684819D01*
X145208809Y-62684819D02*
X145113571Y-62827676D01*
X145113571Y-62827676D02*
X145018333Y-62922914D01*
X145018333Y-62922914D02*
X144923095Y-62970533D01*
X146399285Y-62684819D02*
X145923095Y-62684819D01*
X145923095Y-62684819D02*
X145875476Y-63161009D01*
X145875476Y-63161009D02*
X145923095Y-63113390D01*
X145923095Y-63113390D02*
X146018333Y-63065771D01*
X146018333Y-63065771D02*
X146256428Y-63065771D01*
X146256428Y-63065771D02*
X146351666Y-63113390D01*
X146351666Y-63113390D02*
X146399285Y-63161009D01*
X146399285Y-63161009D02*
X146446904Y-63256247D01*
X146446904Y-63256247D02*
X146446904Y-63494342D01*
X146446904Y-63494342D02*
X146399285Y-63589580D01*
X146399285Y-63589580D02*
X146351666Y-63637200D01*
X146351666Y-63637200D02*
X146256428Y-63684819D01*
X146256428Y-63684819D02*
X146018333Y-63684819D01*
X146018333Y-63684819D02*
X145923095Y-63637200D01*
X145923095Y-63637200D02*
X145875476Y-63589580D01*
X159789819Y-105446666D02*
X159313628Y-105779999D01*
X159789819Y-106018094D02*
X158789819Y-106018094D01*
X158789819Y-106018094D02*
X158789819Y-105637142D01*
X158789819Y-105637142D02*
X158837438Y-105541904D01*
X158837438Y-105541904D02*
X158885057Y-105494285D01*
X158885057Y-105494285D02*
X158980295Y-105446666D01*
X158980295Y-105446666D02*
X159123152Y-105446666D01*
X159123152Y-105446666D02*
X159218390Y-105494285D01*
X159218390Y-105494285D02*
X159266009Y-105541904D01*
X159266009Y-105541904D02*
X159313628Y-105637142D01*
X159313628Y-105637142D02*
X159313628Y-106018094D01*
X158789819Y-105113332D02*
X158789819Y-104446666D01*
X158789819Y-104446666D02*
X159789819Y-104875237D01*
X182239819Y-129713333D02*
X182954104Y-129713333D01*
X182954104Y-129713333D02*
X183096961Y-129760952D01*
X183096961Y-129760952D02*
X183192200Y-129856190D01*
X183192200Y-129856190D02*
X183239819Y-129999047D01*
X183239819Y-129999047D02*
X183239819Y-130094285D01*
X182668390Y-129094285D02*
X182620771Y-129189523D01*
X182620771Y-129189523D02*
X182573152Y-129237142D01*
X182573152Y-129237142D02*
X182477914Y-129284761D01*
X182477914Y-129284761D02*
X182430295Y-129284761D01*
X182430295Y-129284761D02*
X182335057Y-129237142D01*
X182335057Y-129237142D02*
X182287438Y-129189523D01*
X182287438Y-129189523D02*
X182239819Y-129094285D01*
X182239819Y-129094285D02*
X182239819Y-128903809D01*
X182239819Y-128903809D02*
X182287438Y-128808571D01*
X182287438Y-128808571D02*
X182335057Y-128760952D01*
X182335057Y-128760952D02*
X182430295Y-128713333D01*
X182430295Y-128713333D02*
X182477914Y-128713333D01*
X182477914Y-128713333D02*
X182573152Y-128760952D01*
X182573152Y-128760952D02*
X182620771Y-128808571D01*
X182620771Y-128808571D02*
X182668390Y-128903809D01*
X182668390Y-128903809D02*
X182668390Y-129094285D01*
X182668390Y-129094285D02*
X182716009Y-129189523D01*
X182716009Y-129189523D02*
X182763628Y-129237142D01*
X182763628Y-129237142D02*
X182858866Y-129284761D01*
X182858866Y-129284761D02*
X183049342Y-129284761D01*
X183049342Y-129284761D02*
X183144580Y-129237142D01*
X183144580Y-129237142D02*
X183192200Y-129189523D01*
X183192200Y-129189523D02*
X183239819Y-129094285D01*
X183239819Y-129094285D02*
X183239819Y-128903809D01*
X183239819Y-128903809D02*
X183192200Y-128808571D01*
X183192200Y-128808571D02*
X183144580Y-128760952D01*
X183144580Y-128760952D02*
X183049342Y-128713333D01*
X183049342Y-128713333D02*
X182858866Y-128713333D01*
X182858866Y-128713333D02*
X182763628Y-128760952D01*
X182763628Y-128760952D02*
X182716009Y-128808571D01*
X182716009Y-128808571D02*
X182668390Y-128903809D01*
X159969819Y-112094285D02*
X158969819Y-112094285D01*
X158969819Y-112094285D02*
X158969819Y-111856190D01*
X158969819Y-111856190D02*
X159017438Y-111713333D01*
X159017438Y-111713333D02*
X159112676Y-111618095D01*
X159112676Y-111618095D02*
X159207914Y-111570476D01*
X159207914Y-111570476D02*
X159398390Y-111522857D01*
X159398390Y-111522857D02*
X159541247Y-111522857D01*
X159541247Y-111522857D02*
X159731723Y-111570476D01*
X159731723Y-111570476D02*
X159826961Y-111618095D01*
X159826961Y-111618095D02*
X159922200Y-111713333D01*
X159922200Y-111713333D02*
X159969819Y-111856190D01*
X159969819Y-111856190D02*
X159969819Y-112094285D01*
X159969819Y-110570476D02*
X159969819Y-111141904D01*
X159969819Y-110856190D02*
X158969819Y-110856190D01*
X158969819Y-110856190D02*
X159112676Y-110951428D01*
X159112676Y-110951428D02*
X159207914Y-111046666D01*
X159207914Y-111046666D02*
X159255533Y-111141904D01*
X158969819Y-110237142D02*
X158969819Y-109618095D01*
X158969819Y-109618095D02*
X159350771Y-109951428D01*
X159350771Y-109951428D02*
X159350771Y-109808571D01*
X159350771Y-109808571D02*
X159398390Y-109713333D01*
X159398390Y-109713333D02*
X159446009Y-109665714D01*
X159446009Y-109665714D02*
X159541247Y-109618095D01*
X159541247Y-109618095D02*
X159779342Y-109618095D01*
X159779342Y-109618095D02*
X159874580Y-109665714D01*
X159874580Y-109665714D02*
X159922200Y-109713333D01*
X159922200Y-109713333D02*
X159969819Y-109808571D01*
X159969819Y-109808571D02*
X159969819Y-110094285D01*
X159969819Y-110094285D02*
X159922200Y-110189523D01*
X159922200Y-110189523D02*
X159874580Y-110237142D01*
X159212319Y-89618094D02*
X158212319Y-89618094D01*
X159212319Y-89046666D02*
X158640890Y-89475237D01*
X158212319Y-89046666D02*
X158783747Y-89618094D01*
X158212319Y-88189523D02*
X158212319Y-88379999D01*
X158212319Y-88379999D02*
X158259938Y-88475237D01*
X158259938Y-88475237D02*
X158307557Y-88522856D01*
X158307557Y-88522856D02*
X158450414Y-88618094D01*
X158450414Y-88618094D02*
X158640890Y-88665713D01*
X158640890Y-88665713D02*
X159021842Y-88665713D01*
X159021842Y-88665713D02*
X159117080Y-88618094D01*
X159117080Y-88618094D02*
X159164700Y-88570475D01*
X159164700Y-88570475D02*
X159212319Y-88475237D01*
X159212319Y-88475237D02*
X159212319Y-88284761D01*
X159212319Y-88284761D02*
X159164700Y-88189523D01*
X159164700Y-88189523D02*
X159117080Y-88141904D01*
X159117080Y-88141904D02*
X159021842Y-88094285D01*
X159021842Y-88094285D02*
X158783747Y-88094285D01*
X158783747Y-88094285D02*
X158688509Y-88141904D01*
X158688509Y-88141904D02*
X158640890Y-88189523D01*
X158640890Y-88189523D02*
X158593271Y-88284761D01*
X158593271Y-88284761D02*
X158593271Y-88475237D01*
X158593271Y-88475237D02*
X158640890Y-88570475D01*
X158640890Y-88570475D02*
X158688509Y-88618094D01*
X158688509Y-88618094D02*
X158783747Y-88665713D01*
X159212319Y-111118094D02*
X158212319Y-111118094D01*
X159212319Y-110546666D02*
X158640890Y-110975237D01*
X158212319Y-110546666D02*
X158783747Y-111118094D01*
X158212319Y-110213332D02*
X158212319Y-109546666D01*
X158212319Y-109546666D02*
X159212319Y-109975237D01*
X142969819Y-95018094D02*
X141969819Y-95018094D01*
X141969819Y-95018094D02*
X141969819Y-94779999D01*
X141969819Y-94779999D02*
X142017438Y-94637142D01*
X142017438Y-94637142D02*
X142112676Y-94541904D01*
X142112676Y-94541904D02*
X142207914Y-94494285D01*
X142207914Y-94494285D02*
X142398390Y-94446666D01*
X142398390Y-94446666D02*
X142541247Y-94446666D01*
X142541247Y-94446666D02*
X142731723Y-94494285D01*
X142731723Y-94494285D02*
X142826961Y-94541904D01*
X142826961Y-94541904D02*
X142922200Y-94637142D01*
X142922200Y-94637142D02*
X142969819Y-94779999D01*
X142969819Y-94779999D02*
X142969819Y-95018094D01*
X142303152Y-93589523D02*
X142969819Y-93589523D01*
X141922200Y-93827618D02*
X142636485Y-94065713D01*
X142636485Y-94065713D02*
X142636485Y-93446666D01*
X143989819Y-115522857D02*
X143513628Y-115856190D01*
X143989819Y-116094285D02*
X142989819Y-116094285D01*
X142989819Y-116094285D02*
X142989819Y-115713333D01*
X142989819Y-115713333D02*
X143037438Y-115618095D01*
X143037438Y-115618095D02*
X143085057Y-115570476D01*
X143085057Y-115570476D02*
X143180295Y-115522857D01*
X143180295Y-115522857D02*
X143323152Y-115522857D01*
X143323152Y-115522857D02*
X143418390Y-115570476D01*
X143418390Y-115570476D02*
X143466009Y-115618095D01*
X143466009Y-115618095D02*
X143513628Y-115713333D01*
X143513628Y-115713333D02*
X143513628Y-116094285D01*
X143989819Y-114570476D02*
X143989819Y-115141904D01*
X143989819Y-114856190D02*
X142989819Y-114856190D01*
X142989819Y-114856190D02*
X143132676Y-114951428D01*
X143132676Y-114951428D02*
X143227914Y-115046666D01*
X143227914Y-115046666D02*
X143275533Y-115141904D01*
X142989819Y-114237142D02*
X142989819Y-113618095D01*
X142989819Y-113618095D02*
X143370771Y-113951428D01*
X143370771Y-113951428D02*
X143370771Y-113808571D01*
X143370771Y-113808571D02*
X143418390Y-113713333D01*
X143418390Y-113713333D02*
X143466009Y-113665714D01*
X143466009Y-113665714D02*
X143561247Y-113618095D01*
X143561247Y-113618095D02*
X143799342Y-113618095D01*
X143799342Y-113618095D02*
X143894580Y-113665714D01*
X143894580Y-113665714D02*
X143942200Y-113713333D01*
X143942200Y-113713333D02*
X143989819Y-113808571D01*
X143989819Y-113808571D02*
X143989819Y-114094285D01*
X143989819Y-114094285D02*
X143942200Y-114189523D01*
X143942200Y-114189523D02*
X143894580Y-114237142D01*
X159789819Y-63146666D02*
X159313628Y-63479999D01*
X159789819Y-63718094D02*
X158789819Y-63718094D01*
X158789819Y-63718094D02*
X158789819Y-63337142D01*
X158789819Y-63337142D02*
X158837438Y-63241904D01*
X158837438Y-63241904D02*
X158885057Y-63194285D01*
X158885057Y-63194285D02*
X158980295Y-63146666D01*
X158980295Y-63146666D02*
X159123152Y-63146666D01*
X159123152Y-63146666D02*
X159218390Y-63194285D01*
X159218390Y-63194285D02*
X159266009Y-63241904D01*
X159266009Y-63241904D02*
X159313628Y-63337142D01*
X159313628Y-63337142D02*
X159313628Y-63718094D01*
X158789819Y-62241904D02*
X158789819Y-62718094D01*
X158789819Y-62718094D02*
X159266009Y-62765713D01*
X159266009Y-62765713D02*
X159218390Y-62718094D01*
X159218390Y-62718094D02*
X159170771Y-62622856D01*
X159170771Y-62622856D02*
X159170771Y-62384761D01*
X159170771Y-62384761D02*
X159218390Y-62289523D01*
X159218390Y-62289523D02*
X159266009Y-62241904D01*
X159266009Y-62241904D02*
X159361247Y-62194285D01*
X159361247Y-62194285D02*
X159599342Y-62194285D01*
X159599342Y-62194285D02*
X159694580Y-62241904D01*
X159694580Y-62241904D02*
X159742200Y-62289523D01*
X159742200Y-62289523D02*
X159789819Y-62384761D01*
X159789819Y-62384761D02*
X159789819Y-62622856D01*
X159789819Y-62622856D02*
X159742200Y-62718094D01*
X159742200Y-62718094D02*
X159694580Y-62765713D01*
X100923095Y-59334819D02*
X100923095Y-58334819D01*
X100923095Y-58811009D02*
X101494523Y-58811009D01*
X101494523Y-59334819D02*
X101494523Y-58334819D01*
X102494523Y-59334819D02*
X101923095Y-59334819D01*
X102208809Y-59334819D02*
X102208809Y-58334819D01*
X102208809Y-58334819D02*
X102113571Y-58477676D01*
X102113571Y-58477676D02*
X102018333Y-58572914D01*
X102018333Y-58572914D02*
X101923095Y-58620533D01*
X142969819Y-75518094D02*
X141969819Y-75518094D01*
X141969819Y-75518094D02*
X141969819Y-75279999D01*
X141969819Y-75279999D02*
X142017438Y-75137142D01*
X142017438Y-75137142D02*
X142112676Y-75041904D01*
X142112676Y-75041904D02*
X142207914Y-74994285D01*
X142207914Y-74994285D02*
X142398390Y-74946666D01*
X142398390Y-74946666D02*
X142541247Y-74946666D01*
X142541247Y-74946666D02*
X142731723Y-74994285D01*
X142731723Y-74994285D02*
X142826961Y-75041904D01*
X142826961Y-75041904D02*
X142922200Y-75137142D01*
X142922200Y-75137142D02*
X142969819Y-75279999D01*
X142969819Y-75279999D02*
X142969819Y-75518094D01*
X142065057Y-74565713D02*
X142017438Y-74518094D01*
X142017438Y-74518094D02*
X141969819Y-74422856D01*
X141969819Y-74422856D02*
X141969819Y-74184761D01*
X141969819Y-74184761D02*
X142017438Y-74089523D01*
X142017438Y-74089523D02*
X142065057Y-74041904D01*
X142065057Y-74041904D02*
X142160295Y-73994285D01*
X142160295Y-73994285D02*
X142255533Y-73994285D01*
X142255533Y-73994285D02*
X142398390Y-74041904D01*
X142398390Y-74041904D02*
X142969819Y-74613332D01*
X142969819Y-74613332D02*
X142969819Y-73994285D01*
X159969819Y-76094285D02*
X158969819Y-76094285D01*
X158969819Y-76094285D02*
X158969819Y-75856190D01*
X158969819Y-75856190D02*
X159017438Y-75713333D01*
X159017438Y-75713333D02*
X159112676Y-75618095D01*
X159112676Y-75618095D02*
X159207914Y-75570476D01*
X159207914Y-75570476D02*
X159398390Y-75522857D01*
X159398390Y-75522857D02*
X159541247Y-75522857D01*
X159541247Y-75522857D02*
X159731723Y-75570476D01*
X159731723Y-75570476D02*
X159826961Y-75618095D01*
X159826961Y-75618095D02*
X159922200Y-75713333D01*
X159922200Y-75713333D02*
X159969819Y-75856190D01*
X159969819Y-75856190D02*
X159969819Y-76094285D01*
X159969819Y-74570476D02*
X159969819Y-75141904D01*
X159969819Y-74856190D02*
X158969819Y-74856190D01*
X158969819Y-74856190D02*
X159112676Y-74951428D01*
X159112676Y-74951428D02*
X159207914Y-75046666D01*
X159207914Y-75046666D02*
X159255533Y-75141904D01*
X158969819Y-73951428D02*
X158969819Y-73856190D01*
X158969819Y-73856190D02*
X159017438Y-73760952D01*
X159017438Y-73760952D02*
X159065057Y-73713333D01*
X159065057Y-73713333D02*
X159160295Y-73665714D01*
X159160295Y-73665714D02*
X159350771Y-73618095D01*
X159350771Y-73618095D02*
X159588866Y-73618095D01*
X159588866Y-73618095D02*
X159779342Y-73665714D01*
X159779342Y-73665714D02*
X159874580Y-73713333D01*
X159874580Y-73713333D02*
X159922200Y-73760952D01*
X159922200Y-73760952D02*
X159969819Y-73856190D01*
X159969819Y-73856190D02*
X159969819Y-73951428D01*
X159969819Y-73951428D02*
X159922200Y-74046666D01*
X159922200Y-74046666D02*
X159874580Y-74094285D01*
X159874580Y-74094285D02*
X159779342Y-74141904D01*
X159779342Y-74141904D02*
X159588866Y-74189523D01*
X159588866Y-74189523D02*
X159350771Y-74189523D01*
X159350771Y-74189523D02*
X159160295Y-74141904D01*
X159160295Y-74141904D02*
X159065057Y-74094285D01*
X159065057Y-74094285D02*
X159017438Y-74046666D01*
X159017438Y-74046666D02*
X158969819Y-73951428D01*
X114539819Y-89213333D02*
X115254104Y-89213333D01*
X115254104Y-89213333D02*
X115396961Y-89260952D01*
X115396961Y-89260952D02*
X115492200Y-89356190D01*
X115492200Y-89356190D02*
X115539819Y-89499047D01*
X115539819Y-89499047D02*
X115539819Y-89594285D01*
X114635057Y-88784761D02*
X114587438Y-88737142D01*
X114587438Y-88737142D02*
X114539819Y-88641904D01*
X114539819Y-88641904D02*
X114539819Y-88403809D01*
X114539819Y-88403809D02*
X114587438Y-88308571D01*
X114587438Y-88308571D02*
X114635057Y-88260952D01*
X114635057Y-88260952D02*
X114730295Y-88213333D01*
X114730295Y-88213333D02*
X114825533Y-88213333D01*
X114825533Y-88213333D02*
X114968390Y-88260952D01*
X114968390Y-88260952D02*
X115539819Y-88832380D01*
X115539819Y-88832380D02*
X115539819Y-88213333D01*
X159212319Y-69618094D02*
X158212319Y-69618094D01*
X159212319Y-69046666D02*
X158640890Y-69475237D01*
X158212319Y-69046666D02*
X158783747Y-69618094D01*
X158212319Y-68141904D02*
X158212319Y-68618094D01*
X158212319Y-68618094D02*
X158688509Y-68665713D01*
X158688509Y-68665713D02*
X158640890Y-68618094D01*
X158640890Y-68618094D02*
X158593271Y-68522856D01*
X158593271Y-68522856D02*
X158593271Y-68284761D01*
X158593271Y-68284761D02*
X158640890Y-68189523D01*
X158640890Y-68189523D02*
X158688509Y-68141904D01*
X158688509Y-68141904D02*
X158783747Y-68094285D01*
X158783747Y-68094285D02*
X159021842Y-68094285D01*
X159021842Y-68094285D02*
X159117080Y-68141904D01*
X159117080Y-68141904D02*
X159164700Y-68189523D01*
X159164700Y-68189523D02*
X159212319Y-68284761D01*
X159212319Y-68284761D02*
X159212319Y-68522856D01*
X159212319Y-68522856D02*
X159164700Y-68618094D01*
X159164700Y-68618094D02*
X159117080Y-68665713D01*
X159969819Y-95594285D02*
X158969819Y-95594285D01*
X158969819Y-95594285D02*
X158969819Y-95356190D01*
X158969819Y-95356190D02*
X159017438Y-95213333D01*
X159017438Y-95213333D02*
X159112676Y-95118095D01*
X159112676Y-95118095D02*
X159207914Y-95070476D01*
X159207914Y-95070476D02*
X159398390Y-95022857D01*
X159398390Y-95022857D02*
X159541247Y-95022857D01*
X159541247Y-95022857D02*
X159731723Y-95070476D01*
X159731723Y-95070476D02*
X159826961Y-95118095D01*
X159826961Y-95118095D02*
X159922200Y-95213333D01*
X159922200Y-95213333D02*
X159969819Y-95356190D01*
X159969819Y-95356190D02*
X159969819Y-95594285D01*
X159969819Y-94070476D02*
X159969819Y-94641904D01*
X159969819Y-94356190D02*
X158969819Y-94356190D01*
X158969819Y-94356190D02*
X159112676Y-94451428D01*
X159112676Y-94451428D02*
X159207914Y-94546666D01*
X159207914Y-94546666D02*
X159255533Y-94641904D01*
X159065057Y-93689523D02*
X159017438Y-93641904D01*
X159017438Y-93641904D02*
X158969819Y-93546666D01*
X158969819Y-93546666D02*
X158969819Y-93308571D01*
X158969819Y-93308571D02*
X159017438Y-93213333D01*
X159017438Y-93213333D02*
X159065057Y-93165714D01*
X159065057Y-93165714D02*
X159160295Y-93118095D01*
X159160295Y-93118095D02*
X159255533Y-93118095D01*
X159255533Y-93118095D02*
X159398390Y-93165714D01*
X159398390Y-93165714D02*
X159969819Y-93737142D01*
X159969819Y-93737142D02*
X159969819Y-93118095D01*
X152542142Y-67184819D02*
X152208809Y-66708628D01*
X151970714Y-67184819D02*
X151970714Y-66184819D01*
X151970714Y-66184819D02*
X152351666Y-66184819D01*
X152351666Y-66184819D02*
X152446904Y-66232438D01*
X152446904Y-66232438D02*
X152494523Y-66280057D01*
X152494523Y-66280057D02*
X152542142Y-66375295D01*
X152542142Y-66375295D02*
X152542142Y-66518152D01*
X152542142Y-66518152D02*
X152494523Y-66613390D01*
X152494523Y-66613390D02*
X152446904Y-66661009D01*
X152446904Y-66661009D02*
X152351666Y-66708628D01*
X152351666Y-66708628D02*
X151970714Y-66708628D01*
X152923095Y-66280057D02*
X152970714Y-66232438D01*
X152970714Y-66232438D02*
X153065952Y-66184819D01*
X153065952Y-66184819D02*
X153304047Y-66184819D01*
X153304047Y-66184819D02*
X153399285Y-66232438D01*
X153399285Y-66232438D02*
X153446904Y-66280057D01*
X153446904Y-66280057D02*
X153494523Y-66375295D01*
X153494523Y-66375295D02*
X153494523Y-66470533D01*
X153494523Y-66470533D02*
X153446904Y-66613390D01*
X153446904Y-66613390D02*
X152875476Y-67184819D01*
X152875476Y-67184819D02*
X153494523Y-67184819D01*
X153875476Y-66280057D02*
X153923095Y-66232438D01*
X153923095Y-66232438D02*
X154018333Y-66184819D01*
X154018333Y-66184819D02*
X154256428Y-66184819D01*
X154256428Y-66184819D02*
X154351666Y-66232438D01*
X154351666Y-66232438D02*
X154399285Y-66280057D01*
X154399285Y-66280057D02*
X154446904Y-66375295D01*
X154446904Y-66375295D02*
X154446904Y-66470533D01*
X154446904Y-66470533D02*
X154399285Y-66613390D01*
X154399285Y-66613390D02*
X153827857Y-67184819D01*
X153827857Y-67184819D02*
X154446904Y-67184819D01*
X142789819Y-105146666D02*
X142313628Y-105479999D01*
X142789819Y-105718094D02*
X141789819Y-105718094D01*
X141789819Y-105718094D02*
X141789819Y-105337142D01*
X141789819Y-105337142D02*
X141837438Y-105241904D01*
X141837438Y-105241904D02*
X141885057Y-105194285D01*
X141885057Y-105194285D02*
X141980295Y-105146666D01*
X141980295Y-105146666D02*
X142123152Y-105146666D01*
X142123152Y-105146666D02*
X142218390Y-105194285D01*
X142218390Y-105194285D02*
X142266009Y-105241904D01*
X142266009Y-105241904D02*
X142313628Y-105337142D01*
X142313628Y-105337142D02*
X142313628Y-105718094D01*
X141789819Y-104813332D02*
X141789819Y-104194285D01*
X141789819Y-104194285D02*
X142170771Y-104527618D01*
X142170771Y-104527618D02*
X142170771Y-104384761D01*
X142170771Y-104384761D02*
X142218390Y-104289523D01*
X142218390Y-104289523D02*
X142266009Y-104241904D01*
X142266009Y-104241904D02*
X142361247Y-104194285D01*
X142361247Y-104194285D02*
X142599342Y-104194285D01*
X142599342Y-104194285D02*
X142694580Y-104241904D01*
X142694580Y-104241904D02*
X142742200Y-104289523D01*
X142742200Y-104289523D02*
X142789819Y-104384761D01*
X142789819Y-104384761D02*
X142789819Y-104670475D01*
X142789819Y-104670475D02*
X142742200Y-104765713D01*
X142742200Y-104765713D02*
X142694580Y-104813332D01*
X152542142Y-63684819D02*
X152208809Y-63208628D01*
X151970714Y-63684819D02*
X151970714Y-62684819D01*
X151970714Y-62684819D02*
X152351666Y-62684819D01*
X152351666Y-62684819D02*
X152446904Y-62732438D01*
X152446904Y-62732438D02*
X152494523Y-62780057D01*
X152494523Y-62780057D02*
X152542142Y-62875295D01*
X152542142Y-62875295D02*
X152542142Y-63018152D01*
X152542142Y-63018152D02*
X152494523Y-63113390D01*
X152494523Y-63113390D02*
X152446904Y-63161009D01*
X152446904Y-63161009D02*
X152351666Y-63208628D01*
X152351666Y-63208628D02*
X151970714Y-63208628D01*
X152923095Y-62780057D02*
X152970714Y-62732438D01*
X152970714Y-62732438D02*
X153065952Y-62684819D01*
X153065952Y-62684819D02*
X153304047Y-62684819D01*
X153304047Y-62684819D02*
X153399285Y-62732438D01*
X153399285Y-62732438D02*
X153446904Y-62780057D01*
X153446904Y-62780057D02*
X153494523Y-62875295D01*
X153494523Y-62875295D02*
X153494523Y-62970533D01*
X153494523Y-62970533D02*
X153446904Y-63113390D01*
X153446904Y-63113390D02*
X152875476Y-63684819D01*
X152875476Y-63684819D02*
X153494523Y-63684819D01*
X154446904Y-63684819D02*
X153875476Y-63684819D01*
X154161190Y-63684819D02*
X154161190Y-62684819D01*
X154161190Y-62684819D02*
X154065952Y-62827676D01*
X154065952Y-62827676D02*
X153970714Y-62922914D01*
X153970714Y-62922914D02*
X153875476Y-62970533D01*
X182239819Y-69213333D02*
X182954104Y-69213333D01*
X182954104Y-69213333D02*
X183096961Y-69260952D01*
X183096961Y-69260952D02*
X183192200Y-69356190D01*
X183192200Y-69356190D02*
X183239819Y-69499047D01*
X183239819Y-69499047D02*
X183239819Y-69594285D01*
X182239819Y-68260952D02*
X182239819Y-68737142D01*
X182239819Y-68737142D02*
X182716009Y-68784761D01*
X182716009Y-68784761D02*
X182668390Y-68737142D01*
X182668390Y-68737142D02*
X182620771Y-68641904D01*
X182620771Y-68641904D02*
X182620771Y-68403809D01*
X182620771Y-68403809D02*
X182668390Y-68308571D01*
X182668390Y-68308571D02*
X182716009Y-68260952D01*
X182716009Y-68260952D02*
X182811247Y-68213333D01*
X182811247Y-68213333D02*
X183049342Y-68213333D01*
X183049342Y-68213333D02*
X183144580Y-68260952D01*
X183144580Y-68260952D02*
X183192200Y-68308571D01*
X183192200Y-68308571D02*
X183239819Y-68403809D01*
X183239819Y-68403809D02*
X183239819Y-68641904D01*
X183239819Y-68641904D02*
X183192200Y-68737142D01*
X183192200Y-68737142D02*
X183144580Y-68784761D01*
X149351666Y-128434819D02*
X149351666Y-129149104D01*
X149351666Y-129149104D02*
X149304047Y-129291961D01*
X149304047Y-129291961D02*
X149208809Y-129387200D01*
X149208809Y-129387200D02*
X149065952Y-129434819D01*
X149065952Y-129434819D02*
X148970714Y-129434819D01*
X149875476Y-129434819D02*
X150065952Y-129434819D01*
X150065952Y-129434819D02*
X150161190Y-129387200D01*
X150161190Y-129387200D02*
X150208809Y-129339580D01*
X150208809Y-129339580D02*
X150304047Y-129196723D01*
X150304047Y-129196723D02*
X150351666Y-129006247D01*
X150351666Y-129006247D02*
X150351666Y-128625295D01*
X150351666Y-128625295D02*
X150304047Y-128530057D01*
X150304047Y-128530057D02*
X150256428Y-128482438D01*
X150256428Y-128482438D02*
X150161190Y-128434819D01*
X150161190Y-128434819D02*
X149970714Y-128434819D01*
X149970714Y-128434819D02*
X149875476Y-128482438D01*
X149875476Y-128482438D02*
X149827857Y-128530057D01*
X149827857Y-128530057D02*
X149780238Y-128625295D01*
X149780238Y-128625295D02*
X149780238Y-128863390D01*
X149780238Y-128863390D02*
X149827857Y-128958628D01*
X149827857Y-128958628D02*
X149875476Y-129006247D01*
X149875476Y-129006247D02*
X149970714Y-129053866D01*
X149970714Y-129053866D02*
X150161190Y-129053866D01*
X150161190Y-129053866D02*
X150256428Y-129006247D01*
X150256428Y-129006247D02*
X150304047Y-128958628D01*
X150304047Y-128958628D02*
X150351666Y-128863390D01*
X151989819Y-110022857D02*
X151513628Y-110356190D01*
X151989819Y-110594285D02*
X150989819Y-110594285D01*
X150989819Y-110594285D02*
X150989819Y-110213333D01*
X150989819Y-110213333D02*
X151037438Y-110118095D01*
X151037438Y-110118095D02*
X151085057Y-110070476D01*
X151085057Y-110070476D02*
X151180295Y-110022857D01*
X151180295Y-110022857D02*
X151323152Y-110022857D01*
X151323152Y-110022857D02*
X151418390Y-110070476D01*
X151418390Y-110070476D02*
X151466009Y-110118095D01*
X151466009Y-110118095D02*
X151513628Y-110213333D01*
X151513628Y-110213333D02*
X151513628Y-110594285D01*
X151989819Y-109070476D02*
X151989819Y-109641904D01*
X151989819Y-109356190D02*
X150989819Y-109356190D01*
X150989819Y-109356190D02*
X151132676Y-109451428D01*
X151132676Y-109451428D02*
X151227914Y-109546666D01*
X151227914Y-109546666D02*
X151275533Y-109641904D01*
X150989819Y-108451428D02*
X150989819Y-108356190D01*
X150989819Y-108356190D02*
X151037438Y-108260952D01*
X151037438Y-108260952D02*
X151085057Y-108213333D01*
X151085057Y-108213333D02*
X151180295Y-108165714D01*
X151180295Y-108165714D02*
X151370771Y-108118095D01*
X151370771Y-108118095D02*
X151608866Y-108118095D01*
X151608866Y-108118095D02*
X151799342Y-108165714D01*
X151799342Y-108165714D02*
X151894580Y-108213333D01*
X151894580Y-108213333D02*
X151942200Y-108260952D01*
X151942200Y-108260952D02*
X151989819Y-108356190D01*
X151989819Y-108356190D02*
X151989819Y-108451428D01*
X151989819Y-108451428D02*
X151942200Y-108546666D01*
X151942200Y-108546666D02*
X151894580Y-108594285D01*
X151894580Y-108594285D02*
X151799342Y-108641904D01*
X151799342Y-108641904D02*
X151608866Y-108689523D01*
X151608866Y-108689523D02*
X151370771Y-108689523D01*
X151370771Y-108689523D02*
X151180295Y-108641904D01*
X151180295Y-108641904D02*
X151085057Y-108594285D01*
X151085057Y-108594285D02*
X151037438Y-108546666D01*
X151037438Y-108546666D02*
X150989819Y-108451428D01*
X144542142Y-74184819D02*
X144208809Y-73708628D01*
X143970714Y-74184819D02*
X143970714Y-73184819D01*
X143970714Y-73184819D02*
X144351666Y-73184819D01*
X144351666Y-73184819D02*
X144446904Y-73232438D01*
X144446904Y-73232438D02*
X144494523Y-73280057D01*
X144494523Y-73280057D02*
X144542142Y-73375295D01*
X144542142Y-73375295D02*
X144542142Y-73518152D01*
X144542142Y-73518152D02*
X144494523Y-73613390D01*
X144494523Y-73613390D02*
X144446904Y-73661009D01*
X144446904Y-73661009D02*
X144351666Y-73708628D01*
X144351666Y-73708628D02*
X143970714Y-73708628D01*
X145494523Y-74184819D02*
X144923095Y-74184819D01*
X145208809Y-74184819D02*
X145208809Y-73184819D01*
X145208809Y-73184819D02*
X145113571Y-73327676D01*
X145113571Y-73327676D02*
X145018333Y-73422914D01*
X145018333Y-73422914D02*
X144923095Y-73470533D01*
X146065952Y-73613390D02*
X145970714Y-73565771D01*
X145970714Y-73565771D02*
X145923095Y-73518152D01*
X145923095Y-73518152D02*
X145875476Y-73422914D01*
X145875476Y-73422914D02*
X145875476Y-73375295D01*
X145875476Y-73375295D02*
X145923095Y-73280057D01*
X145923095Y-73280057D02*
X145970714Y-73232438D01*
X145970714Y-73232438D02*
X146065952Y-73184819D01*
X146065952Y-73184819D02*
X146256428Y-73184819D01*
X146256428Y-73184819D02*
X146351666Y-73232438D01*
X146351666Y-73232438D02*
X146399285Y-73280057D01*
X146399285Y-73280057D02*
X146446904Y-73375295D01*
X146446904Y-73375295D02*
X146446904Y-73422914D01*
X146446904Y-73422914D02*
X146399285Y-73518152D01*
X146399285Y-73518152D02*
X146351666Y-73565771D01*
X146351666Y-73565771D02*
X146256428Y-73613390D01*
X146256428Y-73613390D02*
X146065952Y-73613390D01*
X146065952Y-73613390D02*
X145970714Y-73661009D01*
X145970714Y-73661009D02*
X145923095Y-73708628D01*
X145923095Y-73708628D02*
X145875476Y-73803866D01*
X145875476Y-73803866D02*
X145875476Y-73994342D01*
X145875476Y-73994342D02*
X145923095Y-74089580D01*
X145923095Y-74089580D02*
X145970714Y-74137200D01*
X145970714Y-74137200D02*
X146065952Y-74184819D01*
X146065952Y-74184819D02*
X146256428Y-74184819D01*
X146256428Y-74184819D02*
X146351666Y-74137200D01*
X146351666Y-74137200D02*
X146399285Y-74089580D01*
X146399285Y-74089580D02*
X146446904Y-73994342D01*
X146446904Y-73994342D02*
X146446904Y-73803866D01*
X146446904Y-73803866D02*
X146399285Y-73708628D01*
X146399285Y-73708628D02*
X146351666Y-73661009D01*
X146351666Y-73661009D02*
X146256428Y-73613390D01*
X140067319Y-111118094D02*
X139067319Y-111118094D01*
X140067319Y-110546666D02*
X139495890Y-110975237D01*
X139067319Y-110546666D02*
X139638747Y-111118094D01*
X139067319Y-110213332D02*
X139067319Y-109594285D01*
X139067319Y-109594285D02*
X139448271Y-109927618D01*
X139448271Y-109927618D02*
X139448271Y-109784761D01*
X139448271Y-109784761D02*
X139495890Y-109689523D01*
X139495890Y-109689523D02*
X139543509Y-109641904D01*
X139543509Y-109641904D02*
X139638747Y-109594285D01*
X139638747Y-109594285D02*
X139876842Y-109594285D01*
X139876842Y-109594285D02*
X139972080Y-109641904D01*
X139972080Y-109641904D02*
X140019700Y-109689523D01*
X140019700Y-109689523D02*
X140067319Y-109784761D01*
X140067319Y-109784761D02*
X140067319Y-110070475D01*
X140067319Y-110070475D02*
X140019700Y-110165713D01*
X140019700Y-110165713D02*
X139972080Y-110213332D01*
X142789819Y-64046666D02*
X142313628Y-64379999D01*
X142789819Y-64618094D02*
X141789819Y-64618094D01*
X141789819Y-64618094D02*
X141789819Y-64237142D01*
X141789819Y-64237142D02*
X141837438Y-64141904D01*
X141837438Y-64141904D02*
X141885057Y-64094285D01*
X141885057Y-64094285D02*
X141980295Y-64046666D01*
X141980295Y-64046666D02*
X142123152Y-64046666D01*
X142123152Y-64046666D02*
X142218390Y-64094285D01*
X142218390Y-64094285D02*
X142266009Y-64141904D01*
X142266009Y-64141904D02*
X142313628Y-64237142D01*
X142313628Y-64237142D02*
X142313628Y-64618094D01*
X142789819Y-63094285D02*
X142789819Y-63665713D01*
X142789819Y-63379999D02*
X141789819Y-63379999D01*
X141789819Y-63379999D02*
X141932676Y-63475237D01*
X141932676Y-63475237D02*
X142027914Y-63570475D01*
X142027914Y-63570475D02*
X142075533Y-63665713D01*
X159969819Y-136094285D02*
X158969819Y-136094285D01*
X158969819Y-136094285D02*
X158969819Y-135856190D01*
X158969819Y-135856190D02*
X159017438Y-135713333D01*
X159017438Y-135713333D02*
X159112676Y-135618095D01*
X159112676Y-135618095D02*
X159207914Y-135570476D01*
X159207914Y-135570476D02*
X159398390Y-135522857D01*
X159398390Y-135522857D02*
X159541247Y-135522857D01*
X159541247Y-135522857D02*
X159731723Y-135570476D01*
X159731723Y-135570476D02*
X159826961Y-135618095D01*
X159826961Y-135618095D02*
X159922200Y-135713333D01*
X159922200Y-135713333D02*
X159969819Y-135856190D01*
X159969819Y-135856190D02*
X159969819Y-136094285D01*
X159969819Y-134570476D02*
X159969819Y-135141904D01*
X159969819Y-134856190D02*
X158969819Y-134856190D01*
X158969819Y-134856190D02*
X159112676Y-134951428D01*
X159112676Y-134951428D02*
X159207914Y-135046666D01*
X159207914Y-135046666D02*
X159255533Y-135141904D01*
X158969819Y-133713333D02*
X158969819Y-133903809D01*
X158969819Y-133903809D02*
X159017438Y-133999047D01*
X159017438Y-133999047D02*
X159065057Y-134046666D01*
X159065057Y-134046666D02*
X159207914Y-134141904D01*
X159207914Y-134141904D02*
X159398390Y-134189523D01*
X159398390Y-134189523D02*
X159779342Y-134189523D01*
X159779342Y-134189523D02*
X159874580Y-134141904D01*
X159874580Y-134141904D02*
X159922200Y-134094285D01*
X159922200Y-134094285D02*
X159969819Y-133999047D01*
X159969819Y-133999047D02*
X159969819Y-133808571D01*
X159969819Y-133808571D02*
X159922200Y-133713333D01*
X159922200Y-133713333D02*
X159874580Y-133665714D01*
X159874580Y-133665714D02*
X159779342Y-133618095D01*
X159779342Y-133618095D02*
X159541247Y-133618095D01*
X159541247Y-133618095D02*
X159446009Y-133665714D01*
X159446009Y-133665714D02*
X159398390Y-133713333D01*
X159398390Y-133713333D02*
X159350771Y-133808571D01*
X159350771Y-133808571D02*
X159350771Y-133999047D01*
X159350771Y-133999047D02*
X159398390Y-134094285D01*
X159398390Y-134094285D02*
X159446009Y-134141904D01*
X159446009Y-134141904D02*
X159541247Y-134189523D01*
X152489819Y-120046666D02*
X152013628Y-120379999D01*
X152489819Y-120618094D02*
X151489819Y-120618094D01*
X151489819Y-120618094D02*
X151489819Y-120237142D01*
X151489819Y-120237142D02*
X151537438Y-120141904D01*
X151537438Y-120141904D02*
X151585057Y-120094285D01*
X151585057Y-120094285D02*
X151680295Y-120046666D01*
X151680295Y-120046666D02*
X151823152Y-120046666D01*
X151823152Y-120046666D02*
X151918390Y-120094285D01*
X151918390Y-120094285D02*
X151966009Y-120141904D01*
X151966009Y-120141904D02*
X152013628Y-120237142D01*
X152013628Y-120237142D02*
X152013628Y-120618094D01*
X152489819Y-119570475D02*
X152489819Y-119379999D01*
X152489819Y-119379999D02*
X152442200Y-119284761D01*
X152442200Y-119284761D02*
X152394580Y-119237142D01*
X152394580Y-119237142D02*
X152251723Y-119141904D01*
X152251723Y-119141904D02*
X152061247Y-119094285D01*
X152061247Y-119094285D02*
X151680295Y-119094285D01*
X151680295Y-119094285D02*
X151585057Y-119141904D01*
X151585057Y-119141904D02*
X151537438Y-119189523D01*
X151537438Y-119189523D02*
X151489819Y-119284761D01*
X151489819Y-119284761D02*
X151489819Y-119475237D01*
X151489819Y-119475237D02*
X151537438Y-119570475D01*
X151537438Y-119570475D02*
X151585057Y-119618094D01*
X151585057Y-119618094D02*
X151680295Y-119665713D01*
X151680295Y-119665713D02*
X151918390Y-119665713D01*
X151918390Y-119665713D02*
X152013628Y-119618094D01*
X152013628Y-119618094D02*
X152061247Y-119570475D01*
X152061247Y-119570475D02*
X152108866Y-119475237D01*
X152108866Y-119475237D02*
X152108866Y-119284761D01*
X152108866Y-119284761D02*
X152061247Y-119189523D01*
X152061247Y-119189523D02*
X152013628Y-119141904D01*
X152013628Y-119141904D02*
X151918390Y-119094285D01*
X114039819Y-129713333D02*
X114754104Y-129713333D01*
X114754104Y-129713333D02*
X114896961Y-129760952D01*
X114896961Y-129760952D02*
X114992200Y-129856190D01*
X114992200Y-129856190D02*
X115039819Y-129999047D01*
X115039819Y-129999047D02*
X115039819Y-130094285D01*
X114373152Y-128808571D02*
X115039819Y-128808571D01*
X113992200Y-129046666D02*
X114706485Y-129284761D01*
X114706485Y-129284761D02*
X114706485Y-128665714D01*
X139567319Y-130118094D02*
X138567319Y-130118094D01*
X139567319Y-129546666D02*
X138995890Y-129975237D01*
X138567319Y-129546666D02*
X139138747Y-130118094D01*
X138900652Y-128689523D02*
X139567319Y-128689523D01*
X138519700Y-128927618D02*
X139233985Y-129165713D01*
X139233985Y-129165713D02*
X139233985Y-128546666D01*
X159969819Y-130594285D02*
X158969819Y-130594285D01*
X158969819Y-130594285D02*
X158969819Y-130356190D01*
X158969819Y-130356190D02*
X159017438Y-130213333D01*
X159017438Y-130213333D02*
X159112676Y-130118095D01*
X159112676Y-130118095D02*
X159207914Y-130070476D01*
X159207914Y-130070476D02*
X159398390Y-130022857D01*
X159398390Y-130022857D02*
X159541247Y-130022857D01*
X159541247Y-130022857D02*
X159731723Y-130070476D01*
X159731723Y-130070476D02*
X159826961Y-130118095D01*
X159826961Y-130118095D02*
X159922200Y-130213333D01*
X159922200Y-130213333D02*
X159969819Y-130356190D01*
X159969819Y-130356190D02*
X159969819Y-130594285D01*
X159969819Y-129070476D02*
X159969819Y-129641904D01*
X159969819Y-129356190D02*
X158969819Y-129356190D01*
X158969819Y-129356190D02*
X159112676Y-129451428D01*
X159112676Y-129451428D02*
X159207914Y-129546666D01*
X159207914Y-129546666D02*
X159255533Y-129641904D01*
X158969819Y-128165714D02*
X158969819Y-128641904D01*
X158969819Y-128641904D02*
X159446009Y-128689523D01*
X159446009Y-128689523D02*
X159398390Y-128641904D01*
X159398390Y-128641904D02*
X159350771Y-128546666D01*
X159350771Y-128546666D02*
X159350771Y-128308571D01*
X159350771Y-128308571D02*
X159398390Y-128213333D01*
X159398390Y-128213333D02*
X159446009Y-128165714D01*
X159446009Y-128165714D02*
X159541247Y-128118095D01*
X159541247Y-128118095D02*
X159779342Y-128118095D01*
X159779342Y-128118095D02*
X159874580Y-128165714D01*
X159874580Y-128165714D02*
X159922200Y-128213333D01*
X159922200Y-128213333D02*
X159969819Y-128308571D01*
X159969819Y-128308571D02*
X159969819Y-128546666D01*
X159969819Y-128546666D02*
X159922200Y-128641904D01*
X159922200Y-128641904D02*
X159874580Y-128689523D01*
X152542142Y-77684819D02*
X152208809Y-77208628D01*
X151970714Y-77684819D02*
X151970714Y-76684819D01*
X151970714Y-76684819D02*
X152351666Y-76684819D01*
X152351666Y-76684819D02*
X152446904Y-76732438D01*
X152446904Y-76732438D02*
X152494523Y-76780057D01*
X152494523Y-76780057D02*
X152542142Y-76875295D01*
X152542142Y-76875295D02*
X152542142Y-77018152D01*
X152542142Y-77018152D02*
X152494523Y-77113390D01*
X152494523Y-77113390D02*
X152446904Y-77161009D01*
X152446904Y-77161009D02*
X152351666Y-77208628D01*
X152351666Y-77208628D02*
X151970714Y-77208628D01*
X152923095Y-76780057D02*
X152970714Y-76732438D01*
X152970714Y-76732438D02*
X153065952Y-76684819D01*
X153065952Y-76684819D02*
X153304047Y-76684819D01*
X153304047Y-76684819D02*
X153399285Y-76732438D01*
X153399285Y-76732438D02*
X153446904Y-76780057D01*
X153446904Y-76780057D02*
X153494523Y-76875295D01*
X153494523Y-76875295D02*
X153494523Y-76970533D01*
X153494523Y-76970533D02*
X153446904Y-77113390D01*
X153446904Y-77113390D02*
X152875476Y-77684819D01*
X152875476Y-77684819D02*
X153494523Y-77684819D01*
X154399285Y-76684819D02*
X153923095Y-76684819D01*
X153923095Y-76684819D02*
X153875476Y-77161009D01*
X153875476Y-77161009D02*
X153923095Y-77113390D01*
X153923095Y-77113390D02*
X154018333Y-77065771D01*
X154018333Y-77065771D02*
X154256428Y-77065771D01*
X154256428Y-77065771D02*
X154351666Y-77113390D01*
X154351666Y-77113390D02*
X154399285Y-77161009D01*
X154399285Y-77161009D02*
X154446904Y-77256247D01*
X154446904Y-77256247D02*
X154446904Y-77494342D01*
X154446904Y-77494342D02*
X154399285Y-77589580D01*
X154399285Y-77589580D02*
X154351666Y-77637200D01*
X154351666Y-77637200D02*
X154256428Y-77684819D01*
X154256428Y-77684819D02*
X154018333Y-77684819D01*
X154018333Y-77684819D02*
X153923095Y-77637200D01*
X153923095Y-77637200D02*
X153875476Y-77589580D01*
X142969819Y-136218094D02*
X141969819Y-136218094D01*
X141969819Y-136218094D02*
X141969819Y-135979999D01*
X141969819Y-135979999D02*
X142017438Y-135837142D01*
X142017438Y-135837142D02*
X142112676Y-135741904D01*
X142112676Y-135741904D02*
X142207914Y-135694285D01*
X142207914Y-135694285D02*
X142398390Y-135646666D01*
X142398390Y-135646666D02*
X142541247Y-135646666D01*
X142541247Y-135646666D02*
X142731723Y-135694285D01*
X142731723Y-135694285D02*
X142826961Y-135741904D01*
X142826961Y-135741904D02*
X142922200Y-135837142D01*
X142922200Y-135837142D02*
X142969819Y-135979999D01*
X142969819Y-135979999D02*
X142969819Y-136218094D01*
X142398390Y-135075237D02*
X142350771Y-135170475D01*
X142350771Y-135170475D02*
X142303152Y-135218094D01*
X142303152Y-135218094D02*
X142207914Y-135265713D01*
X142207914Y-135265713D02*
X142160295Y-135265713D01*
X142160295Y-135265713D02*
X142065057Y-135218094D01*
X142065057Y-135218094D02*
X142017438Y-135170475D01*
X142017438Y-135170475D02*
X141969819Y-135075237D01*
X141969819Y-135075237D02*
X141969819Y-134884761D01*
X141969819Y-134884761D02*
X142017438Y-134789523D01*
X142017438Y-134789523D02*
X142065057Y-134741904D01*
X142065057Y-134741904D02*
X142160295Y-134694285D01*
X142160295Y-134694285D02*
X142207914Y-134694285D01*
X142207914Y-134694285D02*
X142303152Y-134741904D01*
X142303152Y-134741904D02*
X142350771Y-134789523D01*
X142350771Y-134789523D02*
X142398390Y-134884761D01*
X142398390Y-134884761D02*
X142398390Y-135075237D01*
X142398390Y-135075237D02*
X142446009Y-135170475D01*
X142446009Y-135170475D02*
X142493628Y-135218094D01*
X142493628Y-135218094D02*
X142588866Y-135265713D01*
X142588866Y-135265713D02*
X142779342Y-135265713D01*
X142779342Y-135265713D02*
X142874580Y-135218094D01*
X142874580Y-135218094D02*
X142922200Y-135170475D01*
X142922200Y-135170475D02*
X142969819Y-135075237D01*
X142969819Y-135075237D02*
X142969819Y-134884761D01*
X142969819Y-134884761D02*
X142922200Y-134789523D01*
X142922200Y-134789523D02*
X142874580Y-134741904D01*
X142874580Y-134741904D02*
X142779342Y-134694285D01*
X142779342Y-134694285D02*
X142588866Y-134694285D01*
X142588866Y-134694285D02*
X142493628Y-134741904D01*
X142493628Y-134741904D02*
X142446009Y-134789523D01*
X142446009Y-134789523D02*
X142398390Y-134884761D01*
X148375476Y-81334819D02*
X148375476Y-82049104D01*
X148375476Y-82049104D02*
X148327857Y-82191961D01*
X148327857Y-82191961D02*
X148232619Y-82287200D01*
X148232619Y-82287200D02*
X148089762Y-82334819D01*
X148089762Y-82334819D02*
X147994524Y-82334819D01*
X149375476Y-82334819D02*
X148804048Y-82334819D01*
X149089762Y-82334819D02*
X149089762Y-81334819D01*
X149089762Y-81334819D02*
X148994524Y-81477676D01*
X148994524Y-81477676D02*
X148899286Y-81572914D01*
X148899286Y-81572914D02*
X148804048Y-81620533D01*
X149994524Y-81334819D02*
X150089762Y-81334819D01*
X150089762Y-81334819D02*
X150185000Y-81382438D01*
X150185000Y-81382438D02*
X150232619Y-81430057D01*
X150232619Y-81430057D02*
X150280238Y-81525295D01*
X150280238Y-81525295D02*
X150327857Y-81715771D01*
X150327857Y-81715771D02*
X150327857Y-81953866D01*
X150327857Y-81953866D02*
X150280238Y-82144342D01*
X150280238Y-82144342D02*
X150232619Y-82239580D01*
X150232619Y-82239580D02*
X150185000Y-82287200D01*
X150185000Y-82287200D02*
X150089762Y-82334819D01*
X150089762Y-82334819D02*
X149994524Y-82334819D01*
X149994524Y-82334819D02*
X149899286Y-82287200D01*
X149899286Y-82287200D02*
X149851667Y-82239580D01*
X149851667Y-82239580D02*
X149804048Y-82144342D01*
X149804048Y-82144342D02*
X149756429Y-81953866D01*
X149756429Y-81953866D02*
X149756429Y-81715771D01*
X149756429Y-81715771D02*
X149804048Y-81525295D01*
X149804048Y-81525295D02*
X149851667Y-81430057D01*
X149851667Y-81430057D02*
X149899286Y-81382438D01*
X149899286Y-81382438D02*
X149994524Y-81334819D01*
X148351667Y-122287200D02*
X148494524Y-122334819D01*
X148494524Y-122334819D02*
X148732619Y-122334819D01*
X148732619Y-122334819D02*
X148827857Y-122287200D01*
X148827857Y-122287200D02*
X148875476Y-122239580D01*
X148875476Y-122239580D02*
X148923095Y-122144342D01*
X148923095Y-122144342D02*
X148923095Y-122049104D01*
X148923095Y-122049104D02*
X148875476Y-121953866D01*
X148875476Y-121953866D02*
X148827857Y-121906247D01*
X148827857Y-121906247D02*
X148732619Y-121858628D01*
X148732619Y-121858628D02*
X148542143Y-121811009D01*
X148542143Y-121811009D02*
X148446905Y-121763390D01*
X148446905Y-121763390D02*
X148399286Y-121715771D01*
X148399286Y-121715771D02*
X148351667Y-121620533D01*
X148351667Y-121620533D02*
X148351667Y-121525295D01*
X148351667Y-121525295D02*
X148399286Y-121430057D01*
X148399286Y-121430057D02*
X148446905Y-121382438D01*
X148446905Y-121382438D02*
X148542143Y-121334819D01*
X148542143Y-121334819D02*
X148780238Y-121334819D01*
X148780238Y-121334819D02*
X148923095Y-121382438D01*
X149256429Y-121334819D02*
X149494524Y-122334819D01*
X149494524Y-122334819D02*
X149685000Y-121620533D01*
X149685000Y-121620533D02*
X149875476Y-122334819D01*
X149875476Y-122334819D02*
X150113572Y-121334819D01*
X151018333Y-122334819D02*
X150446905Y-122334819D01*
X150732619Y-122334819D02*
X150732619Y-121334819D01*
X150732619Y-121334819D02*
X150637381Y-121477676D01*
X150637381Y-121477676D02*
X150542143Y-121572914D01*
X150542143Y-121572914D02*
X150446905Y-121620533D01*
X159789819Y-82646666D02*
X159313628Y-82979999D01*
X159789819Y-83218094D02*
X158789819Y-83218094D01*
X158789819Y-83218094D02*
X158789819Y-82837142D01*
X158789819Y-82837142D02*
X158837438Y-82741904D01*
X158837438Y-82741904D02*
X158885057Y-82694285D01*
X158885057Y-82694285D02*
X158980295Y-82646666D01*
X158980295Y-82646666D02*
X159123152Y-82646666D01*
X159123152Y-82646666D02*
X159218390Y-82694285D01*
X159218390Y-82694285D02*
X159266009Y-82741904D01*
X159266009Y-82741904D02*
X159313628Y-82837142D01*
X159313628Y-82837142D02*
X159313628Y-83218094D01*
X158789819Y-81789523D02*
X158789819Y-81979999D01*
X158789819Y-81979999D02*
X158837438Y-82075237D01*
X158837438Y-82075237D02*
X158885057Y-82122856D01*
X158885057Y-82122856D02*
X159027914Y-82218094D01*
X159027914Y-82218094D02*
X159218390Y-82265713D01*
X159218390Y-82265713D02*
X159599342Y-82265713D01*
X159599342Y-82265713D02*
X159694580Y-82218094D01*
X159694580Y-82218094D02*
X159742200Y-82170475D01*
X159742200Y-82170475D02*
X159789819Y-82075237D01*
X159789819Y-82075237D02*
X159789819Y-81884761D01*
X159789819Y-81884761D02*
X159742200Y-81789523D01*
X159742200Y-81789523D02*
X159694580Y-81741904D01*
X159694580Y-81741904D02*
X159599342Y-81694285D01*
X159599342Y-81694285D02*
X159361247Y-81694285D01*
X159361247Y-81694285D02*
X159266009Y-81741904D01*
X159266009Y-81741904D02*
X159218390Y-81789523D01*
X159218390Y-81789523D02*
X159170771Y-81884761D01*
X159170771Y-81884761D02*
X159170771Y-82075237D01*
X159170771Y-82075237D02*
X159218390Y-82170475D01*
X159218390Y-82170475D02*
X159266009Y-82218094D01*
X159266009Y-82218094D02*
X159361247Y-82265713D01*
X142789819Y-123746666D02*
X142313628Y-124079999D01*
X142789819Y-124318094D02*
X141789819Y-124318094D01*
X141789819Y-124318094D02*
X141789819Y-123937142D01*
X141789819Y-123937142D02*
X141837438Y-123841904D01*
X141837438Y-123841904D02*
X141885057Y-123794285D01*
X141885057Y-123794285D02*
X141980295Y-123746666D01*
X141980295Y-123746666D02*
X142123152Y-123746666D01*
X142123152Y-123746666D02*
X142218390Y-123794285D01*
X142218390Y-123794285D02*
X142266009Y-123841904D01*
X142266009Y-123841904D02*
X142313628Y-123937142D01*
X142313628Y-123937142D02*
X142313628Y-124318094D01*
X142123152Y-122889523D02*
X142789819Y-122889523D01*
X141742200Y-123127618D02*
X142456485Y-123365713D01*
X142456485Y-123365713D02*
X142456485Y-122746666D01*
X140067319Y-89618094D02*
X139067319Y-89618094D01*
X140067319Y-89046666D02*
X139495890Y-89475237D01*
X139067319Y-89046666D02*
X139638747Y-89618094D01*
X139162557Y-88665713D02*
X139114938Y-88618094D01*
X139114938Y-88618094D02*
X139067319Y-88522856D01*
X139067319Y-88522856D02*
X139067319Y-88284761D01*
X139067319Y-88284761D02*
X139114938Y-88189523D01*
X139114938Y-88189523D02*
X139162557Y-88141904D01*
X139162557Y-88141904D02*
X139257795Y-88094285D01*
X139257795Y-88094285D02*
X139353033Y-88094285D01*
X139353033Y-88094285D02*
X139495890Y-88141904D01*
X139495890Y-88141904D02*
X140067319Y-88713332D01*
X140067319Y-88713332D02*
X140067319Y-88094285D01*
D11*
%TO.C,D1*%
X139550000Y-66995000D02*
X139550000Y-70880000D01*
X141820000Y-66995000D02*
X139550000Y-66995000D01*
X141820000Y-70880000D02*
X141820000Y-66995000D01*
%TO.C,R24*%
X152957936Y-74645000D02*
X153412064Y-74645000D01*
X152957936Y-76115000D02*
X153412064Y-76115000D01*
%TO.C,J6*%
X183825000Y-81270000D02*
X183825000Y-96490000D01*
X183825000Y-96490000D02*
X192545000Y-96490000D01*
X187335000Y-97290000D02*
X187635000Y-96690000D01*
X187635000Y-96690000D02*
X187935000Y-97290000D01*
X187935000Y-97290000D02*
X187335000Y-97290000D01*
X192545000Y-81270000D02*
X183825000Y-81270000D01*
X192545000Y-96490000D02*
X192545000Y-81270000D01*
%TO.C,K8*%
X159647500Y-130380000D02*
X159647500Y-128380000D01*
X159907500Y-121030000D02*
X159907500Y-137730000D01*
X159907500Y-137730000D02*
X182607500Y-137730000D01*
X164157500Y-129030000D02*
X164157500Y-129730000D01*
X164157500Y-129730000D02*
X165357500Y-129730000D01*
X164757500Y-128030000D02*
X164757500Y-124880000D01*
X164757500Y-133880000D02*
X164757500Y-130730000D01*
X164957500Y-129730000D02*
X164557500Y-129030000D01*
X165357500Y-129030000D02*
X164157500Y-129030000D01*
X165357500Y-129730000D02*
X165357500Y-129030000D01*
X182607500Y-121030000D02*
X159907500Y-121030000D01*
X182607500Y-137730000D02*
X182607500Y-121030000D01*
%TO.C,D5*%
X139550000Y-108095000D02*
X139550000Y-111980000D01*
X141820000Y-108095000D02*
X139550000Y-108095000D01*
X141820000Y-111980000D02*
X141820000Y-108095000D01*
%TO.C,D6*%
X139550000Y-113595000D02*
X139550000Y-117480000D01*
X141820000Y-113595000D02*
X139550000Y-113595000D01*
X141820000Y-117480000D02*
X141820000Y-113595000D01*
%TO.C,D11*%
X156550000Y-86095000D02*
X156550000Y-89980000D01*
X158820000Y-86095000D02*
X156550000Y-86095000D01*
X158820000Y-89980000D02*
X158820000Y-86095000D01*
%TO.C,R12*%
X152450000Y-114107064D02*
X152450000Y-113652936D01*
X153920000Y-114107064D02*
X153920000Y-113652936D01*
%TO.C,D3*%
X139550000Y-86495000D02*
X139550000Y-90380000D01*
X141820000Y-86495000D02*
X139550000Y-86495000D01*
X141820000Y-90380000D02*
X141820000Y-86495000D01*
%TO.C,J7*%
X183825000Y-102770000D02*
X183825000Y-117990000D01*
X183825000Y-117990000D02*
X192545000Y-117990000D01*
X187335000Y-118790000D02*
X187635000Y-118190000D01*
X187635000Y-118190000D02*
X187935000Y-118790000D01*
X187935000Y-118790000D02*
X187335000Y-118790000D01*
X192545000Y-102770000D02*
X183825000Y-102770000D01*
X192545000Y-117990000D02*
X192545000Y-102770000D01*
%TO.C,R16*%
X144957936Y-67645000D02*
X145412064Y-67645000D01*
X144957936Y-69115000D02*
X145412064Y-69115000D01*
%TO.C,D7*%
X139550000Y-127195000D02*
X139550000Y-131080000D01*
X141820000Y-127195000D02*
X139550000Y-127195000D01*
X141820000Y-131080000D02*
X141820000Y-127195000D01*
%TO.C,R14*%
X144957936Y-61145000D02*
X145412064Y-61145000D01*
X144957936Y-62615000D02*
X145412064Y-62615000D01*
%TO.C,R2*%
X139950000Y-83152936D02*
X139950000Y-83607064D01*
X141420000Y-83152936D02*
X141420000Y-83607064D01*
%TO.C,C2*%
X148412500Y-112641252D02*
X148412500Y-112118748D01*
X149882500Y-112641252D02*
X149882500Y-112118748D01*
%TO.C,J3*%
X104775000Y-102770000D02*
X104775000Y-117990000D01*
X104775000Y-117990000D02*
X113495000Y-117990000D01*
X109385000Y-101970000D02*
X109985000Y-101970000D01*
X109685000Y-102570000D02*
X109385000Y-101970000D01*
X109985000Y-101970000D02*
X109685000Y-102570000D01*
X113495000Y-102770000D02*
X104775000Y-102770000D01*
X113495000Y-117990000D02*
X113495000Y-102770000D01*
%TO.C,R19*%
X144957936Y-78145000D02*
X145412064Y-78145000D01*
X144957936Y-79615000D02*
X145412064Y-79615000D01*
%TO.C,R8*%
X156950000Y-123552936D02*
X156950000Y-124007064D01*
X158420000Y-123552936D02*
X158420000Y-124007064D01*
%TO.C,K1*%
X115762500Y-60530000D02*
X115762500Y-77230000D01*
X115762500Y-77230000D02*
X138462500Y-77230000D01*
X133012500Y-68530000D02*
X133012500Y-69230000D01*
X133012500Y-69230000D02*
X134212500Y-69230000D01*
X133412500Y-68530000D02*
X133812500Y-69230000D01*
X133612500Y-64380000D02*
X133612500Y-67530000D01*
X133612500Y-70230000D02*
X133612500Y-73380000D01*
X134212500Y-68530000D02*
X133012500Y-68530000D01*
X134212500Y-69230000D02*
X134212500Y-68530000D01*
X138462500Y-60530000D02*
X115762500Y-60530000D01*
X138462500Y-77230000D02*
X138462500Y-60530000D01*
X138722500Y-67880000D02*
X138722500Y-69880000D01*
%TO.C,D14*%
X156550000Y-114095000D02*
X156550000Y-117980000D01*
X158820000Y-114095000D02*
X156550000Y-114095000D01*
X158820000Y-117980000D02*
X158820000Y-114095000D01*
%TO.C,D9*%
X156550000Y-66595000D02*
X156550000Y-70480000D01*
X158820000Y-66595000D02*
X156550000Y-66595000D01*
X158820000Y-70480000D02*
X158820000Y-66595000D01*
%TO.C,R20*%
X152957936Y-60645000D02*
X153412064Y-60645000D01*
X152957936Y-62115000D02*
X153412064Y-62115000D01*
%TO.C,J1*%
X105275000Y-61492500D02*
X105275000Y-76712500D01*
X105275000Y-76712500D02*
X113995000Y-76712500D01*
X109885000Y-60692500D02*
X110485000Y-60692500D01*
X110185000Y-61292500D02*
X109885000Y-60692500D01*
X110485000Y-60692500D02*
X110185000Y-61292500D01*
X113995000Y-61492500D02*
X105275000Y-61492500D01*
X113995000Y-76712500D02*
X113995000Y-61492500D01*
%TO.C,U1*%
X146540000Y-82890000D02*
X146540000Y-105870000D01*
X146540000Y-105870000D02*
X151840000Y-105870000D01*
X148190000Y-82890000D02*
X146540000Y-82890000D01*
X151840000Y-82890000D02*
X150190000Y-82890000D01*
X151840000Y-105870000D02*
X151840000Y-82890000D01*
X150190000Y-82890000D02*
G75*
G02*
X148190000Y-82890000I-1000000J0D01*
G01*
%TO.C,R23*%
X152957936Y-71145000D02*
X153412064Y-71145000D01*
X152957936Y-72615000D02*
X153412064Y-72615000D01*
%TO.C,D17*%
X147500000Y-118745000D02*
X147500000Y-121015000D01*
X147500000Y-121015000D02*
X151385000Y-121015000D01*
X151385000Y-118745000D02*
X147500000Y-118745000D01*
%TO.C,R11*%
X144450000Y-110107064D02*
X144450000Y-109652936D01*
X145920000Y-110107064D02*
X145920000Y-109652936D01*
%TO.C,R17*%
X144957936Y-71145000D02*
X145412064Y-71145000D01*
X144957936Y-72615000D02*
X145412064Y-72615000D01*
%TO.C,C1*%
X144950000Y-120178752D02*
X144950000Y-119656248D01*
X146420000Y-120178752D02*
X146420000Y-119656248D01*
%TO.C,R15*%
X144957936Y-64145000D02*
X145412064Y-64145000D01*
X144957936Y-65615000D02*
X145412064Y-65615000D01*
%TO.C,R7*%
X156950000Y-105052936D02*
X156950000Y-105507064D01*
X158420000Y-105052936D02*
X158420000Y-105507064D01*
%TO.C,J8*%
X183875000Y-121770000D02*
X183875000Y-136990000D01*
X183875000Y-136990000D02*
X192595000Y-136990000D01*
X187385000Y-137790000D02*
X187685000Y-137190000D01*
X187685000Y-137190000D02*
X187985000Y-137790000D01*
X187985000Y-137790000D02*
X187385000Y-137790000D01*
X192595000Y-121770000D02*
X183875000Y-121770000D01*
X192595000Y-136990000D02*
X192595000Y-121770000D01*
%TO.C,D13*%
X156550000Y-108595000D02*
X156550000Y-112480000D01*
X158820000Y-108595000D02*
X156550000Y-108595000D01*
X158820000Y-112480000D02*
X158820000Y-108595000D01*
%TO.C,K6*%
X159647500Y-89880000D02*
X159647500Y-87880000D01*
X159907500Y-80530000D02*
X159907500Y-97230000D01*
X159907500Y-97230000D02*
X182607500Y-97230000D01*
X164157500Y-88530000D02*
X164157500Y-89230000D01*
X164157500Y-89230000D02*
X165357500Y-89230000D01*
X164757500Y-87530000D02*
X164757500Y-84380000D01*
X164757500Y-93380000D02*
X164757500Y-90230000D01*
X164957500Y-89230000D02*
X164557500Y-88530000D01*
X165357500Y-88530000D02*
X164157500Y-88530000D01*
X165357500Y-89230000D02*
X165357500Y-88530000D01*
X182607500Y-80530000D02*
X159907500Y-80530000D01*
X182607500Y-97230000D02*
X182607500Y-80530000D01*
%TO.C,K7*%
X159647500Y-111380000D02*
X159647500Y-109380000D01*
X159907500Y-102030000D02*
X159907500Y-118730000D01*
X159907500Y-118730000D02*
X182607500Y-118730000D01*
X164157500Y-110030000D02*
X164157500Y-110730000D01*
X164157500Y-110730000D02*
X165357500Y-110730000D01*
X164757500Y-109030000D02*
X164757500Y-105880000D01*
X164757500Y-114880000D02*
X164757500Y-111730000D01*
X164957500Y-110730000D02*
X164557500Y-110030000D01*
X165357500Y-110030000D02*
X164157500Y-110030000D01*
X165357500Y-110730000D02*
X165357500Y-110030000D01*
X182607500Y-102030000D02*
X159907500Y-102030000D01*
X182607500Y-118730000D02*
X182607500Y-102030000D01*
%TO.C,D4*%
X139550000Y-91995000D02*
X139550000Y-95880000D01*
X141820000Y-91995000D02*
X139550000Y-91995000D01*
X141820000Y-95880000D02*
X141820000Y-91995000D01*
%TO.C,R13*%
X144450000Y-115107064D02*
X144450000Y-114652936D01*
X145920000Y-115107064D02*
X145920000Y-114652936D01*
%TO.C,R5*%
X156950000Y-62752936D02*
X156950000Y-63207064D01*
X158420000Y-62752936D02*
X158420000Y-63207064D01*
%TO.C,D2*%
X139550000Y-72495000D02*
X139550000Y-76380000D01*
X141820000Y-72495000D02*
X139550000Y-72495000D01*
X141820000Y-76380000D02*
X141820000Y-72495000D01*
%TO.C,D10*%
X156550000Y-72595000D02*
X156550000Y-76480000D01*
X158820000Y-72595000D02*
X156550000Y-72595000D01*
X158820000Y-76480000D02*
X158820000Y-72595000D01*
%TO.C,J2*%
X105275000Y-81270000D02*
X105275000Y-96490000D01*
X105275000Y-96490000D02*
X113995000Y-96490000D01*
X109885000Y-80470000D02*
X110485000Y-80470000D01*
X110185000Y-81070000D02*
X109885000Y-80470000D01*
X110485000Y-80470000D02*
X110185000Y-81070000D01*
X113995000Y-81270000D02*
X105275000Y-81270000D01*
X113995000Y-96490000D02*
X113995000Y-81270000D01*
%TO.C,K5*%
X159647500Y-69880000D02*
X159647500Y-67880000D01*
X159907500Y-60530000D02*
X159907500Y-77230000D01*
X159907500Y-77230000D02*
X182607500Y-77230000D01*
X164157500Y-68530000D02*
X164157500Y-69230000D01*
X164157500Y-69230000D02*
X165357500Y-69230000D01*
X164757500Y-67530000D02*
X164757500Y-64380000D01*
X164757500Y-73380000D02*
X164757500Y-70230000D01*
X164957500Y-69230000D02*
X164557500Y-68530000D01*
X165357500Y-68530000D02*
X164157500Y-68530000D01*
X165357500Y-69230000D02*
X165357500Y-68530000D01*
X182607500Y-60530000D02*
X159907500Y-60530000D01*
X182607500Y-77230000D02*
X182607500Y-60530000D01*
%TO.C,D12*%
X156550000Y-92095000D02*
X156550000Y-95980000D01*
X158820000Y-92095000D02*
X156550000Y-92095000D01*
X158820000Y-95980000D02*
X158820000Y-92095000D01*
%TO.C,R22*%
X152957936Y-67645000D02*
X153412064Y-67645000D01*
X152957936Y-69115000D02*
X153412064Y-69115000D01*
%TO.C,R3*%
X139950000Y-104752936D02*
X139950000Y-105207064D01*
X141420000Y-104752936D02*
X141420000Y-105207064D01*
%TO.C,R21*%
X152957936Y-64145000D02*
X153412064Y-64145000D01*
X152957936Y-65615000D02*
X153412064Y-65615000D01*
%TO.C,J5*%
X183875000Y-61270000D02*
X183875000Y-76490000D01*
X183875000Y-76490000D02*
X192595000Y-76490000D01*
X187385000Y-77290000D02*
X187685000Y-76690000D01*
X187685000Y-76690000D02*
X187985000Y-77290000D01*
X187985000Y-77290000D02*
X187385000Y-77290000D01*
X192595000Y-61270000D02*
X183875000Y-61270000D01*
X192595000Y-76490000D02*
X192595000Y-61270000D01*
%TO.C,J9*%
X143775000Y-133580000D02*
X144375000Y-133880000D01*
X143775000Y-134180000D02*
X143775000Y-133580000D01*
X144375000Y-133880000D02*
X143775000Y-134180000D01*
X144575000Y-130070000D02*
X144575000Y-138790000D01*
X144575000Y-138790000D02*
X154795000Y-138790000D01*
X154795000Y-130070000D02*
X144575000Y-130070000D01*
X154795000Y-138790000D02*
X154795000Y-130070000D01*
%TO.C,R10*%
X152450000Y-109607064D02*
X152450000Y-109152936D01*
X153920000Y-109607064D02*
X153920000Y-109152936D01*
%TO.C,R18*%
X144957936Y-74645000D02*
X145412064Y-74645000D01*
X144957936Y-76115000D02*
X145412064Y-76115000D01*
%TO.C,K3*%
X115762500Y-102030000D02*
X115762500Y-118730000D01*
X115762500Y-118730000D02*
X138462500Y-118730000D01*
X133012500Y-110030000D02*
X133012500Y-110730000D01*
X133012500Y-110730000D02*
X134212500Y-110730000D01*
X133412500Y-110030000D02*
X133812500Y-110730000D01*
X133612500Y-105880000D02*
X133612500Y-109030000D01*
X133612500Y-111730000D02*
X133612500Y-114880000D01*
X134212500Y-110030000D02*
X133012500Y-110030000D01*
X134212500Y-110730000D02*
X134212500Y-110030000D01*
X138462500Y-102030000D02*
X115762500Y-102030000D01*
X138462500Y-118730000D02*
X138462500Y-102030000D01*
X138722500Y-109380000D02*
X138722500Y-111380000D01*
%TO.C,R1*%
X139950000Y-63652936D02*
X139950000Y-64107064D01*
X141420000Y-63652936D02*
X141420000Y-64107064D01*
%TO.C,D16*%
X156550000Y-132595000D02*
X156550000Y-136480000D01*
X158820000Y-132595000D02*
X156550000Y-132595000D01*
X158820000Y-136480000D02*
X158820000Y-132595000D01*
%TO.C,R9*%
X152950000Y-120107064D02*
X152950000Y-119652936D01*
X154420000Y-120107064D02*
X154420000Y-119652936D01*
%TO.C,J4*%
X104775000Y-121770000D02*
X104775000Y-136990000D01*
X104775000Y-136990000D02*
X113495000Y-136990000D01*
X109385000Y-120970000D02*
X109985000Y-120970000D01*
X109685000Y-121570000D02*
X109385000Y-120970000D01*
X109985000Y-120970000D02*
X109685000Y-121570000D01*
X113495000Y-121770000D02*
X104775000Y-121770000D01*
X113495000Y-136990000D02*
X113495000Y-121770000D01*
%TO.C,K4*%
X115262500Y-121030000D02*
X115262500Y-137730000D01*
X115262500Y-137730000D02*
X137962500Y-137730000D01*
X132512500Y-129030000D02*
X132512500Y-129730000D01*
X132512500Y-129730000D02*
X133712500Y-129730000D01*
X132912500Y-129030000D02*
X133312500Y-129730000D01*
X133112500Y-124880000D02*
X133112500Y-128030000D01*
X133112500Y-130730000D02*
X133112500Y-133880000D01*
X133712500Y-129030000D02*
X132512500Y-129030000D01*
X133712500Y-129730000D02*
X133712500Y-129030000D01*
X137962500Y-121030000D02*
X115262500Y-121030000D01*
X137962500Y-137730000D02*
X137962500Y-121030000D01*
X138222500Y-128380000D02*
X138222500Y-130380000D01*
%TO.C,D15*%
X156550000Y-127095000D02*
X156550000Y-130980000D01*
X158820000Y-127095000D02*
X156550000Y-127095000D01*
X158820000Y-130980000D02*
X158820000Y-127095000D01*
%TO.C,R25*%
X152957936Y-78145000D02*
X153412064Y-78145000D01*
X152957936Y-79615000D02*
X153412064Y-79615000D01*
%TO.C,D8*%
X139550000Y-133195000D02*
X139550000Y-137080000D01*
X141820000Y-133195000D02*
X139550000Y-133195000D01*
X141820000Y-137080000D02*
X141820000Y-133195000D01*
%TO.C,J10*%
X147805000Y-78230000D02*
X147805000Y-60340000D01*
X150565000Y-60340000D02*
X147805000Y-60340000D01*
X150565000Y-78230000D02*
X147805000Y-78230000D01*
X150565000Y-78230000D02*
X150565000Y-60340000D01*
X150565000Y-79500000D02*
X150565000Y-80880000D01*
X150565000Y-80880000D02*
X149185000Y-80880000D01*
%TO.C,SW1*%
X147235000Y-126655000D02*
X147235000Y-126105000D01*
X148260000Y-124530000D02*
X147335000Y-124530000D01*
X152035000Y-124530000D02*
X151110000Y-124530000D01*
X152035000Y-128230000D02*
X147335000Y-128230000D01*
X152135000Y-126655000D02*
X152135000Y-126105000D01*
%TO.C,R6*%
X156950000Y-82252936D02*
X156950000Y-82707064D01*
X158420000Y-82252936D02*
X158420000Y-82707064D01*
%TO.C,R4*%
X139950000Y-123352936D02*
X139950000Y-123807064D01*
X141420000Y-123352936D02*
X141420000Y-123807064D01*
%TO.C,K2*%
X115762500Y-80530000D02*
X115762500Y-97230000D01*
X115762500Y-97230000D02*
X138462500Y-97230000D01*
X133012500Y-88530000D02*
X133012500Y-89230000D01*
X133012500Y-89230000D02*
X134212500Y-89230000D01*
X133412500Y-88530000D02*
X133812500Y-89230000D01*
X133612500Y-84380000D02*
X133612500Y-87530000D01*
X133612500Y-90230000D02*
X133612500Y-93380000D01*
X134212500Y-88530000D02*
X133012500Y-88530000D01*
X134212500Y-89230000D02*
X134212500Y-88530000D01*
X138462500Y-80530000D02*
X115762500Y-80530000D01*
X138462500Y-97230000D02*
X138462500Y-80530000D01*
X138722500Y-87880000D02*
X138722500Y-89880000D01*
%TD*%
M02*
